<svg id="Camada_1" data-name="Camada 1" xmlns="http://www.w3.org/2000/svg" viewBox="0 0 326.82 206.78"><defs><style>.cls-1{fill:#3b324a;}.cls-2{fill:#969696;}.cls-3{fill:#fcfcfc;}.cls-4{fill:#5e35a0;}.cls-5{fill:none;stroke:#5e35a0;stroke-miterlimit:10;stroke-width:0.22px;}.cls-6{fill:#6222ca;}.cls-7{fill:#2e2b33;}.cls-8{fill:#5e00f5;}</style></defs><path class="cls-1" d="M102.84,241.91A26.7,26.7,0,0,1,111,230a9.89,9.89,0,0,1,2.81-1.86l0,0a3,3,0,0,1-.3.7,24.72,24.72,0,0,0-5.38,14.27,22.24,22.24,0,0,0,2,10.65c-.09-1.72-.26-3.42-.23-5.13.15-7.77,5.44-14.6,12.59-15.85,4.57-.81,9,.21,13.27,2a45.44,45.44,0,0,1,6.93,3.32,15.32,15.32,0,0,0-9.94,10.88c-1.48,5.24-.36,10.2,1.83,15a19.9,19.9,0,0,1-4.68-5.29,7.64,7.64,0,0,0,.39,4.12c2.34,8.42,7.62,14.39,14.53,19,5.68,3.77,12,5.74,18.55,6.93a7.72,7.72,0,0,1,2.3.28,58.69,58.69,0,0,1-9.57-.53,88,88,0,0,1-13.38-2.67,97.72,97.72,0,0,1-23-9.89,84.76,84.76,0,0,1-13.09-9.36,65.23,65.23,0,0,1-8.63-9.09A75.94,75.94,0,0,1,90.23,245c-.06-.11-.21-.17-.48-.38a25.09,25.09,0,0,0,.61,7.94,40.72,40.72,0,0,0,8.72,17.87A61.79,61.79,0,0,0,113,282.62a7,7,0,0,1,1.28,1,8.5,8.5,0,0,1-3.39-1.09A100.12,100.12,0,0,1,86.82,268a59.4,59.4,0,0,1-17.13-23,51.34,51.34,0,0,1-3.81-14.58c-.26-2.5-.52-5-.82-7.78a22.6,22.6,0,0,0-3.14,7.86,27,27,0,0,0-1,8.4c-4.54-4.43-7.29-28.1-5.08-39.73a69.57,69.57,0,0,1,18-35.74,12.63,12.63,0,0,0-5.71,1.26c-1.72.69-3.4,1.49-5.43,2.38a46.84,46.84,0,0,1,4.83-7.55,47.44,47.44,0,0,1,9.7-9.19,42.48,42.48,0,0,1,9.27-5.41c.89-.35,1.31-.78.93-1.81-1.63-4.34-1.84-8.88-1.79-13.47.06-6.41,1.64-12.52,3.25-18.62,2-7.52,6.85-17.66,3.25-24.43a31.35,31.35,0,0,0-2.12-3.76c.42-.44.61-.08.79.13,7,8,9.39,17.59,17.49,24.31a94,94,0,0,1,9.9,9.66,7.7,7.7,0,0,0,3.91,2.5,53.46,53.46,0,0,1,10.44,4.22c.37.18.72.6,1.36.31a36.92,36.92,0,0,0-4.12-3.62A31,31,0,0,1,137.6,122a56.9,56.9,0,0,1,16.88,8.79,2,2,0,0,0,2.44.16c4.6-2.32,9.26-4.5,13.88-6.79a13.69,13.69,0,0,0,7.22-7.62,15.45,15.45,0,0,0-.16-10.31c-.48-1.51-1.27-2.89-1.89-4.35a28.34,28.34,0,0,1,5.15,7.12,55.32,55.32,0,0,1,6.39,21.6,49.52,49.52,0,0,1-.19,12.46,1.36,1.36,0,0,1-.75,1.08c-1.4.82-2.77,1.72-4.22,2.44-1,.52-1.49,1-1.21,2.35,1.16,5.7,2.1,11.46,3.19,17.18.56,2.94,2.53,5.14,3.9,7.65.72,1.33,1.47,2.65,2.26,3.94a1,1,0,0,1-.28,1.58c-.87.7-2.23,1.33-2.43,2.22-.23,1.08.53,2.39.88,3.6s.6,2.24,1,3.32c.76,2.11,1.19,4-1,5.66-1.09.83-1.08,3.05-.34,4.29q4.32,7.28,8.67,14.52c1.12,1.88,1.05,2.91-.48,4.46a7.42,7.42,0,0,0-2.29,5.82,14.51,14.51,0,0,1-6.12,12.12,15.13,15.13,0,0,1-3.13,2.22,6.72,6.72,0,0,0-4,4.77,7.58,7.58,0,0,1-3.29,4.36c-1.48,1-2.88,2.14-4.37,3.13-3,2-6,1.61-9.08.22-3.78-1.73-7-4.4-10.59-6.55-2.85-1.73-5.65-3.55-8.49-5.31a83.78,83.78,0,0,0-12.75-6.62c-6.79-2.77-13.2-1.39-18.66,3a15,15,0,0,0-1.18,1l0,0a17.77,17.77,0,0,1,3-4.74,37.83,37.83,0,0,1,12.26-9.27,66.17,66.17,0,0,1,6.1-3.15,19.87,19.87,0,0,1-1.63-2.2c-1-1.66-2.13-1.66-3.79-1.12-6.45,2.1-12.69,4.61-17.61,9.69a30.47,30.47,0,0,0-8.14,17.07c-.06.39,0,.35-.09.76s.16-.38.27-.63m59.87-102.66a3.35,3.35,0,0,1-.32-.26c-.57-12.93-.06,0,.11.17l.28.33.28.32c.08.13.19.26.27.38a4,4,0,0,0,.39.53A69.86,69.86,0,0,1,174.06,159c1.4,3.53,2.56,7.16,5.14,10a19.74,19.74,0,0,1,1.54,2.17,1.48,1.48,0,0,1,.32,1.17c-.25,1.62-.44,3.25-.65,4.88-.34,2.52-.67,5.05-1.06,8,2.66-2.54,5-4.84,7.39-7,1-.88,1-1.54.32-2.67-2.24-3.81-4.69-7.43-5.24-12.18a139.35,139.35,0,0,0-3.62-17.71,1.75,1.75,0,0,1,1-2.31c1.58-.85,3.06-1.91,4.61-2.81a2.17,2.17,0,0,0,1.1-1.91,76.12,76.12,0,0,0-.18-14.71c-.37,4.09-.39,8.18-1,12.23a1.8,1.8,0,0,1-1,1.57c-2.29,1.16-4.51,2.46-6.81,3.57-1,.51-1.13,1.07-.77,2.11a114.22,114.22,0,0,1,3.47,12.52,17.38,17.38,0,0,1,.69,5c-1.69-3-3.37-6.06-5.31-8.9A65.67,65.67,0,0,0,163.62,140c-.13-.08-.17-.17-.3-.25l-.38-.3C162.62,139.18,163.05,139.54,162.71,139.25ZM79.33,181.69a77.23,77.23,0,0,1,23.56-10.54c1.54-.4,3.1-.74,4.94-1.17-3.47-2.22-7.1-3.51-10.34-6.16a46.09,46.09,0,0,0,13.24-3c8.12-3.34,14-9,16.88-17.81a9.93,9.93,0,0,0-1.56-9.83,53.68,53.68,0,0,0-3.8-4.56c-3.86-3.93-7.74-7.84-11.6-11.77q-4.65-4.71-9.27-9.45l-.33-.31c-.1,0-1.4-1.57-1.5-1.62,0,.1,1.31,1.68,1.36,1.78l.27.35c.27.38.52.78.81,1.14,5.93,7.2,11.92,14.34,17.74,21.63,2,2.44,2.9,4.79,2.37,8.07-1,6-3.17,11.26-7.53,15.39-6,5.66-13.24,7.76-21.08,8.25-.58,0-1.41-.39-1.59.69a1.77,1.77,0,0,0,.88,2c1.18.73,2.3,1.57,3.47,2.31s1.33,1.08,0,1.86c-2.43,1.43-4.79,3-7.11,4.61a82,82,0,0,0-11.1,8.6c-.17.17-1.18.9-.09.29m21.76-76.81c-.06-.06,0-.36-.21-.1l.23.08c0,.23.09.33.31.32l.13.49s.12,0,.12-.06A.36.36,0,0,0,100,106C99.91,105.89,99.81,105.78,99.71,105.67Zm-.57,85.49c.06-.06.2-.17.19-.18-.14-.22-.22-.07-.3.07l-.36.25a39.1,39.1,0,0,0-9.23,8.47c-10.55,13.35-14,28.34-9.24,45.1A34.6,34.6,0,0,0,85,255.63c.1.14.33.55.27.37s-.09-.26-.15-.48c-.15-.5-.28-1-.46-1.5-3.06-8.56-2.8-16.94,1.24-25.1,3.82-7.69,9.73-13.23,16.74-17.62,1.33-.84,2.7-1.61,4.05-2.4a43.17,43.17,0,0,0-10.14,3.19,67.9,67.9,0,0,0-9.69,5.41,38.56,38.56,0,0,1,10-17.49,52.57,52.57,0,0,1,16-11,40.67,40.67,0,0,0-4.18.84,50.33,50.33,0,0,0-11.82,5l-.21-.23c.53-1.21,1.67-1.91,2.27-3.06ZM148.61,140l.23.12a3.6,3.6,0,0,0,.25.39c.08.11.15.26.23.38A67.27,67.27,0,0,1,156,151.67,45.3,45.3,0,0,1,160.1,163c-1.22-1.16-2.55-2.44-3.9-3.7a33.9,33.9,0,0,0-4.26-3.61c-1.54-1-3.08-2.06-4.69-3S144,151,142.32,150.2a16.45,16.45,0,0,0-5-1.66,2.85,2.85,0,0,0,.88.91,83.38,83.38,0,0,1,10.68,9,7,7,0,0,1,2.54,5.73c-.33,6.18,2,10.69,7.93,12.67a2,2,0,0,1,1.46,1.31c.95,3.73,3.58,5.21,6.94,5.73a5.55,5.55,0,0,1,.87.29c2.06.68,2.06.68,2.23-1.64a11.11,11.11,0,0,1,.19-1.41c.43-2.33.1-4.33-1.83-5.91-1-.8-1.69-2-2.63-2.86a3,3,0,0,1-.86-3c.75-4.57.25-8.84-2.69-12.56-.61-.77-1.08-1.67-1.62-2.51a65.26,65.26,0,0,0-11.88-13.56,3.39,3.39,0,0,0-.34-.28,3.8,3.8,0,0,0-.35-.27m-10,81.6c9.56,7.84,19.81,13.38,32.49,11.73l.12.12c-1.6,2.32-4,3-6.5,3.15-6.87.43-13-2.11-18.93-5.37-2.67-1.48-5.21-3.24-7.81-4.87a10.63,10.63,0,0,1-1.43-.84c-.3-.2-.4-.33-.68-.28,0-.23-.38,0-.58-.07s.41-.36.41-.32c0,.23.24.25.43.26s.32.33.49.47c.66.09.48.25,1.2,1a11.29,11.29,0,0,0,1.31,1.11,60.61,60.61,0,0,0,9.66,6,46.06,46.06,0,0,0,16.72,5.06c6.07.46,11.31-2,16.3-5.28a1.49,1.49,0,0,0,.59-1.22c.5-3.64-1.28-7.08-4.59-8.22a9.45,9.45,0,0,1-6.22-6.62c-.77-2.43-2.12-3.37-4.59-3.36-1.52,0-3,.27-4.56.21a89.7,89.7,0,0,1-18.21-2.64l-7.31-1.79c10.25,4.47,20.59,8.59,31.52,10.82-10.67,2.4-19.54-2.9-28.6-7.43a76.91,76.91,0,0,0,8.77,5.38,92.18,92.18,0,0,0,9.45,4.42c3.13,1.23,6.38,2,9.6,3a16,16,0,0,1-5.28.76,37.47,37.47,0,0,1-16.67-5.07c-2.79-1.54-5.32-3.51-8-5.18-.62-.4-1-.78-1.44-1m-.06-.1c.51.17.75.77,1.3,1.35a40.06,40.06,0,0,0,6.85,5c5.82,3.65,12,6.45,18.77,7.45,1.92.29,3.87.05,6.1.2a8.5,8.5,0,0,1-5.35,1.86c-6.57.39-12.48-1.87-18.1-5.09-2.44-1.39-4.74-3-7.1-4.56-.38-.32-.93-.67-1-.88a.46.46,0,0,0-.63-.31M63.7,210.57c.08-.11-.54-.3-.46-.41s.59,0,.54,0l-.06.43-.24.29-.34-.33C63.16,210.41,63.68,210.71,63.7,210.57Zm66.84-66.64c2.1-4.46.33-12.75-3.46-16.18-.77-.74-.06.3,0,.41a20.32,20.32,0,0,1,3.45,15.77l0,0Zm15.57,32.53c-.08,0,0,0,0,0s0-.07,0,0c.1,1.07,1,1.67,1.37,2.58,1.19,3.09,3.5,4.24,6.51,4.84,2.12.43,3.3-.41,4.56-1.87a14.65,14.65,0,0,0-1.65-1c-.78-.34-1.7-1.83-2.35.19,0,.11-.46.11-.7.11a2.67,2.67,0,0,1-3-2.13,1.89,1.89,0,0,0-1.26-1.64C148.43,177.19,147.27,176.81,146.11,176.46Zm-48.26-66.1a9.38,9.38,0,0,1,.7,1.2c3.42,6.85,6.88,13.94,11.91,19.88l-.18.19c-2.15-.2-4.13-1.28-6.29-1.4l-.26-.23-.09.09.36.13c.36.8,1.12,1.19,1.72,1.74,2.73,2.51,5.28,5.11,6.08,9.07.41,2-.3,3.86-.47,5.79l-.17.11s.08,0,.09,0a.39.39,0,0,0,.06-.13,7,7,0,0,0,2.64-3c2-3.83,3.28-7.79.49-11.8Q107,121.31,99.91,110.35c-1.26-1.95-2.57-3.86-4.08-6.13a34.17,34.17,0,0,1-.55,5.15c-1.25,6.76-3,13.43-3.63,20.31-.48,5.26-.11,10.38,2.41,15.14,1.26,2.38,3.41,3,5.72,3.47-2.72-3-4.76-6.21-4.66-10.69,1.93,1.05,3.66,2.2,5.9,2.46-.16-.39-.23-.59-.32-.77-3.14-5.88-4.09-12.26-4-18.88,0-.41-.15-1,.28-1.16s.66.37,1,.62a14.06,14.06,0,0,0,3.42,2.46c-.3-.7-.47-1.07-.62-1.45A46.78,46.78,0,0,1,97.64,110Zm65.82,78.17c0,.25,0,.37,0,.45a101,101,0,0,1,7.79,21.85,5.65,5.65,0,0,0,4.19,4.22,16.53,16.53,0,0,0,5.29.37c1.94,0,4-.23,5.66.83,2.42,1.58,4.56,1.19,6.83,0a6.24,6.24,0,0,1,.72-.27c1.9-.73,1.93-.75.82-2.59q-6.1-10.18-12.26-20.34c-.5-.82-1.06-1.6-1.69-2.54-.47,1.19.28,2.7-.53,3s-1.72-.87-2.6-1.38a4.83,4.83,0,0,1-.77-.5C173.12,188.2,168.35,188.7,163.67,188.53Zm-1.79,16.22c.5-6.08-.54-11.24-2.93-15.31a2.59,2.59,0,0,0-1.87-1.42c-2.89-.54-5.78-1.15-8.68-1.65a2.9,2.9,0,0,1-2.1-1.38c-2.13-3.24-4.29-6.45-6.47-9.66-.34-.5-.57-1.23-1.18-1.39-1.86-.5-3.74-.9-5.62-1.33a19.91,19.91,0,0,0,2.38,2.39c3.39,3.23,5.09,7.49,6.52,11.89a2.41,2.41,0,0,0,1.84,1.82c2.49.7,4.92,1.67,7.41,2.41a12.86,12.86,0,0,1,9.09,8.79Zm-36.65-16a12.81,12.81,0,0,0,5.33,1.69c-7.64-5.07-10.69-12-8.51-21.36-3.77,5.32-4.08,13-1,19.36,2.6,5.38,9.83,11.77,13.28,11.75C129.42,195.86,126.65,192.44,125.23,188.74Zm-36.11-5.89c-7.92,1-23.53,17.85-25,27.13a58.55,58.55,0,0,1,10.57-15.77C79,189.71,84.06,186.32,89.12,182.85Zm94.38,53.07c4.35-2.5,8.4-6.64,8.21-9.86C186.4,229.35,182.92,233,183.5,235.92Zm2.55-50.74a7.51,7.51,0,0,0,0-1c-.07-.48.23-1.26-.45-1.3a1.31,1.31,0,0,0-1.29,1.14c-.14.89,0,2.14-1.38.88a.84.84,0,0,0-.43.35c-.21.59-.51,1.15-1.32.84-.25-.1-.48.14-.51.44a5.25,5.25,0,0,0,2.14,2.26A3.85,3.85,0,0,0,186.05,185.18Zm.19,10.13a5.23,5.23,0,0,1,1.5-3.17c1-.9.67-1.68.06-2.69-.88.93-1.65,1.82-2.5,2.63a1,1,0,0,0-.15,1.5C185.47,194.05,185.76,194.54,186.24,195.31ZM107.5,208.53s-.29.38-.32.39,0-.44-.05-.41.08.11.1.1A1.38,1.38,0,0,0,107.5,208.53Z" transform="translate(-24.15 -82.62)"/><path class="cls-2" d="M141,230.58l.07-.11-.09.09Z" transform="translate(-24.15 -82.62)"/><path class="cls-3" d="M131.2,132.66l-.36-.13.09-.09.26.23h0" transform="translate(-24.15 -82.62)"/><path class="cls-3" d="M138.51,149.23a.39.39,0,0,1-.06.13s-.06,0-.09,0l.17-.11,0,0" transform="translate(-24.15 -82.62)"/><polyline class="cls-3" points="133.59 63.74 133.56 63.78 133.59 63.75 133.59 63.74"/><path class="cls-2" d="M198.53,235.89c.08-.12.17-.19.28,0l-.16.16-.12-.12" transform="translate(-24.15 -82.62)"/><path class="cls-2" d="M124,197.25l-.36.25-.12-.13.27-.35.21.23" transform="translate(-24.15 -82.62)"/><path class="cls-2" d="M123.65,197.5c-.08.12-.17.25-.3.06,0,0,.12-.12.18-.19l.12.13" transform="translate(-24.15 -82.62)"/><path class="cls-2" d="M137.66,133.88c.06.07.19.19.18.21s-.24.09-.36,0l.18-.19" transform="translate(-24.15 -82.62)"/><path class="cls-4" d="M98,242.19a26.72,26.72,0,0,1,8.12-11.91,9.7,9.7,0,0,1,2.8-1.86v0a3,3,0,0,1-.31.7,24.79,24.79,0,0,0-5.38,14.27,22.13,22.13,0,0,0,2,10.65c-.09-1.71-.27-3.41-.24-5.13.15-7.77,5.44-14.6,12.59-15.85,4.58-.8,9,.21,13.28,2a46.78,46.78,0,0,1,6.92,3.32,15.32,15.32,0,0,0-9.94,10.88c-1.48,5.24-.36,10.2,1.84,15a19.56,19.56,0,0,1-4.68-5.29,7.45,7.45,0,0,0,.39,4.12c2.33,8.42,7.61,14.39,14.53,19,5.68,3.77,12,5.74,18.54,6.93a7.72,7.72,0,0,1,2.3.28,59.85,59.85,0,0,1-9.57-.52,89.53,89.53,0,0,1-13.38-2.68,97.9,97.9,0,0,1-23-9.89,85.25,85.25,0,0,1-13.09-9.36A65.16,65.16,0,0,1,93,257.72a75.31,75.31,0,0,1-7.67-12.42c-.05-.11-.2-.17-.48-.38a25.39,25.39,0,0,0,.61,7.94,40.63,40.63,0,0,0,8.73,17.87,61.28,61.28,0,0,0,13.92,12.17,7,7,0,0,1,1.28,1,8.26,8.26,0,0,1-3.38-1.09A100.18,100.18,0,0,1,82,268.24a59.44,59.44,0,0,1-17.13-23A51.49,51.49,0,0,1,61,230.7c-.25-2.49-.52-5-.82-7.77a22.86,22.86,0,0,0-3.14,7.85,27,27,0,0,0-1,8.4c-4.54-4.43-7.29-28.1-5.08-39.73a69.65,69.65,0,0,1,18-35.74A12.63,12.63,0,0,0,63.31,165c-1.72.68-3.4,1.48-5.42,2.37a46.14,46.14,0,0,1,4.82-7.55,47.71,47.71,0,0,1,9.7-9.19,42.1,42.1,0,0,1,9.28-5.4c.89-.36,1.3-.79.92-1.82-1.63-4.34-1.83-8.88-1.79-13.47.06-6.41,1.64-12.51,3.26-18.61,2-7.53,6.84-17.67,3.24-24.44a30.77,30.77,0,0,0-2.12-3.76c.42-.44.61-.08.8.13,7,8,9.39,17.59,17.48,24.31a94,94,0,0,1,9.9,9.66,7.71,7.71,0,0,0,3.92,2.5,53.63,53.63,0,0,1,10.43,4.22c.38.18.72.6,1.36.31a36.92,36.92,0,0,0-4.12-3.62,31,31,0,0,1,7.78,1.68,57.21,57.21,0,0,1,16.87,8.79,2,2,0,0,0,2.44.17c4.6-2.33,9.27-4.51,13.88-6.8a13.69,13.69,0,0,0,7.22-7.62,15.39,15.39,0,0,0-.16-10.31c-.48-1.51-1.26-2.89-1.89-4.35a28.63,28.63,0,0,1,5.16,7.12,55.66,55.66,0,0,1,6.39,21.6,49.52,49.52,0,0,1-.2,12.46,1.32,1.32,0,0,1-.75,1.08c-1.4.82-2.77,1.72-4.22,2.44-1,.52-1.49,1-1.21,2.35,1.16,5.7,2.1,11.46,3.19,17.18.56,2.94,2.53,5.14,3.9,7.65.72,1.33,1.47,2.65,2.26,3.94a1,1,0,0,1-.28,1.58c-.87.7-2.23,1.33-2.42,2.22-.24,1.08.53,2.4.87,3.6s.6,2.24,1,3.32c.77,2.12,1.19,4-1,5.67-1.09.82-1.08,3-.34,4.28q4.32,7.28,8.67,14.52c1.13,1.88,1,2.92-.47,4.46a7.4,7.4,0,0,0-2.3,5.82,14.53,14.53,0,0,1-6.11,12.12,15.68,15.68,0,0,1-3.13,2.22,6.71,6.71,0,0,0-4,4.77,7.56,7.56,0,0,1-3.28,4.36c-1.49,1-2.89,2.14-4.38,3.13-3,2-6,1.61-9.08.22-3.78-1.72-7-4.4-10.58-6.55-2.86-1.73-5.66-3.54-8.49-5.31a83.88,83.88,0,0,0-12.76-6.62c-6.78-2.77-13.19-1.39-18.65,3-.77.59-.82.62-1.19,1l0,0a17.93,17.93,0,0,1,3-4.74,38,38,0,0,1,12.26-9.27,66.17,66.17,0,0,1,6.1-3.15,22.77,22.77,0,0,1-1.63-2.2c-1-1.66-2.12-1.66-3.79-1.12-6.45,2.1-12.69,4.62-17.61,9.69a30.47,30.47,0,0,0-8.14,17.07c-.06.39,0,.35-.09.76S97.87,242.44,98,242.19Zm59.88-102.66a2.43,2.43,0,0,1-.32-.26c-.58-12.93-.07,0,.1.18l.29.32a4.15,4.15,0,0,0,.27.32l.28.38a2.55,2.55,0,0,0,.38.53,69.86,69.86,0,0,1,10.34,18.31c1.4,3.53,2.57,7.16,5.15,10a22.85,22.85,0,0,1,1.54,2.17,1.52,1.52,0,0,1,.32,1.17c-.26,1.62-.45,3.26-.66,4.88-.33,2.53-.67,5.05-1.06,8,2.66-2.54,5-4.83,7.39-7,1-.88,1-1.54.32-2.67-2.24-3.81-4.68-7.43-5.24-12.18A139.35,139.35,0,0,0,173.34,146a1.76,1.76,0,0,1,.95-2.31c1.58-.85,3.06-1.91,4.61-2.81a2.17,2.17,0,0,0,1.1-1.91,76.12,76.12,0,0,0-.17-14.71c-.37,4.09-.4,8.18-1,12.23a1.81,1.81,0,0,1-1,1.57c-2.28,1.16-4.51,2.46-6.81,3.58-1,.5-1.13,1.06-.77,2.1a110.51,110.51,0,0,1,3.47,12.52,17.4,17.4,0,0,1,.69,5c-1.69-3-3.37-6.07-5.31-8.91a65.28,65.28,0,0,0-10.31-12.09c-.13-.08-.17-.17-.3-.25l-.38-.3C157.76,139.46,158.19,139.82,157.86,139.53ZM74.47,182A77.23,77.23,0,0,1,98,171.43c1.54-.4,3.1-.73,4.94-1.17-3.47-2.22-7.1-3.51-10.33-6.16a46,46,0,0,0,13.23-2.95c8.13-3.35,14-9,16.88-17.82a9.93,9.93,0,0,0-1.56-9.83,51.87,51.87,0,0,0-3.8-4.56c-3.86-3.93-7.73-7.84-11.6-11.77q-4.64-4.71-9.27-9.45l-.33-.31c-.1,0-1.4-1.57-1.5-1.62.06.1,1.31,1.68,1.36,1.78l.27.35c.27.38.52.78.82,1.14,5.92,7.2,11.91,14.34,17.73,21.63,1.95,2.45,2.9,4.79,2.37,8.07-1,6-3.17,11.27-7.52,15.39-6,5.67-13.24,7.76-21.08,8.25-.58,0-1.42-.39-1.6.69a1.79,1.79,0,0,0,.88,2c1.18.72,2.3,1.56,3.47,2.3s1.33,1.08,0,1.86c-2.43,1.43-4.79,3-7.12,4.61a82,82,0,0,0-11.1,8.6c-.16.17-1.18.9-.09.29M94.85,106c0-.07,0-.37-.21-.1l.24.07c0,.23.08.33.3.32l.14.5s.11,0,.11-.07a.34.34,0,0,0-.27-.4Zm-.57,85.48c.07-.06.2-.17.19-.18-.14-.22-.22-.07-.29.07l-.37.25a39.3,39.3,0,0,0-9.23,8.47c-10.55,13.35-14,28.34-9.24,45.1a34.83,34.83,0,0,0,4.79,10.76c.1.14.33.55.27.37s-.09-.26-.15-.47c-.15-.51-.28-1-.45-1.51C76.73,245.74,77,237.36,81,229.21c3.81-7.7,9.73-13.24,16.73-17.63,1.33-.84,2.7-1.6,4-2.4a43.17,43.17,0,0,0-10.14,3.19A67.9,67.9,0,0,0,82,217.78a38.65,38.65,0,0,1,10-17.49,52.67,52.67,0,0,1,16-11,41.41,41.41,0,0,0-4.19.84,50.44,50.44,0,0,0-11.81,5l-.22-.23c.53-1.21,1.68-1.91,2.27-3.06Zm49.47-51.16.23.12c.07.13.16.25.25.39s.15.26.24.38A68.72,68.72,0,0,1,151.19,152a45.27,45.27,0,0,1,4.05,11.29c-1.22-1.16-2.55-2.44-3.9-3.7a33.2,33.2,0,0,0-4.26-3.61c-1.54-1-3.08-2.06-4.68-3s-3.29-1.68-4.94-2.48a16.06,16.06,0,0,0-5-1.67,2.82,2.82,0,0,0,.87.91,82.83,82.83,0,0,1,10.68,9c1.64,1.6,2.68,3.21,2.54,5.73-.33,6.18,2,10.69,7.94,12.67A2,2,0,0,1,156,178.4c1,3.73,3.58,5.21,6.94,5.74a4.64,4.64,0,0,1,.87.28c2.07.68,2.06.68,2.23-1.63a11.26,11.26,0,0,1,.19-1.42c.44-2.32.1-4.33-1.83-5.9-1-.81-1.68-2-2.63-2.87a3.07,3.07,0,0,1-.86-3c.75-4.58.25-8.85-2.69-12.57-.61-.77-1.07-1.67-1.62-2.5A65.06,65.06,0,0,0,144.67,141l-.33-.28a3.43,3.43,0,0,0-.36-.27M134,222c9.56,7.84,19.82,13.38,32.49,11.73l.12.12c-1.6,2.32-4,3-6.5,3.15-6.87.43-13-2.11-18.93-5.37-2.67-1.48-5.21-3.24-7.81-4.87a10.63,10.63,0,0,1-1.43-.84c-.29-.2-.4-.33-.67-.27,0-.23-.39,0-.59-.08a1.34,1.34,0,0,1,.42-.32c0,.23.23.25.42.26s.32.33.49.48c.66.09.48.24,1.2,1a10.3,10.3,0,0,0,1.31,1.11,61.06,61.06,0,0,0,9.66,6,46,46,0,0,0,16.73,5.06c6.07.47,11.31-2,16.29-5.27a1.56,1.56,0,0,0,.6-1.23c.49-3.64-1.29-7.08-4.59-8.21a9.47,9.47,0,0,1-6.23-6.63c-.77-2.43-2.12-3.37-4.59-3.35-1.52,0-3,.26-4.56.2A89.8,89.8,0,0,1,139.6,212l-7.31-1.79c10.25,4.47,20.59,8.59,31.52,10.82-10.67,2.4-19.53-2.9-28.6-7.43A76.91,76.91,0,0,0,144,219a92.18,92.18,0,0,0,9.45,4.42c3.13,1.23,6.38,2,9.61,3a16,16,0,0,1-5.29.76,37.47,37.47,0,0,1-16.67-5.07c-2.79-1.54-5.32-3.51-8-5.18-.62-.4-1-.78-1.44-1m-.06-.1c.51.17.76.77,1.31,1.35a40,40,0,0,0,6.84,5c5.83,3.65,12,6.45,18.77,7.45,1.92.29,3.87.05,6.1.2a8.5,8.5,0,0,1-5.35,1.86c-6.56.39-12.47-1.87-18.1-5.08-2.44-1.4-4.74-3-7.1-4.57-.38-.32-.93-.67-1-.88a.46.46,0,0,0-.62-.31m-73.55-9.91c.08-.11-.54-.3-.46-.41s.59,0,.54,0l-.06.43-.23.29-.35-.33C58.31,210.69,58.82,211,58.84,210.85Zm66.84-66.64c2.11-4.46.33-12.75-3.46-16.18-.76-.74-.06.3,0,.41a20.36,20.36,0,0,1,3.45,15.77l0,0Zm15.57,32.53c-.07,0,.06,0,0,0s0-.07,0,0c.1,1.07,1,1.67,1.38,2.59,1.19,3.08,3.5,4.23,6.5,4.83,2.13.43,3.3-.4,4.56-1.86a13.5,13.5,0,0,0-1.65-1c-.78-.34-1.7-1.83-2.34.19,0,.11-.46.11-.71.11a2.68,2.68,0,0,1-3-2.13,1.9,1.9,0,0,0-1.25-1.64C143.57,177.47,142.41,177.09,141.25,176.74ZM93,110.64a9.38,9.38,0,0,1,.7,1.2c3.43,6.85,6.88,13.94,11.91,19.88l-.18.19c-2.15-.2-4.12-1.28-6.29-1.4l-.26-.23-.09.09.36.13c.36.8,1.12,1.19,1.72,1.74,2.73,2.51,5.29,5.11,6.08,9.07.41,2-.29,3.86-.47,5.79l-.16.11s.07,0,.08,0a.39.39,0,0,0,.06-.13,6.92,6.92,0,0,0,2.64-3c2-3.83,3.28-7.78.49-11.8q-7.44-10.68-14.52-21.64c-1.26-1.94-2.57-3.86-4.09-6.13a34.28,34.28,0,0,1-.54,5.15c-1.25,6.76-3,13.43-3.64,20.31-.48,5.26-.11,10.38,2.41,15.14,1.27,2.38,3.41,3,5.72,3.47-2.72-3-4.76-6.21-4.66-10.69,1.93,1.05,3.67,2.2,5.9,2.47-.16-.4-.23-.6-.32-.78-3.13-5.88-4.08-12.26-4-18.88,0-.41-.15-1,.28-1.16s.66.37,1,.62a13.73,13.73,0,0,0,3.41,2.46c-.3-.7-.47-1.07-.61-1.45a46.18,46.18,0,0,1-3.11-10.85Zm65.82,78.17c0,.25,0,.37,0,.45a100.34,100.34,0,0,1,7.78,21.86,5.67,5.67,0,0,0,4.19,4.21,16.53,16.53,0,0,0,5.29.37c1.94,0,4-.23,5.66.83,2.43,1.58,4.56,1.19,6.83,0a6.24,6.24,0,0,1,.72-.27c1.9-.73,1.93-.75.83-2.59Q184,203.45,177.85,193.3c-.49-.83-1.06-1.61-1.69-2.55-.46,1.19.28,2.7-.53,3s-1.72-.87-2.59-1.38a4.92,4.92,0,0,1-.78-.5C168.27,188.48,163.49,189,158.81,188.81ZM157,205c.5-6.08-.54-11.24-2.93-15.31a2.59,2.59,0,0,0-1.86-1.42c-2.9-.54-5.79-1.15-8.69-1.65a2.9,2.9,0,0,1-2.1-1.38q-3.19-4.86-6.46-9.65c-.35-.51-.57-1.24-1.19-1.4-1.86-.5-3.74-.89-5.61-1.33a19.26,19.26,0,0,0,2.37,2.4c3.39,3.23,5.09,7.48,6.53,11.88a2.4,2.4,0,0,0,1.83,1.82c2.49.7,4.92,1.67,7.41,2.41a12.87,12.87,0,0,1,9.1,8.79C155.91,201.69,156.41,203.19,157,205Zm-36.65-16a12.85,12.85,0,0,0,5.33,1.69c-7.63-5.07-10.68-12-8.51-21.36-3.76,5.33-4.08,13-1,19.36,2.61,5.38,9.83,11.77,13.29,11.75C124.57,196.14,121.79,192.72,120.37,189Zm-36.11-5.88c-7.91,1-23.53,17.84-25,27.13A58.45,58.45,0,0,1,69.8,194.49C74.1,190,79.21,186.6,84.26,183.14Zm94.38,53.06c4.35-2.5,8.41-6.64,8.21-9.86C181.54,229.64,178.06,233.27,178.64,236.2Zm2.55-50.74a6,6,0,0,0,0-1c-.07-.47.23-1.26-.45-1.3a1.3,1.3,0,0,0-1.28,1.14c-.15.9,0,2.14-1.39.88a.88.88,0,0,0-.43.36c-.21.58-.5,1.14-1.32.83-.24-.09-.48.15-.51.44a5.26,5.26,0,0,0,2.14,2.26A3.84,3.84,0,0,0,181.19,185.46Zm.2,10.13a5.23,5.23,0,0,1,1.49-3.17c1-.9.67-1.67.06-2.69-.87.93-1.65,1.82-2.5,2.63a1,1,0,0,0-.15,1.5C180.61,194.33,180.9,194.82,181.39,195.59Zm-78.75,13.22s-.29.39-.32.39,0-.44,0-.4.08.1.11.09A1.29,1.29,0,0,0,102.64,208.81Z" transform="translate(-24.15 -82.62)"/><path class="cls-5" d="M98,242.19a26.72,26.72,0,0,1,8.12-11.91,9.7,9.7,0,0,1,2.8-1.86v0a3,3,0,0,1-.31.7,24.79,24.79,0,0,0-5.38,14.27,22.13,22.13,0,0,0,2,10.65c-.09-1.71-.27-3.41-.24-5.13.15-7.77,5.44-14.6,12.59-15.85,4.58-.8,9,.21,13.28,2a46.78,46.78,0,0,1,6.92,3.32,15.32,15.32,0,0,0-9.94,10.88c-1.48,5.24-.36,10.2,1.84,15a19.56,19.56,0,0,1-4.68-5.29,7.45,7.45,0,0,0,.39,4.12c2.33,8.42,7.61,14.39,14.53,19,5.68,3.77,12,5.74,18.54,6.93a7.72,7.72,0,0,1,2.3.28,59.85,59.85,0,0,1-9.57-.52,89.53,89.53,0,0,1-13.38-2.68,97.9,97.9,0,0,1-23-9.89,85.25,85.25,0,0,1-13.09-9.36A65.16,65.16,0,0,1,93,257.72a75.31,75.31,0,0,1-7.67-12.42c-.05-.11-.2-.17-.48-.38a25.39,25.39,0,0,0,.61,7.94,40.63,40.63,0,0,0,8.73,17.87,61.28,61.28,0,0,0,13.92,12.17,7,7,0,0,1,1.28,1,8.26,8.26,0,0,1-3.38-1.09A100.18,100.18,0,0,1,82,268.24a59.44,59.44,0,0,1-17.13-23A51.49,51.49,0,0,1,61,230.7c-.25-2.49-.52-5-.82-7.77a22.86,22.86,0,0,0-3.14,7.85,27,27,0,0,0-1,8.4c-4.54-4.43-7.29-28.1-5.08-39.73a69.65,69.65,0,0,1,18-35.74A12.63,12.63,0,0,0,63.31,165c-1.72.68-3.4,1.48-5.42,2.37a46.14,46.14,0,0,1,4.82-7.55,47.71,47.71,0,0,1,9.7-9.19,42.1,42.1,0,0,1,9.28-5.4c.89-.36,1.3-.79.92-1.82-1.63-4.34-1.83-8.88-1.79-13.47.06-6.41,1.64-12.51,3.26-18.61,2-7.53,6.84-17.67,3.24-24.44a30.77,30.77,0,0,0-2.12-3.76c.42-.44.61-.08.8.13,7,8,9.39,17.59,17.48,24.31a94,94,0,0,1,9.9,9.66,7.71,7.71,0,0,0,3.92,2.5,53.63,53.63,0,0,1,10.43,4.22c.38.18.72.6,1.36.31a36.92,36.92,0,0,0-4.12-3.62,31,31,0,0,1,7.78,1.68,57.21,57.21,0,0,1,16.87,8.79,2,2,0,0,0,2.44.17c4.6-2.33,9.27-4.51,13.88-6.8a13.69,13.69,0,0,0,7.22-7.62,15.39,15.39,0,0,0-.16-10.31c-.48-1.51-1.26-2.89-1.89-4.35a28.63,28.63,0,0,1,5.16,7.12,55.66,55.66,0,0,1,6.39,21.6,49.52,49.52,0,0,1-.2,12.46,1.32,1.32,0,0,1-.75,1.08c-1.4.82-2.77,1.72-4.22,2.44-1,.52-1.49,1-1.21,2.35,1.16,5.7,2.1,11.46,3.19,17.18.56,2.94,2.53,5.14,3.9,7.65.72,1.33,1.47,2.65,2.26,3.94a1,1,0,0,1-.28,1.58c-.87.7-2.23,1.33-2.42,2.22-.24,1.08.53,2.4.87,3.6s.6,2.24,1,3.32c.77,2.12,1.19,4-1,5.67-1.09.82-1.08,3-.34,4.28q4.32,7.28,8.67,14.52c1.13,1.88,1,2.92-.47,4.46a7.4,7.4,0,0,0-2.3,5.82,14.53,14.53,0,0,1-6.11,12.12,15.68,15.68,0,0,1-3.13,2.22,6.71,6.71,0,0,0-4,4.77,7.56,7.56,0,0,1-3.28,4.36c-1.49,1-2.89,2.14-4.38,3.13-3,2-6,1.61-9.08.22-3.78-1.72-7-4.4-10.58-6.55-2.86-1.73-5.66-3.54-8.49-5.31a83.88,83.88,0,0,0-12.76-6.62c-6.78-2.77-13.19-1.39-18.65,3-.77.59-.82.62-1.19,1l0,0a17.93,17.93,0,0,1,3-4.74,38,38,0,0,1,12.26-9.27,66.17,66.17,0,0,1,6.1-3.15,22.77,22.77,0,0,1-1.63-2.2c-1-1.66-2.12-1.66-3.79-1.12-6.45,2.1-12.69,4.62-17.61,9.69a30.47,30.47,0,0,0-8.14,17.07c-.06.39,0,.35-.09.76S97.87,242.44,98,242.19Zm59.88-102.66a2.43,2.43,0,0,1-.32-.26c-.58-12.93-.07,0,.1.18l.29.32a4.15,4.15,0,0,0,.27.32l.28.38a2.55,2.55,0,0,0,.38.53,69.86,69.86,0,0,1,10.34,18.31c1.4,3.53,2.57,7.16,5.15,10a22.85,22.85,0,0,1,1.54,2.17,1.52,1.52,0,0,1,.32,1.17c-.26,1.62-.45,3.26-.66,4.88-.33,2.53-.67,5.05-1.06,8,2.66-2.54,5-4.83,7.39-7,1-.88,1-1.54.32-2.67-2.24-3.81-4.68-7.43-5.24-12.18A139.35,139.35,0,0,0,173.34,146a1.76,1.76,0,0,1,.95-2.31c1.58-.85,3.06-1.91,4.61-2.81a2.17,2.17,0,0,0,1.1-1.91,76.12,76.12,0,0,0-.17-14.71c-.37,4.09-.4,8.18-1,12.23a1.81,1.81,0,0,1-1,1.57c-2.28,1.16-4.51,2.46-6.81,3.58-1,.5-1.13,1.06-.77,2.1a110.51,110.51,0,0,1,3.47,12.52,17.4,17.4,0,0,1,.69,5c-1.69-3-3.37-6.07-5.31-8.91a65.28,65.28,0,0,0-10.31-12.09c-.13-.08-.17-.17-.3-.25l-.38-.3C157.76,139.46,158.19,139.82,157.86,139.53ZM74.47,182A77.23,77.23,0,0,1,98,171.43c1.54-.4,3.1-.73,4.94-1.17-3.47-2.22-7.1-3.51-10.33-6.16a46,46,0,0,0,13.23-2.95c8.13-3.35,14-9,16.88-17.82a9.93,9.93,0,0,0-1.56-9.83,51.87,51.87,0,0,0-3.8-4.56c-3.86-3.93-7.73-7.84-11.6-11.77q-4.64-4.71-9.27-9.45l-.33-.31c-.1,0-1.4-1.57-1.5-1.62.06.1,1.31,1.68,1.36,1.78l.27.35c.27.38.52.78.82,1.14,5.92,7.2,11.91,14.34,17.73,21.63,1.95,2.45,2.9,4.79,2.37,8.07-1,6-3.17,11.27-7.52,15.39-6,5.67-13.24,7.76-21.08,8.25-.58,0-1.42-.39-1.6.69a1.79,1.79,0,0,0,.88,2c1.18.72,2.3,1.56,3.47,2.3s1.33,1.08,0,1.86c-2.43,1.43-4.79,3-7.12,4.61a82,82,0,0,0-11.1,8.6c-.16.17-1.18.9-.09.29M94.85,106c0-.07,0-.37-.21-.1l.24.07c0,.23.08.33.3.32l.14.5s.11,0,.11-.07a.34.34,0,0,0-.27-.4Zm-.57,85.48c.07-.06.2-.17.19-.18-.14-.22-.22-.07-.29.07l-.37.25a39.3,39.3,0,0,0-9.23,8.47c-10.55,13.35-14,28.34-9.24,45.1a34.83,34.83,0,0,0,4.79,10.76c.1.14.33.55.27.37s-.09-.26-.15-.47c-.15-.51-.28-1-.45-1.51C76.73,245.74,77,237.36,81,229.21c3.81-7.7,9.73-13.24,16.73-17.63,1.33-.84,2.7-1.6,4-2.4a43.17,43.17,0,0,0-10.14,3.19A67.9,67.9,0,0,0,82,217.78a38.65,38.65,0,0,1,10-17.49,52.67,52.67,0,0,1,16-11,41.41,41.41,0,0,0-4.19.84,50.44,50.44,0,0,0-11.81,5l-.22-.23c.53-1.21,1.68-1.91,2.27-3.06Zm49.47-51.16.23.12c.07.13.16.25.25.39s.15.26.24.38A68.72,68.72,0,0,1,151.19,152a45.27,45.27,0,0,1,4.05,11.29c-1.22-1.16-2.55-2.44-3.9-3.7a33.2,33.2,0,0,0-4.26-3.61c-1.54-1-3.08-2.06-4.68-3s-3.29-1.68-4.94-2.48a16.06,16.06,0,0,0-5-1.67,2.82,2.82,0,0,0,.87.91,82.83,82.83,0,0,1,10.68,9c1.64,1.6,2.68,3.21,2.54,5.73-.33,6.18,2,10.69,7.94,12.67A2,2,0,0,1,156,178.4c1,3.73,3.58,5.21,6.94,5.74a4.64,4.64,0,0,1,.87.28c2.07.68,2.06.68,2.23-1.63a11.26,11.26,0,0,1,.19-1.42c.44-2.32.1-4.33-1.83-5.9-1-.81-1.68-2-2.63-2.87a3.07,3.07,0,0,1-.86-3c.75-4.58.25-8.85-2.69-12.57-.61-.77-1.07-1.67-1.62-2.5A65.06,65.06,0,0,0,144.67,141l-.33-.28a3.43,3.43,0,0,0-.36-.27M134,222c9.56,7.84,19.82,13.38,32.49,11.73l.12.12c-1.6,2.32-4,3-6.5,3.15-6.87.43-13-2.11-18.93-5.37-2.67-1.48-5.21-3.24-7.81-4.87a10.63,10.63,0,0,1-1.43-.84c-.29-.2-.4-.33-.67-.27,0-.23-.39,0-.59-.08a1.34,1.34,0,0,1,.42-.32c0,.23.23.25.42.26s.32.33.49.48c.66.09.48.24,1.2,1a10.3,10.3,0,0,0,1.31,1.11,61.06,61.06,0,0,0,9.66,6,46,46,0,0,0,16.73,5.06c6.07.47,11.31-2,16.29-5.27a1.56,1.56,0,0,0,.6-1.23c.49-3.64-1.29-7.08-4.59-8.21a9.47,9.47,0,0,1-6.23-6.63c-.77-2.43-2.12-3.37-4.59-3.35-1.52,0-3,.26-4.56.2A89.8,89.8,0,0,1,139.6,212l-7.31-1.79c10.25,4.47,20.59,8.59,31.52,10.82-10.67,2.4-19.53-2.9-28.6-7.43A76.91,76.91,0,0,0,144,219a92.18,92.18,0,0,0,9.45,4.42c3.13,1.23,6.38,2,9.61,3a16,16,0,0,1-5.29.76,37.47,37.47,0,0,1-16.67-5.07c-2.79-1.54-5.32-3.51-8-5.18-.62-.4-1-.78-1.44-1m-.06-.1c.51.17.76.77,1.31,1.35a40,40,0,0,0,6.84,5c5.83,3.65,12,6.45,18.77,7.45,1.92.29,3.87.05,6.1.2a8.5,8.5,0,0,1-5.35,1.86c-6.56.39-12.47-1.87-18.1-5.08-2.44-1.4-4.74-3-7.1-4.57-.38-.32-.93-.67-1-.88a.46.46,0,0,0-.62-.31m-73.55-9.91c.08-.11-.54-.3-.46-.41s.59,0,.54,0l-.06.43-.23.29-.35-.33C58.31,210.69,58.82,211,58.84,210.85Zm66.84-66.64c2.11-4.46.33-12.75-3.46-16.18-.76-.74-.06.3,0,.41a20.36,20.36,0,0,1,3.45,15.77l0,0Zm15.57,32.53c-.07,0,.06,0,0,0s0-.07,0,0c.1,1.07,1,1.67,1.38,2.59,1.19,3.08,3.5,4.23,6.5,4.83,2.13.43,3.3-.4,4.56-1.86a13.5,13.5,0,0,0-1.65-1c-.78-.34-1.7-1.83-2.34.19,0,.11-.46.11-.71.11a2.68,2.68,0,0,1-3-2.13,1.9,1.9,0,0,0-1.25-1.64C143.57,177.47,142.41,177.09,141.25,176.74ZM93,110.64a9.38,9.38,0,0,1,.7,1.2c3.43,6.85,6.88,13.94,11.91,19.88l-.18.19c-2.15-.2-4.12-1.28-6.29-1.4l-.26-.23-.09.09.36.13c.36.8,1.12,1.19,1.72,1.74,2.73,2.51,5.29,5.11,6.08,9.07.41,2-.29,3.86-.47,5.79l-.16.11s.07,0,.08,0a.39.39,0,0,0,.06-.13,6.92,6.92,0,0,0,2.64-3c2-3.83,3.28-7.78.49-11.8q-7.44-10.68-14.52-21.64c-1.26-1.94-2.57-3.86-4.09-6.13a34.28,34.28,0,0,1-.54,5.15c-1.25,6.76-3,13.43-3.64,20.31-.48,5.26-.11,10.38,2.41,15.14,1.27,2.38,3.41,3,5.72,3.47-2.72-3-4.76-6.21-4.66-10.69,1.93,1.05,3.67,2.2,5.9,2.47-.16-.4-.23-.6-.32-.78-3.13-5.88-4.08-12.26-4-18.88,0-.41-.15-1,.28-1.16s.66.37,1,.62a13.73,13.73,0,0,0,3.41,2.46c-.3-.7-.47-1.07-.61-1.45a46.18,46.18,0,0,1-3.11-10.85Zm65.82,78.17c0,.25,0,.37,0,.45a100.34,100.34,0,0,1,7.78,21.86,5.67,5.67,0,0,0,4.19,4.21,16.53,16.53,0,0,0,5.29.37c1.94,0,4-.23,5.66.83,2.43,1.58,4.56,1.19,6.83,0a6.24,6.24,0,0,1,.72-.27c1.9-.73,1.93-.75.83-2.59Q184,203.45,177.85,193.3c-.49-.83-1.06-1.61-1.69-2.55-.46,1.19.28,2.7-.53,3s-1.72-.87-2.59-1.38a4.92,4.92,0,0,1-.78-.5C168.27,188.48,163.49,189,158.81,188.81ZM157,205c.5-6.08-.54-11.24-2.93-15.31a2.59,2.59,0,0,0-1.86-1.42c-2.9-.54-5.79-1.15-8.69-1.65a2.9,2.9,0,0,1-2.1-1.38q-3.19-4.86-6.46-9.65c-.35-.51-.57-1.24-1.19-1.4-1.86-.5-3.74-.89-5.61-1.33a19.26,19.26,0,0,0,2.37,2.4c3.39,3.23,5.09,7.48,6.53,11.88a2.4,2.4,0,0,0,1.83,1.82c2.49.7,4.92,1.67,7.41,2.41a12.87,12.87,0,0,1,9.1,8.79C155.91,201.69,156.41,203.19,157,205Zm-36.65-16a12.85,12.85,0,0,0,5.33,1.69c-7.63-5.07-10.68-12-8.51-21.36-3.76,5.33-4.08,13-1,19.36,2.61,5.38,9.83,11.77,13.29,11.75C124.57,196.14,121.79,192.72,120.37,189Zm-36.11-5.88c-7.91,1-23.53,17.84-25,27.13A58.45,58.45,0,0,1,69.8,194.49C74.1,190,79.21,186.6,84.26,183.14Zm94.38,53.06c4.35-2.5,8.41-6.64,8.21-9.86C181.54,229.64,178.06,233.27,178.64,236.2Zm2.55-50.74a6,6,0,0,0,0-1c-.07-.47.23-1.26-.45-1.3a1.3,1.3,0,0,0-1.28,1.14c-.15.9,0,2.14-1.39.88a.88.88,0,0,0-.43.36c-.21.58-.5,1.14-1.32.83-.24-.09-.48.15-.51.44a5.26,5.26,0,0,0,2.14,2.26A3.84,3.84,0,0,0,181.19,185.46Zm.2,10.13a5.23,5.23,0,0,1,1.49-3.17c1-.9.67-1.67.06-2.69-.87.93-1.65,1.82-2.5,2.63a1,1,0,0,0-.15,1.5C180.61,194.33,180.9,194.82,181.39,195.59Zm-78.75,13.22s-.29.39-.32.39,0-.44,0-.4.08.1.11.09A1.29,1.29,0,0,0,102.64,208.81Z" transform="translate(-24.15 -82.62)"/><path class="cls-6" d="M115.37,267.84h-1.78q-42.48,0-84.95,0c-1.38,0-1.75-.34-1.75-1.81q.06-68.46,0-136.93c0-1.36.26-1.75,1.64-1.74q15.7.1,31.42,0c1.29,0,1.56.34,1.56,1.65q-.06,50.54-.07,101.06c0,1.52.31,1.93,1.8,1.92,9.26-.08,18.51,0,27.76-.05a1.9,1.9,0,0,1,1.94.85q11,17.15,22,34.22c.1.16.18.35.42.8" transform="translate(-24.15 -82.62)"/><path class="cls-6" d="M157.59,127.48c-9.51,0-19,0-28.52,0a1.8,1.8,0,0,0-1.67,1.07Q111.71,152.69,96,176.83A1.69,1.69,0,0,0,96,179c2.57,3.94,5.09,7.92,7.63,11.89l24.31,38c.38.6.66,1.2,1.59,1.19,9.71,0,19.42,0,29.24,0a6,6,0,0,0-.78-1.66q-15.7-24.45-31.44-48.88a2.23,2.23,0,0,1,0-2.9c10.34-15.81,20.51-31.69,30.8-47.55l1-1.59Z" transform="translate(-24.15 -82.62)"/><path class="cls-6" d="M62.19,127.47H67.6c7.77,0,15.54,0,23.32,0A2.21,2.21,0,0,1,93,128.56c3.27,4.92,6.61,9.8,9.94,14.68a1.48,1.48,0,0,1,.09,1.92Q96,155.89,89,166.71c-.54.85-.78,1-1.4,0q-12.54-19.19-25.13-38.33a1.07,1.07,0,0,1-.29-.95" transform="translate(-24.15 -82.62)"/><path class="cls-6" d="M62.12,230.06a1.94,1.94,0,0,1,.57-1.41q7.45-11.64,14.9-23.28a1.81,1.81,0,0,1,1.68-1.06c9.55,0,19.11,0,28.66,0h.43a2.65,2.65,0,0,1-.52,1.33q-7.44,11.64-14.91,23.27c-.39.61-.71,1.16-1.62,1.15-9.7,0-19.41,0-29.19,0" transform="translate(-24.15 -82.62)"/><path class="cls-7" d="M112.63,267.85h-1.78q-42.48,0-84.95,0c-1.38,0-1.75-.34-1.75-1.81q.06-68.46,0-136.93c0-1.36.26-1.76,1.64-1.75q15.7.1,31.42,0c1.28,0,1.56.35,1.55,1.66q0,50.52-.06,101.06c0,1.51.31,1.93,1.8,1.91,9.26-.08,18.51,0,27.76,0a1.87,1.87,0,0,1,1.93.85q11,17.13,22,34.22c.1.16.18.34.42.8" transform="translate(-24.15 -82.62)"/><path class="cls-7" d="M154.85,127.48c-9.51,0-19,0-28.52,0a1.82,1.82,0,0,0-1.67,1.08Q109,152.7,93.23,176.84a1.68,1.68,0,0,0,0,2.2c2.58,3.94,5.1,7.93,7.64,11.9l24.3,38c.39.6.67,1.19,1.6,1.19,9.71,0,19.42,0,29.24,0a6.25,6.25,0,0,0-.78-1.67Q139.57,204,123.83,179.53a2.23,2.23,0,0,1,0-2.9c10.34-15.81,20.51-31.7,30.8-47.55l1-1.6Z" transform="translate(-24.15 -82.62)"/><path class="cls-7" d="M59.45,127.48h5.41c7.77,0,15.54,0,23.32,0a2.18,2.18,0,0,1,2.12,1.1c3.27,4.93,6.6,9.81,9.93,14.69a1.45,1.45,0,0,1,.1,1.91q-7.1,10.74-14.06,21.56c-.55.85-.78,1-1.4,0q-12.54-19.19-25.13-38.32a1,1,0,0,1-.29-1" transform="translate(-24.15 -82.62)"/><path class="cls-7" d="M59.38,230.07a2,2,0,0,1,.57-1.42q7.45-11.64,14.9-23.27a1.79,1.79,0,0,1,1.68-1.06c9.55,0,19.11,0,28.66,0h.43a2.72,2.72,0,0,1-.52,1.33Q97.66,217.32,90.19,229c-.39.61-.71,1.15-1.62,1.15-9.7,0-19.41,0-29.19,0" transform="translate(-24.15 -82.62)"/><path class="cls-7" d="M300.52,186.06c-1,0-1.2-.59-1.5-1.17-2.25-4.27-4.44-8.57-6.68-12.85-.54-1-1.1-2-1.56-3.17l-2.46-4.69c-.28,9.32-.31,18.48-.24,27.63,0,1.37-.4,1.79-1.59,1.65-2.15-.07-2.15-.07-2.15-2.27q0-16.65,0-33.3c0-.57,0-1.42.6-1.61a3.73,3.73,0,0,1,3.31.74,8.8,8.8,0,0,1,.9,1.42l11.45,22.5c.38-.75.6-1.16.81-1.57,1.72-3.5,3.43-7,5.16-10.51,1.87-3.77,3.85-7.49,5.58-11.33.89-2,2.38-1.33,3.67-1.3s.55,1.41.87,2.12c0,11.13,0,22.26,0,33.39,0,1.27-.25,1.91-1.53,1.73-2.25-.09-2.25-.09-2.25-2.52l0-19.45v-7.39c-.5.1-.52.54-.67.84q-4.67,9.21-9.29,18.45c-1.21,2.6-1.21,2.62-2.41,2.66" transform="translate(-24.15 -82.62)"/><path class="cls-7" d="M221.67,192.67a11.73,11.73,0,0,1-5.91-10.26c-.17-4.87-.17-9.76,0-14.64.17-6,3.63-11,9.67-11.76a32.59,32.59,0,0,1,10.88.26,9.72,9.72,0,0,1,6.54,4.84,17.8,17.8,0,0,1,1.36,4.59c.27,1.64-.11,2-1.68,2s-1.81-.25-2.11-2a9.87,9.87,0,0,0-1.55-3.54,5.48,5.48,0,0,0-3.65-2.59c-2.39-.65-4.84-.28-7.26-.3-4.45,0-7.68,2.8-8.25,7.39a94.8,94.8,0,0,0-.18,15.07c.1,2.65.89,5.22,3.26,6.82a5,5,0,0,0,3.82,1.66q3.12.09,6.24,0c4.27-.07,7.38-3,7.89-7.44a27.24,27.24,0,0,0,.06-2.86c.1-2.79,0-2.21-2-2.24-1.88,0-3.75,0-5.63,0a3.47,3.47,0,0,1-.45-.06c-.55-.13-1.41.37-1.6-.38a7.69,7.69,0,0,1,0-2.83c.07-.46.71-.26,1.09-.26h10.16c2.12,0,2.12,0,2.28,2.19-.06,2.16-.06,4.33-.19,6.5-.33,5.21-3.72,9.67-8.65,10.49-4.67.77-9.47,1-14.08-.78" transform="translate(-24.15 -82.62)"/><path class="cls-7" d="M330.8,172.62l14.08,0c2.21,0,2.21,0,2.37,2.24.1,1.13-.52,1.25-1.41,1.24-5.23,0-10.47,0-15.7-.05-1.3,0-1.62.4-1.59,1.7.08,3.35,0,6.69,0,10,0,2.19,0,2.19,2.19,2l15.77.08c2.1,0,2.1,0,2.22,2.17.12,1.06-.37,1.3-1.32,1.29-6.78,0-13.56,0-20.33,0-1.84-.4-2.38-1.85-2.38-3.45,0-10.82,0-21.65,0-32.48,0-1.21.43-1.34,1.41-1.33,6.8,0,13.61,0,20.41,0,2.12,0,2.12,0,2.24,2.17.12,1.08-.39,1.3-1.34,1.3-5.74,0-11.48,0-17.22-.06-1.41,0-1.69.44-1.65,1.79.09,3,0,6,0,9.08,0,2.3,0,2.3,2.22,2.18" transform="translate(-24.15 -82.62)"/><path class="cls-7" d="M251.4,193.45h-3.06c1.42-3.75,2.81-7.34,4.15-10.94.9-2.4,1.72-4.83,2.61-7.24q2.54-6.9,5.1-13.8c.45-1.25.83-2.53,1.36-3.74.28-.63.41-1.29,1.4-1.55,1.28-.12,2.49-.24,3.14,1.15.18.4.32.92.51,1.39s.32,1,.49,1.5c2.76,7.56,5.48,15.12,8.24,22.68,1.26,3.44,2.52,6.92,3.85,10.58-1,0-1.66,0-2.41,0-1.49,0-1.89-.63-2.24-1.92-.6-2.16-1.46-4.23-2.22-6.33-.2-1.67-1-2.19-2.68-2.13-4.05.15-8.12.1-12.18,0a1.75,1.75,0,0,0-2,1.44c-.83,2.56-1.77,5.08-2.64,7.62-.26.74-.54,1.39-1.45,1.27m8.88-13.76h10.11c-.35-1-.64-2-1-2.89-1.45-3.76-2.51-7.68-4-11.41-.56-1.38-.91-2.52-1.61-3.91-1.88,5.26-3.71,10.33-5.52,15.41C257.19,179.87,257.2,179.87,260.28,179.69Z" transform="translate(-24.15 -82.62)"/><path class="cls-7" d="M334.13,229.75c-2.73-1.35-3.75-3.51-3.33-7.07a60.47,60.47,0,0,1,1.68-9.06,6.77,6.77,0,0,1,5.49-5.27,20.69,20.69,0,0,1,5.77-.17,6,6,0,0,1,4.89,3.24,11.64,11.64,0,0,1,.14,5c-.46,2.27-.75,4.58-1.24,6.84-1,4.48-3.75,6.74-8.12,6.78a31.13,31.13,0,0,1-5.28-.31m.35-2.63c1.48,1.38,3.29.78,4.95.81a5.44,5.44,0,0,0,5.88-4.62c.62-2.72,1-5.5,1.4-8.27a3.66,3.66,0,0,0-1-3.5,2.49,2.49,0,0,0-2.29-1.27c-1.11-.05-2.23-.06-3.34-.05-3.05,0-5,1.51-5.69,4.64-.61,2.72-1.1,5.48-1.45,8.25C332.79,224.62,333,226.19,334.48,227.12Z" transform="translate(-24.15 -82.62)"/><path class="cls-7" d="M292,229.79c-1.2-.23-1.48-.89-1.26-2.17.71-4,1.26-8,1.92-12,.35-2.12.81-4.21,1.22-6.32.09-.47.15-1,.8-.92,3.28.17,6.57-.3,9.85.3,1.8.33,2.91,1.55,4,2.91a16.5,16.5,0,0,1,.26,3.14c-.47,2.72-.86,5.45-1.43,8.13-1,4.81-3.6,6.9-8.31,6.91l-7,0m2.82-2c1.52,0,3,.05,4.55,0,3.2-.1,5.11-1.68,5.78-4.95.55-2.69.95-5.4,1.35-8.11a3.08,3.08,0,0,0-.75-2.79,3,3,0,0,0-2.85-1.47c-2.07-.13-4.15,0-6.23-.07-.77,0-.88.48-1,1.11-.8,4.84-1.66,9.67-2.41,14.51C292.94,228.05,292.66,227.77,294.81,227.75Z" transform="translate(-24.15 -82.62)"/><path class="cls-7" d="M218.55,229.36c-1.8-.76-2.23-2.5-2.21-4.4,0-.77.06-1.26,1-1.28s1.17.34,1.16,1.26a3.27,3.27,0,0,0,1.25,2.69,1.89,1.89,0,0,0,1,.24,20.51,20.51,0,0,0,5.48-.05c2.45-.47,3.88-3,3-6.06-.11-.86-.81-1.08-1.41-1.2-2.27-.46-4.56-.82-6.83-1.22-2.28-.8-3.24-2.82-2.68-5.68.79-4.07,2.82-5.33,6.27-5.53,1.11-.07,2.23,0,3.35,0a5.33,5.33,0,0,1,5.18,2.88c.23,1,.71,2.71-1.19,3.11-.86,0-1,0-1-.91a7.21,7.21,0,0,0-.34-1.76,1.35,1.35,0,0,0-1.1-1,14.48,14.48,0,0,0-6.77.21c-1.81.62-2,2.41-2.2,4a2.1,2.1,0,0,0,1.35,2.39c2,.95,4.25.93,6.36,1.47a5.74,5.74,0,0,1,3.7,2.68,12.39,12.39,0,0,1-.5,4.37,5.15,5.15,0,0,1-4.25,4.19,19.09,19.09,0,0,1-8.53-.41" transform="translate(-24.15 -82.62)"/><path class="cls-7" d="M268.28,227.08a9.11,9.11,0,0,0,1,.53c2.37.45,4.81,1,7.11-.65a6.09,6.09,0,0,0,2.17-4.2c.85-4.41,1.51-8.86,2.17-13.31.18-1.17.88-1,1.63-1.07,1.13-.08.63.79.76,1.29-.11.46-.24.92-.32,1.39-.71,4.16-1.38,8.33-2.14,12.48s-3.43,6.48-7.57,6.52a23,23,0,0,1-5.43-.41,5.07,5.07,0,0,1-2.8-4.63c-.1-3.38.91-6.6,1.33-9.91.22-1.77.66-3.51.81-5.3.07-.69.29-1.42,1.37-1.47s1.09.53,1.14,1.27c-.83,4.79-1.71,9.58-2.44,14.38a2.9,2.9,0,0,0,1.17,3.09" transform="translate(-24.15 -82.62)"/><path class="cls-8" d="M222.8,188.67c-2.38-1.6-3.16-4.18-3.26-6.82a93.6,93.6,0,0,1,.17-15.07c.58-4.59,3.81-7.44,8.25-7.39,2.43,0,4.88-.35,7.27.29a5.55,5.55,0,0,1,3.65,2.6c-2.82-.89-5.72-.69-8.6-.68-4.82,0-8.25,3.26-8.43,8.3-.16,4.87,0,9.76.05,14.64a12.41,12.41,0,0,0,.9,4.13" transform="translate(-24.15 -82.62)"/><path class="cls-8" d="M221.67,192.67c4.61,1.81,9.41,1.55,14.08.78,4.93-.82,8.32-5.28,8.65-10.49.13-2.17.13-4.34.19-6.5.46,0,.91.09,1.37.09s.85.18.84.82c-.06,3.94.32,7.92-1.16,11.73a11.08,11.08,0,0,1-9.14,6.62c-3.65.26-7.27.78-10.69-.09-1.64-.42-3.43-1-4.14-3" transform="translate(-24.15 -82.62)"/><path class="cls-8" d="M315.17,193.45c1.29.18,1.55-.46,1.54-1.73,0-11.13,0-22.26,0-33.39,2.16.07,2.16.07,2.16,2.35q0,16.32,0,32.65c0,1,.66,2.46-1.39,2.35-2.23-.12-2.23,0-2.3-2.23" transform="translate(-24.15 -82.62)"/><path class="cls-8" d="M286.51,193.47c1.19.14,1.59-.32,1.58-1.69-.08-9.15,0-18.31.24-27.63.82,1.57,1.63,3.16,2.45,4.72a2.48,2.48,0,0,0-.34,1.73c0,7.69,0,15.38,0,23.08,0,.93.38,2-1.29,2-3.08-.11-2.53.1-2.61-1.91,0-.11,0-.18,0-.28" transform="translate(-24.15 -82.62)"/><path class="cls-8" d="M330.8,172.62c-2.22.12-2.22.12-2.22-2.18,0-3,.06-6.06,0-9.08,0-1.35.24-1.81,1.65-1.79,5.74.09,11.48,0,17.22.06.95,0,1.46-.22,1.34-1.3,1,.15,2.24-.51,2.21,1.56,0,1.64-.46,2-2,2-5.63-.09-11.26,0-16.88-.06-1.07,0-1.4.32-1.37,1.44.07,3.12,0,6.25,0,9.37" transform="translate(-24.15 -82.62)"/><path class="cls-7" d="M247.13,229.8l-1.4-.07c1-6.09,2.06-12.13,3.09-18.17,0-.46.36-1.19-.3-1.19-1.6,0-3.25,0-4.72.07,0,0-1.16,0-1.2-1s.57-1.08,1.26-1.08c4.35,0,8.7,0,13.05,0,1,0,1.21.38,1,1.27s-.62.71-1.14.7c-1,0-1.93,0-2.89,0-3.3.07-2.45-.54-3.06,2.84-.92,5-1.7,10.11-2.58,15.16-.11.65,0,1.49-1.12,1.48" transform="translate(-24.15 -82.62)"/><path class="cls-8" d="M300.62,186.05c1.21.06,1.76-1.52,2.32-2.66q4.63-9.24,9.29-18.46c.15-.29.17-.73.68-.83,0,2.48,0,4.93,0,7.39-.72-.24-.82.41-1,.84q-3.36,6.64-6.69,13.3a4.33,4.33,0,0,1-.66,1.24c-1.22,1.18-1.83,1.44-3.33,0a2.48,2.48,0,0,1-.56-.84" transform="translate(-24.15 -82.62)"/><path class="cls-8" d="M330.77,189.89c-2.19.14-2.19.14-2.19-2,0-3.35.05-6.69,0-10,0-1.3.29-1.72,1.59-1.7,5.23.08,10.46,0,15.7.05.89,0,1.51-.11,1.41-1.24,1.14,0,2.28-.34,2.19,1.7-.06,1.52-.51,1.82-1.84,1.8-5.12-.07-10.25,0-15.37,0-1.12,0-1.5.29-1.48,1.5.08,3.34,0,6.68,0,10" transform="translate(-24.15 -82.62)"/><path class="cls-8" d="M251.4,193.45c.91.12,1.19-.53,1.45-1.27.87-2.54,1.81-5.06,2.64-7.62a1.75,1.75,0,0,1,2-1.44c4.06.08,8.13.13,12.18,0,1.65-.06,2.48.46,2.68,2.13-3.63.38-7.27.1-10.91.16-3.29.05-3.28,0-4.37,3.23-.65,1.94-1.39,3.84-2,5.79-.3,1-.75,1.2-1.74,1.25s-1.69,0-2.64,0c.27-.82.5-1.51.74-2.19" transform="translate(-24.15 -82.62)"/><path class="cls-8" d="M276.73,193.48h2.46c-1.33-3.66-2.58-7.11-3.85-10.56-2.76-7.55-5.47-15.11-8.23-22.67-.18-.49-.35-1-.49-1.5,1.08.05,1.56.86,1.89,1.76q5.33,14.48,10.6,29,1.08,3,2.14,5.91c-2.88.07-3.92.48-4.52-1.91" transform="translate(-24.15 -82.62)"/><path class="cls-8" d="M327.11,193.4c6.77,0,13.55,0,20.33,0,.95,0,1.44-.23,1.32-1.29.84.24,2.26-.66,2.17,1.39s0,2.11-2.06,2.11c-6.18,0-12.35,0-18.53,0a3.09,3.09,0,0,1-3.23-2.25" transform="translate(-24.15 -82.62)"/><path class="cls-7" d="M318.22,229.81c-1.34.06-1.64-.36-1.27-1.85.64-2.57.93-5.25,1.36-7.88s.78-5.46,1.36-8.15c.18-.84.3-1.75.4-2.56.2-1.63,1.21-.89,1.85-.94,1.09-.08.26.85.48,1.26q-1.62,9.41-3.23,18.8c-.11.63-.08,1.31-.95,1.32" transform="translate(-24.15 -82.62)"/><path class="cls-8" d="M292,229.79l7,0c4.71,0,7.28-2.1,8.31-6.91.57-2.68,1-5.41,1.43-8.13a16.5,16.5,0,0,0-.26-3.14c1.62,1.24,1.71,3.06,1.46,4.85-.38,2.75-.9,5.49-1.48,8.2-.88,4.15-3.61,6.37-7.69,6.4-2.33,0-4.66,0-7,0-.93,0-1.59-.24-1.81-1.26" transform="translate(-24.15 -82.62)"/><path class="cls-8" d="M267.58,229.59a21.16,21.16,0,0,0,5.55.47c4.14,0,6.78-2.25,7.57-6.52s1.43-8.32,2.14-12.48c.08-.47.21-.93.32-1.39,1-.14,1.34.27,1.14,1.36q-1.23,6.67-2.35,13.35c-.77,4.63-3.54,7.08-8,7-2,0-3.95.45-5.79-1a3.58,3.58,0,0,1-.56-.79" transform="translate(-24.15 -82.62)"/><path class="cls-8" d="M334.13,229.75a31.07,31.07,0,0,0,5.28.31c4.37,0,7.14-2.3,8.12-6.78.49-2.26.78-4.57,1.24-6.84a11.64,11.64,0,0,0-.14-5c1.77,1.24,1.82,3.16,1.59,5-.35,2.75-.94,5.47-1.46,8.2-.72,3.77-3.72,7-8.13,6.71-1.65-.12-3.35.3-4.95-.36-.6-.24-1.45-.26-1.55-1.23" transform="translate(-24.15 -82.62)"/><path class="cls-8" d="M247.13,229.8c1,0,1-.83,1.12-1.48.88-5,1.66-10.12,2.58-15.16.61-3.38-.24-2.77,3.06-2.84,1,0,1.92,0,2.89,0,.52,0,1,.05,1.14-.7,0,0,1.23-.27,1.23.75,0,.87-.34,1.31-1.3,1.24-1.46-.09-2.94,0-4.41,0-.48,0-1-.12-1.11.7-.89,5.54-1.79,11.08-2.78,16.6-.14.8,0,2.13-1.31,2.18-1,0-1.27-.29-1.11-1.27" transform="translate(-24.15 -82.62)"/><path class="cls-8" d="M318.22,229.81c.87,0,.84-.69.95-1.32q1.6-9.41,3.23-18.8c1-.11,1.43,0,1.18,1.36-1.15,6.31-2.19,12.65-3.16,19-.22,1.45-1.11,1-1.8,1-1.05,0-.59-.68-.4-1.2" transform="translate(-24.15 -82.62)"/><path class="cls-8" d="M218.55,229.36a19.09,19.09,0,0,0,8.53.41,5.15,5.15,0,0,0,4.25-4.19,12.39,12.39,0,0,0,.5-4.37,2.17,2.17,0,0,1,1.24,1.81c0,4.54-1.26,8.1-6.59,8.3-1.42.06-2.85.05-4.27,0a4.47,4.47,0,0,1-3.66-1.95" transform="translate(-24.15 -82.62)"/><path class="cls-8" d="M301.42,179.36c-.21.41-.42.82-.81,1.56l-11.44-22.49c.82-.23,1.16.29,1.5.95q4.88,9.48,9.8,18.93c.22.42.33.91.95,1.05" transform="translate(-24.15 -82.62)"/><path class="cls-8" d="M268.28,227.08a2.9,2.9,0,0,1-1.17-3.09c.73-4.8,1.61-9.59,2.44-14.38,1.31-.11,1.19.83,1.06,1.67-.6,3.71-1.2,7.43-1.88,11.14a17.81,17.81,0,0,0-.45,4.66" transform="translate(-24.15 -82.62)"/><path class="cls-8" d="M221.77,217.06a2.1,2.1,0,0,1-1.35-2.39c.22-1.62.39-3.41,2.2-4a14.48,14.48,0,0,1,6.77-.21,1.35,1.35,0,0,1,1.1,1,20,20,0,0,1-4.09.15c-3.36,0-4.53,1.14-4.62,4.69,0,.26,0,.53,0,.79" transform="translate(-24.15 -82.62)"/><path class="cls-8" d="M242.5,167.74c1.48-.05,2-.45,1.69-2.08a17.89,17.89,0,0,0-1.36-4.59c2,1.4,2.88,3.72,3.35,6,0,.18,0,.33.06.48.16,2.44-.42,2.6-2.83,2.58-.57-.08-.66-.42-.72-.86s-.13-1-.19-1.53" transform="translate(-24.15 -82.62)"/><path class="cls-8" d="M233.13,177.76c1.88,0,3.75,0,5.63,0,2,0,2.12-.55,2,2.24h-5.41c-2.19,0-2.19,0-2.24-2.22" transform="translate(-24.15 -82.62)"/><path class="cls-8" d="M220.94,219.34c2.27.4,4.56.76,6.83,1.22.82.17,1.34.47,1.45,1.33a68.15,68.15,0,0,1-6.77-1.27c-.59-.13-1.42-.33-1.51-1.28" transform="translate(-24.15 -82.62)"/><path class="cls-8" d="M243.79,210.44c1.59,0,3.15-.07,4.72-.07.62,0,.38.72.3,1.19-1.34,0-2.69,0-4,0-.72,0-1-.46-1-1.16" transform="translate(-24.15 -82.62)"/><path class="cls-8" d="M231.86,214.1c1.91-.4,1.35-2.63,1.2-3.11,1.17.58,1.31,2.21,1.24,3.54-.06.91-.81.74-1.34.78s-.85-.19-.92-.61a1.6,1.6,0,0,0-.18-.6" transform="translate(-24.15 -82.62)"/><path class="cls-8" d="M219.79,227.63c-1-.45-1.17-1.68-1.25-2.69,2-.13,1.26,1.62,1.25,2.69" transform="translate(-24.15 -82.62)"/><path class="cls-8" d="M265.33,165.27c-1.28,4.53-3.27,9.07-4.77,13.53-.1.29-.19.59-.28.89-3.08.18-3.09.18-2-2.8,1.81-5.08,3.64-10.15,5.52-15.41a35.57,35.57,0,0,1,1.56,3.79" transform="translate(-24.15 -82.62)"/><path class="cls-8" d="M345.75,211.54h-4.09c-3.33,0-5.35,1.56-6,5s-1.66,7-1.17,10.62c-1.48-.93-1.69-2.5-1.5-4,.35-2.77.84-5.53,1.45-8.25.71-3.13,2.64-4.61,5.69-4.64,1.11,0,2.23,0,3.34.05a2.49,2.49,0,0,1,2.29,1.27" transform="translate(-24.15 -82.62)"/><path class="cls-8" d="M305.74,211.9a46.09,46.09,0,0,0-7.43-.29c-.61,0-1.12,0-1.24.82-.79,4.9-1.81,9.75-2.36,14.7a1,1,0,0,0,.1.62c-2.15,0-1.87.3-1.54-1.77.75-4.84,1.61-9.67,2.41-14.51.1-.63.21-1.13,1-1.12,2.08,0,4.16,0,6.23.08a3,3,0,0,1,2.85,1.47" transform="translate(-24.15 -82.62)"/></svg>