<svg id="Camada_1" data-name="Camada 1" xmlns="http://www.w3.org/2000/svg" viewBox="0 0 325.86 206.78"><defs><style>.cls-1{fill:#cbb3ff;}.cls-2{fill:#969696;}.cls-3{fill:#fcfcfc;}.cls-4{fill:#5e35a0;}.cls-5{fill:none;stroke:#5e35a0;stroke-miterlimit:10;stroke-width:0.22px;}.cls-6{fill:#6222ca;}.cls-7{fill:#e6deff;}.cls-8{fill:#5e00f5;}</style></defs><path class="cls-1" d="M103.32,239.78a26.69,26.69,0,0,1,8.12-11.91,9.7,9.7,0,0,1,2.8-1.86l0,0a3,3,0,0,1-.3.7A24.72,24.72,0,0,0,108.54,241a22.24,22.24,0,0,0,1.95,10.65c-.09-1.71-.26-3.41-.23-5.13.15-7.77,5.44-14.59,12.59-15.85,4.57-.8,9,.21,13.28,2a46.78,46.78,0,0,1,6.92,3.32,15.32,15.32,0,0,0-9.94,10.88c-1.48,5.25-.36,10.2,1.83,15a19.7,19.7,0,0,1-4.67-5.29,7.55,7.55,0,0,0,.38,4.12c2.34,8.42,7.62,14.39,14.54,19,5.67,3.77,12,5.74,18.54,6.94a7.37,7.37,0,0,1,2.3.27,59.85,59.85,0,0,1-9.57-.52,89.28,89.28,0,0,1-13.38-2.68,97.72,97.72,0,0,1-23-9.89A84.76,84.76,0,0,1,107,264.4a64.58,64.58,0,0,1-8.62-9.09,75.31,75.31,0,0,1-7.67-12.42c-.06-.11-.21-.17-.48-.38a25.39,25.39,0,0,0,.61,7.94,40.63,40.63,0,0,0,8.73,17.87,61.28,61.28,0,0,0,13.92,12.17,7,7,0,0,1,1.28,1,8.11,8.11,0,0,1-3.38-1.09A100,100,0,0,1,87.3,265.83a59.44,59.44,0,0,1-17.13-22.95,51.49,51.49,0,0,1-3.81-14.59c-.25-2.49-.52-5-.82-7.77a22.55,22.55,0,0,0-3.14,7.85,27,27,0,0,0-1,8.4c-4.54-4.43-7.29-28.1-5.08-39.73a69.57,69.57,0,0,1,18-35.74,12.63,12.63,0,0,0-5.71,1.27c-1.72.68-3.4,1.48-5.43,2.37a46.84,46.84,0,0,1,4.83-7.55,47.39,47.39,0,0,1,9.7-9.18A41.69,41.69,0,0,1,87,142.8c.89-.35,1.31-.79.93-1.82-1.63-4.34-1.84-8.88-1.79-13.47.06-6.41,1.64-12.51,3.26-18.61,2-7.53,6.84-17.67,3.24-24.44a29.91,29.91,0,0,0-2.12-3.75c.42-.45.61-.08.79.12,7,8,9.4,17.59,17.49,24.31a94,94,0,0,1,9.9,9.66,7.68,7.68,0,0,0,3.91,2.5,53.46,53.46,0,0,1,10.44,4.22c.38.19.72.6,1.36.31a36.92,36.92,0,0,0-4.12-3.62,31,31,0,0,1,7.78,1.68A57.44,57.44,0,0,1,155,128.68a2,2,0,0,0,2.44.17c4.6-2.33,9.26-4.51,13.88-6.8a13.69,13.69,0,0,0,7.22-7.62,15.45,15.45,0,0,0-.16-10.31c-.48-1.51-1.27-2.89-1.89-4.35a28.63,28.63,0,0,1,5.16,7.12,55.66,55.66,0,0,1,6.39,21.6,50,50,0,0,1-.2,12.46,1.34,1.34,0,0,1-.75,1.08c-1.4.83-2.77,1.72-4.22,2.45-1,.51-1.49.94-1.21,2.34,1.16,5.71,2.1,11.46,3.19,17.19.56,2.93,2.53,5.13,3.9,7.64.72,1.33,1.47,2.66,2.26,3.94a1,1,0,0,1-.28,1.58c-.87.7-2.23,1.33-2.42,2.22-.24,1.08.53,2.4.87,3.61s.6,2.23,1,3.32c.76,2.11,1.19,4-1,5.66-1.09.82-1.08,3-.34,4.28q4.32,7.28,8.67,14.52c1.12,1.88,1,2.92-.48,4.46a7.42,7.42,0,0,0-2.29,5.82,14.53,14.53,0,0,1-6.11,12.12,15.68,15.68,0,0,1-3.13,2.22,6.71,6.71,0,0,0-4,4.77,7.56,7.56,0,0,1-3.28,4.36c-1.49,1-2.89,2.14-4.38,3.13-3,2-6.05,1.61-9.08.22-3.78-1.72-7-4.39-10.58-6.54-2.86-1.74-5.66-3.55-8.5-5.32a83.32,83.32,0,0,0-12.75-6.62c-6.78-2.77-13.19-1.39-18.65,3a12.5,12.5,0,0,0-1.19.94l0,0a17.93,17.93,0,0,1,3-4.74,38,38,0,0,1,12.26-9.27,66.17,66.17,0,0,1,6.1-3.15,21.22,21.22,0,0,1-1.63-2.2c-1-1.66-2.13-1.66-3.79-1.12-6.45,2.11-12.69,4.62-17.61,9.69a30.47,30.47,0,0,0-8.14,17.07c-.06.39,0,.35-.09.76s.16-.38.27-.63m59.87-102.66a3.35,3.35,0,0,1-.32-.26c-.57-12.93-.06,0,.11.18l.28.32.28.33c.09.12.19.25.27.37a3,3,0,0,0,.39.53,70,70,0,0,1,10.34,18.31c1.4,3.53,2.56,7.16,5.14,10a21.26,21.26,0,0,1,1.55,2.17,1.56,1.56,0,0,1,.32,1.17c-.26,1.62-.45,3.26-.66,4.88-.34,2.53-.67,5-1.06,8,2.66-2.55,5-4.84,7.39-7,1-.88,1-1.53.32-2.67-2.24-3.81-4.68-7.43-5.24-12.18a139.7,139.7,0,0,0-3.62-17.71,1.76,1.76,0,0,1,.95-2.31c1.58-.85,3.06-1.9,4.61-2.81a2.16,2.16,0,0,0,1.1-1.91,76.12,76.12,0,0,0-.18-14.71c-.37,4.09-.39,8.18-1,12.23a1.8,1.8,0,0,1-1,1.58c-2.29,1.16-4.51,2.45-6.81,3.57-1,.5-1.13,1.06-.77,2.1A114.84,114.84,0,0,1,179,153.8a17.4,17.4,0,0,1,.69,5c-1.69-3-3.37-6.06-5.31-8.91a66,66,0,0,0-10.31-12.09c-.13-.08-.17-.17-.3-.25l-.38-.3C163.1,137.06,163.53,137.41,163.19,137.12ZM79.81,179.56A77.23,77.23,0,0,1,103.37,169c1.54-.4,3.1-.73,4.94-1.17-3.47-2.22-7.1-3.51-10.33-6.16a46.1,46.1,0,0,0,13.23-2.95c8.12-3.35,14-9,16.88-17.81a9.94,9.94,0,0,0-1.56-9.84,51.87,51.87,0,0,0-3.8-4.56c-3.86-3.93-7.74-7.84-11.6-11.77l-9.27-9.45-.33-.31c-.1,0-1.4-1.57-1.5-1.62,0,.1,1.31,1.68,1.36,1.78l.27.35c.27.38.52.78.82,1.14,5.92,7.2,11.91,14.34,17.73,21.63,2,2.45,2.9,4.79,2.37,8.07-1,6-3.17,11.27-7.52,15.39-6,5.67-13.25,7.76-21.09,8.25-.58,0-1.41-.38-1.59.69a1.79,1.79,0,0,0,.88,2c1.18.72,2.3,1.56,3.47,2.3s1.33,1.08,0,1.86c-2.43,1.43-4.79,3-7.11,4.61a82.76,82.76,0,0,0-11.1,8.6c-.17.17-1.18.9-.09.29m21.76-76.8c-.06-.07,0-.37-.21-.1l.23.07c0,.23.09.34.31.32,0,.17.09.33.13.5,0,0,.12,0,.12-.07a.34.34,0,0,0-.27-.4ZM99.62,189c.07-.07.2-.18.19-.19-.14-.22-.22-.07-.29.07l-.37.25a39.31,39.31,0,0,0-9.23,8.47C79.37,211,76,226,80.68,242.75a34.88,34.88,0,0,0,4.79,10.75c.1.14.33.55.27.37s-.09-.26-.15-.47c-.15-.51-.28-1-.45-1.51-3.07-8.55-2.81-16.93,1.24-25.09,3.81-7.7,9.72-13.24,16.73-17.63,1.33-.84,2.7-1.6,4-2.4A43.17,43.17,0,0,0,97,210a67.9,67.9,0,0,0-9.69,5.41,38.56,38.56,0,0,1,10-17.48,52.6,52.6,0,0,1,16-11,38.67,38.67,0,0,0-4.18.85,50.24,50.24,0,0,0-11.82,5l-.21-.23c.53-1.21,1.68-1.91,2.27-3.06Zm49.47-51.17.23.12a3.68,3.68,0,0,0,.25.4c.08.11.15.25.24.37a67.58,67.58,0,0,1,6.71,10.79,44.63,44.63,0,0,1,4.06,11.29c-1.22-1.17-2.55-2.45-3.9-3.71a33.2,33.2,0,0,0-4.26-3.61c-1.54-1-3.08-2.06-4.69-3s-3.28-1.68-4.93-2.48a16.2,16.2,0,0,0-5-1.67,2.85,2.85,0,0,0,.88.91,83.51,83.51,0,0,1,10.68,9A7,7,0,0,1,151.9,162c-.33,6.18,2,10.69,7.93,12.67a2,2,0,0,1,1.46,1.31c1,3.73,3.58,5.21,6.94,5.74a4.64,4.64,0,0,1,.87.28c2.07.69,2.06.69,2.23-1.63a11.26,11.26,0,0,1,.19-1.42c.43-2.32.1-4.32-1.83-5.9-1-.81-1.68-2-2.63-2.87a3,3,0,0,1-.86-3c.75-4.58.25-8.85-2.69-12.57-.61-.77-1.07-1.67-1.62-2.5A65.06,65.06,0,0,0,150,138.54l-.33-.28-.36-.27m-10,81.6c9.56,7.84,19.82,13.38,32.49,11.73l.12.12c-1.6,2.32-4,3-6.5,3.15-6.87.43-13-2.11-18.93-5.37-2.67-1.48-5.21-3.24-7.81-4.87a10.63,10.63,0,0,1-1.43-.84c-.3-.2-.4-.33-.68-.27,0-.23-.38,0-.58-.08a1.42,1.42,0,0,1,.41-.32c0,.23.24.25.43.26s.32.33.49.48c.66.09.48.24,1.2,1a10.3,10.3,0,0,0,1.31,1.11,61.06,61.06,0,0,0,9.66,6,46,46,0,0,0,16.73,5.06c6.06.47,11.31-2,16.29-5.27a1.53,1.53,0,0,0,.59-1.23c.5-3.64-1.28-7.08-4.59-8.21a9.48,9.48,0,0,1-6.22-6.63c-.77-2.43-2.12-3.37-4.59-3.35-1.52,0-3,.26-4.56.2a90.5,90.5,0,0,1-18.21-2.63l-7.31-1.8c10.25,4.47,20.59,8.59,31.52,10.82-10.67,2.4-19.53-2.89-28.6-7.43a76.91,76.91,0,0,0,8.77,5.38,90.11,90.11,0,0,0,9.45,4.42c3.13,1.23,6.38,2,9.6,3a15.71,15.71,0,0,1-5.28.76,37.47,37.47,0,0,1-16.67-5.07c-2.79-1.53-5.32-3.51-8-5.18-.62-.4-1-.78-1.44-1m-.06-.1c.51.17.76.78,1.3,1.35a40.06,40.06,0,0,0,6.85,5c5.82,3.65,12,6.45,18.77,7.45,1.92.29,3.87.05,6.1.2a8.5,8.5,0,0,1-5.35,1.86c-6.56.39-12.48-1.86-18.1-5.08-2.44-1.4-4.74-3-7.1-4.57-.38-.32-.93-.66-1-.88a.46.46,0,0,0-.62-.31m-73.55-9.91c.08-.11-.54-.3-.46-.41s.59,0,.54,0l-.06.43-.24.3c.05,0-.39-.37-.34-.34C63.64,208.28,64.16,208.58,64.18,208.44ZM131,141.8c2.11-4.46.33-12.75-3.46-16.18-.77-.74-.06.3,0,.41A20.36,20.36,0,0,1,131,141.8l0,0Zm15.57,32.53c-.08,0,0,0,0,0s0-.07,0,0c.1,1.07,1,1.67,1.38,2.59,1.18,3.08,3.49,4.23,6.5,4.84,2.12.42,3.3-.41,4.56-1.87a12.25,12.25,0,0,0-1.65-1c-.78-.35-1.7-1.84-2.34.19,0,.1-.47.1-.71.1a2.67,2.67,0,0,1-3-2.13,1.89,1.89,0,0,0-1.26-1.64C148.91,175.06,147.75,174.68,146.59,174.33Zm-48.26-66.1a9.38,9.38,0,0,1,.7,1.2c3.42,6.85,6.88,13.94,11.91,19.88l-.18.19c-2.15-.2-4.12-1.28-6.29-1.4l-.26-.23-.09.09.36.13c.36.8,1.12,1.19,1.72,1.74,2.73,2.51,5.28,5.11,6.08,9.07.41,2-.3,3.86-.47,5.79l-.17.11s.08,0,.09,0a.39.39,0,0,0,.06-.13,6.92,6.92,0,0,0,2.64-3c1.95-3.83,3.28-7.78.49-11.79q-7.44-10.7-14.52-21.65c-1.26-1.94-2.57-3.86-4.09-6.13a34.17,34.17,0,0,1-.55,5.15c-1.25,6.77-3,13.43-3.63,20.31-.48,5.26-.11,10.38,2.41,15.14,1.26,2.38,3.41,3,5.72,3.47-2.72-3-4.76-6.21-4.66-10.69,1.93,1.06,3.67,2.2,5.9,2.47-.16-.4-.23-.6-.32-.78-3.13-5.88-4.08-12.26-4-18.88,0-.41-.15-1,.28-1.16s.66.37,1,.63a14.33,14.33,0,0,0,3.42,2.46c-.3-.71-.47-1.08-.61-1.46a46.18,46.18,0,0,1-3.11-10.85Zm65.82,78.17c0,.25,0,.37,0,.45a100.36,100.36,0,0,1,7.79,21.86,5.65,5.65,0,0,0,4.19,4.21,16.53,16.53,0,0,0,5.29.37c1.94,0,4-.23,5.66.83,2.42,1.58,4.56,1.19,6.83,0a6.24,6.24,0,0,1,.72-.27c1.9-.73,1.93-.75.82-2.59q-6.1-10.17-12.26-20.33c-.49-.83-1.06-1.61-1.69-2.55-.47,1.2.28,2.7-.53,3s-1.72-.86-2.6-1.38a5.33,5.33,0,0,1-.77-.5C173.6,186.07,168.83,186.57,164.15,186.4Zm-1.79,16.23c.5-6.09-.54-11.25-2.93-15.32a2.59,2.59,0,0,0-1.87-1.42c-2.89-.54-5.78-1.14-8.68-1.65a2.9,2.9,0,0,1-2.1-1.38q-3.19-4.85-6.47-9.65c-.34-.51-.57-1.24-1.18-1.4-1.86-.5-3.74-.89-5.61-1.33a19.26,19.26,0,0,0,2.37,2.4c3.39,3.23,5.09,7.48,6.52,11.88a2.41,2.41,0,0,0,1.84,1.82c2.49.7,4.92,1.67,7.41,2.41a12.86,12.86,0,0,1,9.09,8.79C161.25,199.28,161.75,200.78,162.36,202.63Zm-36.65-16a13,13,0,0,0,5.33,1.7c-7.64-5.08-10.68-12-8.51-21.37-3.77,5.33-4.08,13-1,19.37,2.6,5.37,9.83,11.76,13.28,11.74C129.9,193.73,127.13,190.31,125.71,186.61ZM89.6,180.73c-7.92,1-23.53,17.84-25,27.13a58.45,58.45,0,0,1,10.57-15.78C79.43,187.58,84.54,184.19,89.6,180.73ZM184,233.79c4.35-2.5,8.41-6.64,8.21-9.86C186.88,227.23,183.4,230.86,184,233.79Zm2.55-50.74a6,6,0,0,0,0-1c-.07-.47.23-1.26-.45-1.3a1.31,1.31,0,0,0-1.28,1.14c-.15.9,0,2.14-1.39.89,0,0-.37.19-.43.35-.21.58-.51,1.14-1.32.83-.24-.09-.48.15-.51.45a5.23,5.23,0,0,0,2.14,2.25A3.85,3.85,0,0,0,186.53,183.05Zm.19,10.14a5.29,5.29,0,0,1,1.5-3.18c1-.9.67-1.67.06-2.69-.88.93-1.65,1.82-2.5,2.63a1,1,0,0,0-.15,1.5C186,191.92,186.24,192.41,186.72,193.19ZM108,206.4s-.29.39-.32.39,0-.44,0-.4.08.1.11.09A1.29,1.29,0,0,0,108,206.4Z" transform="translate(-24.63 -80.49)"/><path class="cls-2" d="M141.44,228.45l.07-.11-.09.09Z" transform="translate(-24.63 -80.49)"/><path class="cls-3" d="M131.68,130.53l-.36-.13.09-.08a2.53,2.53,0,0,1,.26.22h0" transform="translate(-24.63 -80.49)"/><path class="cls-3" d="M139,147.11a.45.45,0,0,1-.06.12s-.06,0-.09,0l.17-.12,0,0" transform="translate(-24.63 -80.49)"/><polyline class="cls-3" points="133.59 63.74 133.56 63.78 133.59 63.75 133.59 63.74"/><path class="cls-2" d="M199,233.76c.08-.12.17-.19.28,0s-.1.11-.16.16l-.12-.12" transform="translate(-24.63 -80.49)"/><path class="cls-2" d="M124.49,195.12l-.36.25-.12-.13.27-.35.21.23" transform="translate(-24.63 -80.49)"/><path class="cls-2" d="M124.13,195.37c-.08.12-.17.25-.3.06,0,0,.12-.12.18-.18l.12.12" transform="translate(-24.63 -80.49)"/><path class="cls-2" d="M138.14,131.75c.06.07.19.19.18.21-.12.18-.24.1-.36,0l.18-.19" transform="translate(-24.63 -80.49)"/><path class="cls-4" d="M98.47,240.06a26.67,26.67,0,0,1,8.11-11.91,9.7,9.7,0,0,1,2.8-1.86v0a3,3,0,0,1-.31.7,24.8,24.8,0,0,0-5.38,14.28,22.12,22.12,0,0,0,2,10.64c-.09-1.71-.27-3.41-.24-5.13.15-7.77,5.45-14.59,12.6-15.85,4.57-.8,9,.21,13.27,2a47.81,47.81,0,0,1,6.92,3.32,15.34,15.34,0,0,0-9.94,10.88c-1.47,5.25-.35,10.2,1.84,15a19.56,19.56,0,0,1-4.68-5.29,7.53,7.53,0,0,0,.39,4.12c2.33,8.42,7.61,14.39,14.53,19,5.68,3.77,12,5.74,18.54,6.94a7.12,7.12,0,0,1,2.3.28,60.82,60.82,0,0,1-9.56-.53,89.41,89.41,0,0,1-13.39-2.68,98.28,98.28,0,0,1-23-9.88,86.49,86.49,0,0,1-13.09-9.37,65.08,65.08,0,0,1-8.62-9.08,75.82,75.82,0,0,1-7.67-12.43c0-.11-.2-.16-.48-.38a25.36,25.36,0,0,0,.61,7.94,40.68,40.68,0,0,0,8.73,17.87,61.28,61.28,0,0,0,13.92,12.17,7.35,7.35,0,0,1,1.29,1,8.11,8.11,0,0,1-3.39-1.09,99.86,99.86,0,0,1-24.09-14.61,59.44,59.44,0,0,1-17.13-23,51.4,51.4,0,0,1-3.81-14.59c-.25-2.49-.52-5-.81-7.77a22.77,22.77,0,0,0-3.15,7.85,27.08,27.08,0,0,0-1,8.4c-4.54-4.43-7.29-28.1-5.08-39.73a69.65,69.65,0,0,1,18-35.74,12.55,12.55,0,0,0-5.7,1.27c-1.73.68-3.41,1.48-5.43,2.37a46.14,46.14,0,0,1,4.82-7.55,47.39,47.39,0,0,1,9.7-9.18,41.75,41.75,0,0,1,9.28-5.41c.89-.35,1.31-.79.92-1.82-1.63-4.33-1.83-8.88-1.79-13.47.06-6.41,1.64-12.51,3.26-18.61,2-7.52,6.84-17.67,3.24-24.44A29.91,29.91,0,0,0,85.68,81c.42-.45.61-.08.8.12,7,8,9.39,17.59,17.48,24.31a94,94,0,0,1,9.9,9.66,7.71,7.71,0,0,0,3.92,2.5,54,54,0,0,1,10.43,4.22c.38.19.72.6,1.37.32a37.1,37.1,0,0,0-4.13-3.63,31,31,0,0,1,7.78,1.68A57.44,57.44,0,0,1,150.1,129a2,2,0,0,0,2.44.17c4.6-2.33,9.27-4.51,13.88-6.8a13.63,13.63,0,0,0,7.22-7.62,15.39,15.39,0,0,0-.16-10.31c-.48-1.51-1.26-2.88-1.89-4.35a28.63,28.63,0,0,1,5.16,7.12,55.66,55.66,0,0,1,6.39,21.6,49.52,49.52,0,0,1-.2,12.46,1.32,1.32,0,0,1-.75,1.08c-1.4.83-2.77,1.72-4.21,2.45-1,.51-1.5.94-1.21,2.34,1.15,5.71,2.09,11.46,3.18,17.19.56,2.93,2.53,5.13,3.9,7.64.72,1.33,1.47,2.66,2.26,3.95a1,1,0,0,1-.27,1.57c-.88.7-2.24,1.34-2.43,2.22-.23,1.08.53,2.4.87,3.61s.6,2.23,1,3.32c.76,2.11,1.18,4-1,5.66-1.09.82-1.07,3-.34,4.28q4.32,7.28,8.67,14.52c1.13,1.88,1.06,2.92-.47,4.46a7.4,7.4,0,0,0-2.3,5.82,14.48,14.48,0,0,1-6.11,12.12,15.29,15.29,0,0,1-3.13,2.22,6.71,6.71,0,0,0-4,4.77,7.53,7.53,0,0,1-3.28,4.36c-1.49,1-2.89,2.14-4.38,3.13-3,2-6,1.61-9.08.22-3.78-1.72-7-4.39-10.58-6.54-2.85-1.73-5.66-3.55-8.49-5.32A85.73,85.73,0,0,0,128,229.68c-6.78-2.76-13.19-1.39-18.65,3a14,14,0,0,0-1.19.94l0,0a17.65,17.65,0,0,1,3-4.74,38,38,0,0,1,12.26-9.27,67.47,67.47,0,0,1,6.1-3.15,21.6,21.6,0,0,1-1.63-2.2c-.95-1.66-2.12-1.66-3.79-1.12-6.45,2.11-12.69,4.62-17.61,9.69a30.5,30.5,0,0,0-8.14,17.07c-.06.4,0,.35-.08.76S98.35,240.31,98.47,240.06ZM158.34,137.4a2.43,2.43,0,0,1-.32-.26c-.58-12.92-.07,0,.1.18l.29.32c.1.11.17.22.27.33l.28.37a3,3,0,0,0,.38.53,69.74,69.74,0,0,1,10.34,18.31c1.4,3.54,2.57,7.17,5.15,10a23,23,0,0,1,1.54,2.18,1.49,1.49,0,0,1,.32,1.16c-.26,1.62-.44,3.26-.66,4.89-.33,2.52-.67,5-1.06,8,2.66-2.55,5-4.84,7.39-7,1-.88,1-1.53.32-2.66-2.24-3.82-4.68-7.44-5.24-12.18a141.23,141.23,0,0,0-3.61-17.72,1.75,1.75,0,0,1,.94-2.31c1.58-.85,3.06-1.9,4.61-2.81a2.16,2.16,0,0,0,1.1-1.91,76.14,76.14,0,0,0-.17-14.71c-.37,4.09-.4,8.19-1,12.23a1.83,1.83,0,0,1-1,1.58c-2.28,1.16-4.51,2.45-6.81,3.57-1,.5-1.13,1.06-.77,2.1a110.51,110.51,0,0,1,3.47,12.52,17.06,17.06,0,0,1,.69,5c-1.69-3-3.37-6.06-5.31-8.91a65.61,65.61,0,0,0-10.31-12.09c-.13-.08-.17-.17-.3-.25-.52-.4-.07,0-.38-.3S158.68,137.69,158.34,137.4ZM75,179.85A77,77,0,0,1,98.51,169.3c1.54-.4,3.1-.73,4.94-1.17-3.47-2.22-7.1-3.51-10.33-6.16A46,46,0,0,0,106.35,159c8.13-3.34,14-9,16.88-17.81a9.94,9.94,0,0,0-1.56-9.84,51.87,51.87,0,0,0-3.8-4.56c-3.86-3.93-7.73-7.84-11.6-11.77L97,105.6l-.33-.32c-.1,0-1.4-1.57-1.49-1.61s1.3,1.67,1.35,1.77l.27.36c.27.38.52.77.82,1.13,5.92,7.2,11.91,14.34,17.73,21.64,2,2.44,2.9,4.78,2.37,8.06-1,6-3.17,11.27-7.52,15.39-6,5.67-13.24,7.76-21.08,8.25-.58,0-1.42-.38-1.6.69a1.79,1.79,0,0,0,.88,2c1.18.72,2.3,1.56,3.47,2.3s1.33,1.08,0,1.86c-2.43,1.43-4.79,3-7.12,4.61a82.84,82.84,0,0,0-11.1,8.61c-.16.16-1.18.9-.09.28m21.77-76.8c-.06-.07,0-.37-.22-.1l.24.07c0,.23.08.34.3.32l.14.5s.11,0,.12-.07a.36.36,0,0,0-.28-.4Zm-.58,85.49c.07-.07.2-.18.19-.19-.14-.22-.22-.07-.29.07l-.37.25a39.71,39.71,0,0,0-9.23,8.47c-10.54,13.35-14,28.34-9.24,45.11a35.12,35.12,0,0,0,4.79,10.75c.1.14.33.55.27.37s-.09-.26-.15-.47c-.15-.51-.28-1-.45-1.51-3.07-8.55-2.81-16.93,1.24-25.09,3.81-7.7,9.73-13.24,16.73-17.63,1.33-.83,2.7-1.6,4-2.4a43.64,43.64,0,0,0-10.14,3.19,68.89,68.89,0,0,0-9.69,5.41,38.49,38.49,0,0,1,10-17.48,52.36,52.36,0,0,1,16-11,41.43,41.43,0,0,0-4.19.85,50,50,0,0,0-11.81,5l-.21-.23c.52-1.21,1.67-1.91,2.26-3.06Zm49.47-51.16.23.11c.08.14.16.25.25.4s.15.25.24.37a68.36,68.36,0,0,1,6.72,10.79,45,45,0,0,1,4.05,11.29c-1.22-1.17-2.55-2.45-3.9-3.71a33.13,33.13,0,0,0-4.26-3.6c-1.54-1-3.08-2.06-4.68-3s-3.28-1.68-4.94-2.48a16.06,16.06,0,0,0-5-1.67,2.82,2.82,0,0,0,.87.91,82.83,82.83,0,0,1,10.68,9c1.64,1.6,2.68,3.22,2.54,5.73-.33,6.18,2,10.69,7.94,12.68a2,2,0,0,1,1.45,1.3c.95,3.74,3.58,5.21,6.94,5.74a5.51,5.51,0,0,1,.87.28c2.07.69,2.06.69,2.23-1.63a13.45,13.45,0,0,1,.19-1.42c.44-2.32.1-4.32-1.83-5.9-1-.81-1.68-2-2.63-2.87a3.07,3.07,0,0,1-.86-3c.75-4.58.25-8.85-2.69-12.57-.61-.77-1.07-1.67-1.62-2.5a65.06,65.06,0,0,0-11.88-13.57l-.33-.28c-.2-.16-.29-.22-.36-.27m-10,81.6c9.56,7.84,19.82,13.38,32.49,11.73l.12.12c-1.6,2.32-4,3-6.5,3.15-6.87.43-13-2.1-18.93-5.37-2.67-1.48-5.21-3.24-7.81-4.86a10.31,10.31,0,0,1-1.43-.85c-.29-.2-.4-.33-.67-.27,0-.23-.39,0-.59-.08a1.34,1.34,0,0,1,.42-.32c0,.23.23.25.42.26s.32.33.49.48c.66.09.48.24,1.2,1A10.3,10.3,0,0,0,135,226a61.12,61.12,0,0,0,9.66,6A46,46,0,0,0,161.37,237c6.07.47,11.31-2,16.29-5.27a1.56,1.56,0,0,0,.6-1.23c.49-3.64-1.29-7.08-4.59-8.21a9.47,9.47,0,0,1-6.23-6.63c-.77-2.43-2.12-3.37-4.59-3.35-1.52,0-3,.26-4.56.2a90.5,90.5,0,0,1-18.21-2.63l-7.31-1.8c10.25,4.47,20.59,8.59,31.52,10.82-10.67,2.4-19.53-2.89-28.6-7.43a76.91,76.91,0,0,0,8.77,5.38,90.11,90.11,0,0,0,9.45,4.42c3.13,1.23,6.39,2,9.61,3a15.77,15.77,0,0,1-5.29.76,37.34,37.34,0,0,1-16.67-5.07c-2.79-1.53-5.32-3.51-8-5.18-.62-.4-1-.78-1.44-1m-.06-.1c.51.17.76.78,1.31,1.35a40,40,0,0,0,6.84,5c5.83,3.65,12,6.46,18.77,7.46,1.93.28,3.87,0,6.1.19a8.48,8.48,0,0,1-5.35,1.86c-6.56.39-12.47-1.86-18.1-5.08-2.43-1.39-4.73-3-7.1-4.57-.38-.32-.93-.66-1-.88a.45.45,0,0,0-.62-.3m-73.55-9.92c.08-.11-.54-.3-.46-.41s.59,0,.54,0l-.06.43-.23.3s-.39-.37-.35-.34C58.79,208.56,59.3,208.86,59.32,208.72Zm66.84-66.64c2.11-4.46.33-12.75-3.46-16.18-.76-.74-.06.31,0,.41a20.4,20.4,0,0,1,3.45,15.78l0,0Zm15.57,32.53c-.07,0,.06,0,0,0s0-.06,0,0c.1,1.07,1,1.67,1.38,2.59,1.19,3.08,3.5,4.23,6.5,4.84,2.13.42,3.31-.41,4.56-1.87a12.64,12.64,0,0,0-1.65-1c-.77-.35-1.7-1.84-2.34.19,0,.1-.46.1-.71.1a2.66,2.66,0,0,1-3-2.13,1.94,1.94,0,0,0-1.26-1.64C144.05,175.34,142.89,175,141.73,174.61Zm-48.26-66.1a8.9,8.9,0,0,1,.7,1.2c3.43,6.86,6.88,14,11.91,19.88l-.18.19c-2.15-.2-4.12-1.28-6.29-1.4a2.46,2.46,0,0,0-.25-.22s-.06.05-.1.08l.36.13c.36.81,1.12,1.19,1.72,1.74,2.73,2.51,5.29,5.11,6.08,9.07.41,2-.29,3.86-.47,5.79l-.16.12s.07,0,.09,0,0-.08.05-.12a7,7,0,0,0,2.64-3c2-3.83,3.28-7.78.49-11.79q-7.44-10.7-14.52-21.65c-1.26-1.94-2.57-3.85-4.09-6.13a34.28,34.28,0,0,1-.54,5.16c-1.25,6.76-3,13.42-3.63,20.3-.49,5.26-.12,10.38,2.4,15.14,1.27,2.38,3.41,3,5.73,3.47-2.73-3-4.77-6.21-4.67-10.69,1.93,1.06,3.67,2.2,5.9,2.47a8.13,8.13,0,0,0-.32-.78c-3.13-5.88-4.08-12.26-4-18.88,0-.41-.15-1,.28-1.16s.66.38,1,.63A14.26,14.26,0,0,0,97,120.49c-.3-.71-.46-1.08-.61-1.46a46.18,46.18,0,0,1-3.11-10.85Zm65.82,78.17c0,.25,0,.37,0,.45A100.34,100.34,0,0,1,167.08,209a5.67,5.67,0,0,0,4.19,4.21,16.58,16.58,0,0,0,5.3.38c1.93,0,4-.24,5.66.82,2.42,1.59,4.56,1.19,6.83,0a4.37,4.37,0,0,1,.71-.28c1.9-.73,1.93-.75.83-2.59q-6.12-10.17-12.26-20.33c-.5-.83-1.07-1.6-1.7-2.55-.46,1.2.28,2.7-.53,3s-1.72-.86-2.59-1.37a5.81,5.81,0,0,1-.78-.51C168.75,186.35,164,186.85,159.29,186.68Zm-1.79,16.23c.5-6.09-.54-11.25-2.92-15.32a2.64,2.64,0,0,0-1.87-1.42c-2.9-.54-5.78-1.14-8.69-1.65a3,3,0,0,1-2.1-1.37c-2.12-3.24-4.29-6.46-6.46-9.66-.35-.51-.57-1.24-1.19-1.4-1.86-.5-3.74-.89-5.61-1.33a19.26,19.26,0,0,0,2.37,2.4c3.39,3.23,5.09,7.48,6.53,11.88a2.4,2.4,0,0,0,1.83,1.82c2.49.7,4.92,1.67,7.41,2.41a12.86,12.86,0,0,1,9.1,8.79C156.39,199.56,156.89,201.06,157.5,202.91Zm-36.65-16a12.87,12.87,0,0,0,5.33,1.7c-7.63-5.07-10.68-12-8.51-21.37-3.76,5.33-4.08,13-1,19.37,2.61,5.37,9.84,11.76,13.29,11.74C125.05,194,122.27,190.59,120.85,186.89ZM84.74,181c-7.91,1-23.53,17.84-25,27.13a58.68,58.68,0,0,1,10.57-15.78C74.58,187.86,79.69,184.47,84.74,181Zm94.38,53.06c4.35-2.5,8.41-6.64,8.21-9.86C182,227.51,178.54,231.14,179.12,234.07Zm2.55-50.74a6,6,0,0,0,0-1c-.07-.47.23-1.26-.45-1.3a1.32,1.32,0,0,0-1.28,1.14c-.15.9,0,2.14-1.39.89,0,0-.37.19-.43.35-.21.58-.5,1.14-1.32.83-.24-.09-.48.15-.51.45a5.29,5.29,0,0,0,2.14,2.25A3.84,3.84,0,0,0,181.67,183.33Zm.2,10.14a5.23,5.23,0,0,1,1.49-3.18c1-.9.68-1.67.06-2.69-.87.93-1.65,1.82-2.5,2.63a1,1,0,0,0-.15,1.51C181.09,192.2,181.38,192.69,181.87,193.47Zm-78.75,13.21s-.29.39-.32.39,0-.43,0-.4.08.1.11.09A1.29,1.29,0,0,0,103.12,206.68Z" transform="translate(-24.63 -80.49)"/><path class="cls-5" d="M98.47,240.06a26.67,26.67,0,0,1,8.11-11.91,9.7,9.7,0,0,1,2.8-1.86v0a3,3,0,0,1-.31.7,24.8,24.8,0,0,0-5.38,14.28,22.12,22.12,0,0,0,2,10.64c-.09-1.71-.27-3.41-.24-5.13.15-7.77,5.45-14.59,12.6-15.85,4.57-.8,9,.21,13.27,2a47.81,47.81,0,0,1,6.92,3.32,15.34,15.34,0,0,0-9.94,10.88c-1.47,5.25-.35,10.2,1.84,15a19.56,19.56,0,0,1-4.68-5.29,7.53,7.53,0,0,0,.39,4.12c2.33,8.42,7.61,14.39,14.53,19,5.68,3.77,12,5.74,18.54,6.94a7.12,7.12,0,0,1,2.3.28,60.82,60.82,0,0,1-9.56-.53,89.41,89.41,0,0,1-13.39-2.68,98.28,98.28,0,0,1-23-9.88,86.49,86.49,0,0,1-13.09-9.37,65.08,65.08,0,0,1-8.62-9.08,75.82,75.82,0,0,1-7.67-12.43c0-.11-.2-.16-.48-.38a25.36,25.36,0,0,0,.61,7.94,40.68,40.68,0,0,0,8.73,17.87,61.28,61.28,0,0,0,13.92,12.17,7.35,7.35,0,0,1,1.29,1,8.11,8.11,0,0,1-3.39-1.09,99.86,99.86,0,0,1-24.09-14.61,59.44,59.44,0,0,1-17.13-23,51.4,51.4,0,0,1-3.81-14.59c-.25-2.49-.52-5-.81-7.77a22.77,22.77,0,0,0-3.15,7.85,27.08,27.08,0,0,0-1,8.4c-4.54-4.43-7.29-28.1-5.08-39.73a69.65,69.65,0,0,1,18-35.74,12.55,12.55,0,0,0-5.7,1.27c-1.73.68-3.41,1.48-5.43,2.37a46.14,46.14,0,0,1,4.82-7.55,47.39,47.39,0,0,1,9.7-9.18,41.75,41.75,0,0,1,9.28-5.41c.89-.35,1.31-.79.92-1.82-1.63-4.33-1.83-8.88-1.79-13.47.06-6.41,1.64-12.51,3.26-18.61,2-7.52,6.84-17.67,3.24-24.44A29.91,29.91,0,0,0,85.68,81c.42-.45.61-.08.8.12,7,8,9.39,17.59,17.48,24.31a94,94,0,0,1,9.9,9.66,7.71,7.71,0,0,0,3.92,2.5,54,54,0,0,1,10.43,4.22c.38.19.72.6,1.37.32a37.1,37.1,0,0,0-4.13-3.63,31,31,0,0,1,7.78,1.68A57.44,57.44,0,0,1,150.1,129a2,2,0,0,0,2.44.17c4.6-2.33,9.27-4.51,13.88-6.8a13.63,13.63,0,0,0,7.22-7.62,15.39,15.39,0,0,0-.16-10.31c-.48-1.51-1.26-2.88-1.89-4.35a28.63,28.63,0,0,1,5.16,7.12,55.66,55.66,0,0,1,6.39,21.6,49.52,49.52,0,0,1-.2,12.46,1.32,1.32,0,0,1-.75,1.08c-1.4.83-2.77,1.72-4.21,2.45-1,.51-1.5.94-1.21,2.34,1.15,5.71,2.09,11.46,3.18,17.19.56,2.93,2.53,5.13,3.9,7.64.72,1.33,1.47,2.66,2.26,3.95a1,1,0,0,1-.27,1.57c-.88.7-2.24,1.34-2.43,2.22-.23,1.08.53,2.4.87,3.61s.6,2.23,1,3.32c.76,2.11,1.18,4-1,5.66-1.09.82-1.07,3-.34,4.28q4.32,7.28,8.67,14.52c1.13,1.88,1.06,2.92-.47,4.46a7.4,7.4,0,0,0-2.3,5.82,14.48,14.48,0,0,1-6.11,12.12,15.29,15.29,0,0,1-3.13,2.22,6.71,6.71,0,0,0-4,4.77,7.53,7.53,0,0,1-3.28,4.36c-1.49,1-2.89,2.14-4.38,3.13-3,2-6,1.61-9.08.22-3.78-1.72-7-4.39-10.58-6.54-2.85-1.73-5.66-3.55-8.49-5.32A85.73,85.73,0,0,0,128,229.68c-6.78-2.76-13.19-1.39-18.65,3a14,14,0,0,0-1.19.94l0,0a17.65,17.65,0,0,1,3-4.74,38,38,0,0,1,12.26-9.27,67.47,67.47,0,0,1,6.1-3.15,21.6,21.6,0,0,1-1.63-2.2c-.95-1.66-2.12-1.66-3.79-1.12-6.45,2.11-12.69,4.62-17.61,9.69a30.5,30.5,0,0,0-8.14,17.07c-.06.4,0,.35-.08.76S98.35,240.31,98.47,240.06ZM158.34,137.4a2.43,2.43,0,0,1-.32-.26c-.58-12.92-.07,0,.1.18l.29.32c.1.11.17.22.27.33l.28.37a3,3,0,0,0,.38.53,69.74,69.74,0,0,1,10.34,18.31c1.4,3.54,2.57,7.17,5.15,10a23,23,0,0,1,1.54,2.18,1.49,1.49,0,0,1,.32,1.16c-.26,1.62-.44,3.26-.66,4.89-.33,2.52-.67,5-1.06,8,2.66-2.55,5-4.84,7.39-7,1-.88,1-1.53.32-2.66-2.24-3.82-4.68-7.44-5.24-12.18a141.23,141.23,0,0,0-3.61-17.72,1.75,1.75,0,0,1,.94-2.31c1.58-.85,3.06-1.9,4.61-2.81a2.16,2.16,0,0,0,1.1-1.91,76.14,76.14,0,0,0-.17-14.71c-.37,4.09-.4,8.19-1,12.23a1.83,1.83,0,0,1-1,1.58c-2.28,1.16-4.51,2.45-6.81,3.57-1,.5-1.13,1.06-.77,2.1a110.51,110.51,0,0,1,3.47,12.52,17.06,17.06,0,0,1,.69,5c-1.69-3-3.37-6.06-5.31-8.91a65.61,65.61,0,0,0-10.31-12.09c-.13-.08-.17-.17-.3-.25-.52-.4-.07,0-.38-.3S158.68,137.69,158.34,137.4ZM75,179.85A77,77,0,0,1,98.51,169.3c1.54-.4,3.1-.73,4.94-1.17-3.47-2.22-7.1-3.51-10.33-6.16A46,46,0,0,0,106.35,159c8.13-3.34,14-9,16.88-17.81a9.94,9.94,0,0,0-1.56-9.84,51.87,51.87,0,0,0-3.8-4.56c-3.86-3.93-7.73-7.84-11.6-11.77L97,105.6l-.33-.32c-.1,0-1.4-1.57-1.49-1.61s1.3,1.67,1.35,1.77l.27.36c.27.38.52.77.82,1.13,5.92,7.2,11.91,14.34,17.73,21.64,2,2.44,2.9,4.78,2.37,8.06-1,6-3.17,11.27-7.52,15.39-6,5.67-13.24,7.76-21.08,8.25-.58,0-1.42-.38-1.6.69a1.79,1.79,0,0,0,.88,2c1.18.72,2.3,1.56,3.47,2.3s1.33,1.08,0,1.86c-2.43,1.43-4.79,3-7.12,4.61a82.84,82.84,0,0,0-11.1,8.61c-.16.16-1.18.9-.09.28m21.77-76.8c-.06-.07,0-.37-.22-.1l.24.07c0,.23.08.34.3.32l.14.5s.11,0,.12-.07a.36.36,0,0,0-.28-.4Zm-.58,85.49c.07-.07.2-.18.19-.19-.14-.22-.22-.07-.29.07l-.37.25a39.71,39.71,0,0,0-9.23,8.47c-10.54,13.35-14,28.34-9.24,45.11a35.12,35.12,0,0,0,4.79,10.75c.1.14.33.55.27.37s-.09-.26-.15-.47c-.15-.51-.28-1-.45-1.51-3.07-8.55-2.81-16.93,1.24-25.09,3.81-7.7,9.73-13.24,16.73-17.63,1.33-.83,2.7-1.6,4-2.4a43.64,43.64,0,0,0-10.14,3.19,68.89,68.89,0,0,0-9.69,5.41,38.49,38.49,0,0,1,10-17.48,52.36,52.36,0,0,1,16-11,41.43,41.43,0,0,0-4.19.85,50,50,0,0,0-11.81,5l-.21-.23c.52-1.21,1.67-1.91,2.26-3.06Zm49.47-51.16.23.11c.08.14.16.25.25.4s.15.25.24.37a68.36,68.36,0,0,1,6.72,10.79,45,45,0,0,1,4.05,11.29c-1.22-1.17-2.55-2.45-3.9-3.71a33.13,33.13,0,0,0-4.26-3.6c-1.54-1-3.08-2.06-4.68-3s-3.28-1.68-4.94-2.48a16.06,16.06,0,0,0-5-1.67,2.82,2.82,0,0,0,.87.91,82.83,82.83,0,0,1,10.68,9c1.64,1.6,2.68,3.22,2.54,5.73-.33,6.18,2,10.69,7.94,12.68a2,2,0,0,1,1.45,1.3c.95,3.74,3.58,5.21,6.94,5.74a5.51,5.51,0,0,1,.87.28c2.07.69,2.06.69,2.23-1.63a13.45,13.45,0,0,1,.19-1.42c.44-2.32.1-4.32-1.83-5.9-1-.81-1.68-2-2.63-2.87a3.07,3.07,0,0,1-.86-3c.75-4.58.25-8.85-2.69-12.57-.61-.77-1.07-1.67-1.62-2.5a65.06,65.06,0,0,0-11.88-13.57l-.33-.28c-.2-.16-.29-.22-.36-.27m-10,81.6c9.56,7.84,19.82,13.38,32.49,11.73l.12.12c-1.6,2.32-4,3-6.5,3.15-6.87.43-13-2.1-18.93-5.37-2.67-1.48-5.21-3.24-7.81-4.86a10.31,10.31,0,0,1-1.43-.85c-.29-.2-.4-.33-.67-.27,0-.23-.39,0-.59-.08a1.34,1.34,0,0,1,.42-.32c0,.23.23.25.42.26s.32.33.49.48c.66.09.48.24,1.2,1A10.3,10.3,0,0,0,135,226a61.12,61.12,0,0,0,9.66,6A46,46,0,0,0,161.37,237c6.07.47,11.31-2,16.29-5.27a1.56,1.56,0,0,0,.6-1.23c.49-3.64-1.29-7.08-4.59-8.21a9.47,9.47,0,0,1-6.23-6.63c-.77-2.43-2.12-3.37-4.59-3.35-1.52,0-3,.26-4.56.2a90.5,90.5,0,0,1-18.21-2.63l-7.31-1.8c10.25,4.47,20.59,8.59,31.52,10.82-10.67,2.4-19.53-2.89-28.6-7.43a76.91,76.91,0,0,0,8.77,5.38,90.11,90.11,0,0,0,9.45,4.42c3.13,1.23,6.39,2,9.61,3a15.77,15.77,0,0,1-5.29.76,37.34,37.34,0,0,1-16.67-5.07c-2.79-1.53-5.32-3.51-8-5.18-.62-.4-1-.78-1.44-1m-.06-.1c.51.17.76.78,1.31,1.35a40,40,0,0,0,6.84,5c5.83,3.65,12,6.46,18.77,7.46,1.93.28,3.87,0,6.1.19a8.48,8.48,0,0,1-5.35,1.86c-6.56.39-12.47-1.86-18.1-5.08-2.43-1.39-4.73-3-7.1-4.57-.38-.32-.93-.66-1-.88a.45.45,0,0,0-.62-.3m-73.55-9.92c.08-.11-.54-.3-.46-.41s.59,0,.54,0l-.06.43-.23.3s-.39-.37-.35-.34C58.79,208.56,59.3,208.86,59.32,208.72Zm66.84-66.64c2.11-4.46.33-12.75-3.46-16.18-.76-.74-.06.31,0,.41a20.4,20.4,0,0,1,3.45,15.78l0,0Zm15.57,32.53c-.07,0,.06,0,0,0s0-.06,0,0c.1,1.07,1,1.67,1.38,2.59,1.19,3.08,3.5,4.23,6.5,4.84,2.13.42,3.31-.41,4.56-1.87a12.64,12.64,0,0,0-1.65-1c-.77-.35-1.7-1.84-2.34.19,0,.1-.46.1-.71.1a2.66,2.66,0,0,1-3-2.13,1.94,1.94,0,0,0-1.26-1.64C144.05,175.34,142.89,175,141.73,174.61Zm-48.26-66.1a8.9,8.9,0,0,1,.7,1.2c3.43,6.86,6.88,14,11.91,19.88l-.18.19c-2.15-.2-4.12-1.28-6.29-1.4a2.46,2.46,0,0,0-.25-.22s-.06.05-.1.08l.36.13c.36.81,1.12,1.19,1.72,1.74,2.73,2.51,5.29,5.11,6.08,9.07.41,2-.29,3.86-.47,5.79l-.16.12s.07,0,.09,0,0-.08.05-.12a7,7,0,0,0,2.64-3c2-3.83,3.28-7.78.49-11.79q-7.44-10.7-14.52-21.65c-1.26-1.94-2.57-3.85-4.09-6.13a34.28,34.28,0,0,1-.54,5.16c-1.25,6.76-3,13.42-3.63,20.3-.49,5.26-.12,10.38,2.4,15.14,1.27,2.38,3.41,3,5.73,3.47-2.73-3-4.77-6.21-4.67-10.69,1.93,1.06,3.67,2.2,5.9,2.47a8.13,8.13,0,0,0-.32-.78c-3.13-5.88-4.08-12.26-4-18.88,0-.41-.15-1,.28-1.16s.66.38,1,.63A14.26,14.26,0,0,0,97,120.49c-.3-.71-.46-1.08-.61-1.46a46.18,46.18,0,0,1-3.11-10.85Zm65.82,78.17c0,.25,0,.37,0,.45A100.34,100.34,0,0,1,167.08,209a5.67,5.67,0,0,0,4.19,4.21,16.58,16.58,0,0,0,5.3.38c1.93,0,4-.24,5.66.82,2.42,1.59,4.56,1.19,6.83,0a4.37,4.37,0,0,1,.71-.28c1.9-.73,1.93-.75.83-2.59q-6.12-10.17-12.26-20.33c-.5-.83-1.07-1.6-1.7-2.55-.46,1.2.28,2.7-.53,3s-1.72-.86-2.59-1.37a5.81,5.81,0,0,1-.78-.51C168.75,186.35,164,186.85,159.29,186.68Zm-1.79,16.23c.5-6.09-.54-11.25-2.92-15.32a2.64,2.64,0,0,0-1.87-1.42c-2.9-.54-5.78-1.14-8.69-1.65a3,3,0,0,1-2.1-1.37c-2.12-3.24-4.29-6.46-6.46-9.66-.35-.51-.57-1.24-1.19-1.4-1.86-.5-3.74-.89-5.61-1.33a19.26,19.26,0,0,0,2.37,2.4c3.39,3.23,5.09,7.48,6.53,11.88a2.4,2.4,0,0,0,1.83,1.82c2.49.7,4.92,1.67,7.41,2.41a12.86,12.86,0,0,1,9.1,8.79C156.39,199.56,156.89,201.06,157.5,202.91Zm-36.65-16a12.87,12.87,0,0,0,5.33,1.7c-7.63-5.07-10.68-12-8.51-21.37-3.76,5.33-4.08,13-1,19.37,2.61,5.37,9.84,11.76,13.29,11.74C125.05,194,122.27,190.59,120.85,186.89ZM84.74,181c-7.91,1-23.53,17.84-25,27.13a58.68,58.68,0,0,1,10.57-15.78C74.58,187.86,79.69,184.47,84.74,181Zm94.38,53.06c4.35-2.5,8.41-6.64,8.21-9.86C182,227.51,178.54,231.14,179.12,234.07Zm2.55-50.74a6,6,0,0,0,0-1c-.07-.47.23-1.26-.45-1.3a1.32,1.32,0,0,0-1.28,1.14c-.15.9,0,2.14-1.39.89,0,0-.37.19-.43.35-.21.58-.5,1.14-1.32.83-.24-.09-.48.15-.51.45a5.29,5.29,0,0,0,2.14,2.25A3.84,3.84,0,0,0,181.67,183.33Zm.2,10.14a5.23,5.23,0,0,1,1.49-3.18c1-.9.68-1.67.06-2.69-.87.93-1.65,1.82-2.5,2.63a1,1,0,0,0-.15,1.51C181.09,192.2,181.38,192.69,181.87,193.47Zm-78.75,13.21s-.29.39-.32.39,0-.43,0-.4.08.1.11.09A1.29,1.29,0,0,0,103.12,206.68Z" transform="translate(-24.63 -80.49)"/><path class="cls-6" d="M115.85,265.71h-1.78q-42.48,0-84.95,0c-1.38,0-1.75-.35-1.75-1.81q.06-68.48,0-136.93c0-1.37.26-1.76,1.63-1.75q15.7.1,31.42,0c1.29,0,1.56.35,1.56,1.65q-.06,50.54-.07,101.07c0,1.51.31,1.92,1.81,1.91,9.25-.08,18.5,0,27.75,0a1.89,1.89,0,0,1,1.94.86q11,17.13,22,34.21c.1.17.18.35.42.8" transform="translate(-24.63 -80.49)"/><path class="cls-6" d="M158.07,125.35c-9.51,0-19,0-28.52,0a1.84,1.84,0,0,0-1.67,1.07q-15.69,24.17-31.43,48.31a1.69,1.69,0,0,0,0,2.21c2.58,3.94,5.09,7.92,7.63,11.89l24.31,38c.38.6.66,1.2,1.59,1.19,9.71,0,19.42,0,29.24,0a6,6,0,0,0-.78-1.67q-15.7-24.45-31.44-48.88a2.23,2.23,0,0,1,0-2.9c10.34-15.81,20.51-31.69,30.8-47.54l1-1.6Z" transform="translate(-24.63 -80.49)"/><path class="cls-6" d="M62.68,125.35h5.4c7.77,0,15.54,0,23.32,0a2.18,2.18,0,0,1,2.12,1.1c3.27,4.92,6.61,9.8,9.94,14.68a1.49,1.49,0,0,1,.1,1.92q-7.09,10.72-14.07,21.56c-.54.84-.77,1-1.4,0Q75.55,145.44,63,126.3a1.05,1.05,0,0,1-.28-1" transform="translate(-24.63 -80.49)"/><path class="cls-6" d="M62.6,227.94a2,2,0,0,1,.57-1.42q7.45-11.64,14.9-23.28a1.82,1.82,0,0,1,1.68-1.06c9.55,0,19.11,0,28.66,0,.14,0,.27,0,.43,0a2.73,2.73,0,0,1-.51,1.33q-7.45,11.66-14.92,23.27c-.39.61-.71,1.16-1.62,1.15-9.7,0-19.41,0-29.19,0" transform="translate(-24.63 -80.49)"/><path class="cls-7" d="M113.11,265.72h-1.78q-42.48,0-84.95,0c-1.38,0-1.75-.34-1.75-1.81q.06-68.46,0-136.93c0-1.36.26-1.76,1.64-1.75q15.71.1,31.42,0c1.29,0,1.56.34,1.56,1.65q-.06,50.54-.07,101.06c0,1.52.31,1.93,1.8,1.92,9.26-.09,18.51,0,27.76-.05a1.9,1.9,0,0,1,1.94.85q11,17.13,22,34.22c.1.16.18.34.42.8" transform="translate(-24.63 -80.49)"/><path class="cls-7" d="M155.33,125.35c-9.51,0-19,0-28.52,0a1.8,1.8,0,0,0-1.67,1.07q-15.69,24.16-31.43,48.31a1.67,1.67,0,0,0,.05,2.2c2.57,3.94,5.09,7.93,7.63,11.9l24.31,38c.38.6.66,1.19,1.59,1.19,9.71,0,19.42,0,29.24,0a6.25,6.25,0,0,0-.78-1.67Q140,201.82,124.31,177.4a2.23,2.23,0,0,1,0-2.9c10.34-15.81,20.51-31.7,30.8-47.55l1-1.6Z" transform="translate(-24.63 -80.49)"/><path class="cls-7" d="M59.93,125.35h5.41c7.77,0,15.54,0,23.32,0a2.19,2.19,0,0,1,2.12,1.11c3.27,4.92,6.6,9.8,9.94,14.68a1.48,1.48,0,0,1,.09,1.92q-7.09,10.72-14.06,21.55c-.54.85-.78,1-1.4,0Q72.81,145.45,60.22,126.3a1.07,1.07,0,0,1-.29-1" transform="translate(-24.63 -80.49)"/><path class="cls-7" d="M59.86,227.94a1.94,1.94,0,0,1,.57-1.41q7.46-11.65,14.9-23.28A1.81,1.81,0,0,1,77,202.19c9.55,0,19.11,0,28.66,0h.43a2.72,2.72,0,0,1-.52,1.33q-7.44,11.64-14.91,23.27c-.39.61-.71,1.15-1.62,1.15-9.7,0-19.41,0-29.19,0" transform="translate(-24.63 -80.49)"/><path class="cls-7" d="M300,185.46c-1,0-1.2-.59-1.5-1.17-2.25-4.27-4.45-8.57-6.68-12.85-.54-1.05-1.1-2-1.56-3.17l-2.46-4.69c-.28,9.32-.32,18.47-.24,27.63,0,1.37-.4,1.79-1.59,1.65-2.15-.07-2.15-.07-2.15-2.27q0-16.65,0-33.3c0-.57,0-1.42.6-1.61a3.73,3.73,0,0,1,3.31.74,8.8,8.8,0,0,1,.9,1.42c3.77,7.42,7.55,14.83,11.45,22.49.38-.74.59-1.15.81-1.56,1.72-3.5,3.43-7,5.16-10.51,1.87-3.77,3.85-7.49,5.58-11.34.89-2,2.38-1.32,3.67-1.29s.55,1.41.87,2.12c0,11.13-.05,22.26,0,33.39,0,1.27-.25,1.9-1.54,1.73-2.24-.09-2.24-.09-2.24-2.52l0-19.45v-7.39c-.5.1-.52.54-.68.84q-4.65,9.21-9.28,18.45c-1.21,2.6-1.21,2.62-2.41,2.66" transform="translate(-24.63 -80.49)"/><path class="cls-7" d="M221.19,192.07a11.73,11.73,0,0,1-5.91-10.26c-.17-4.87-.17-9.77,0-14.64.17-6,3.63-11,9.67-11.76a32.86,32.86,0,0,1,10.88.25,9.77,9.77,0,0,1,6.54,4.85,17.69,17.69,0,0,1,1.36,4.59c.27,1.64-.11,2-1.68,2s-1.82-.25-2.11-2a9.87,9.87,0,0,0-1.55-3.54,5.48,5.48,0,0,0-3.65-2.59c-2.39-.65-4.84-.28-7.27-.3-4.44-.05-7.67,2.8-8.25,7.39a94.8,94.8,0,0,0-.17,15.07c.1,2.65.88,5.22,3.26,6.82a5,5,0,0,0,3.82,1.66q3.12.09,6.24,0c4.27-.07,7.38-3,7.89-7.45a27.05,27.05,0,0,0,.06-2.85c.1-2.79,0-2.21-2-2.24-1.88,0-3.76,0-5.63,0a2.3,2.3,0,0,1-.45,0c-.55-.13-1.42.37-1.6-.38a7.48,7.48,0,0,1,0-2.83c.07-.46.7-.26,1.08-.26h10.17c2.12,0,2.12,0,2.28,2.19-.06,2.16-.06,4.33-.19,6.5-.33,5.21-3.72,9.67-8.65,10.49-4.67.77-9.47,1-14.08-.78" transform="translate(-24.63 -80.49)"/><path class="cls-7" d="M330.31,172l14.09,0c2.21,0,2.21,0,2.37,2.24.1,1.12-.52,1.25-1.41,1.24-5.24,0-10.47,0-15.7-.05-1.3,0-1.62.4-1.59,1.7.08,3.35,0,6.69,0,10,0,2.19,0,2.19,2.19,2l15.77.08c2.1,0,2.1,0,2.21,2.17.12,1.06-.36,1.3-1.32,1.29-6.77,0-13.55,0-20.32,0-1.84-.4-2.38-1.85-2.38-3.45,0-10.82,0-21.65,0-32.48,0-1.21.43-1.34,1.4-1.33,6.81,0,13.61,0,20.42,0,2.12,0,2.12,0,2.24,2.17.12,1.08-.39,1.3-1.34,1.3-5.74,0-11.48,0-17.23-.06-1.4,0-1.68.44-1.64,1.79.09,3,0,6.05,0,9.08,0,2.3,0,2.3,2.21,2.18" transform="translate(-24.63 -80.49)"/><path class="cls-7" d="M250.91,192.85h-3c1.42-3.75,2.81-7.34,4.15-10.94.9-2.4,1.72-4.83,2.61-7.24,1.69-4.6,3.4-9.2,5.09-13.8.46-1.25.84-2.53,1.37-3.74.27-.63.41-1.29,1.4-1.55,1.28-.12,2.49-.24,3.14,1.15.18.4.32.92.51,1.39s.31,1,.49,1.5c2.76,7.56,5.48,15.12,8.24,22.67,1.26,3.45,2.52,6.93,3.85,10.59h-2.42c-1.48,0-1.88-.63-2.23-1.92-.6-2.16-1.46-4.23-2.22-6.33-.2-1.67-1-2.19-2.68-2.13-4.05.15-8.12.1-12.18,0a1.75,1.75,0,0,0-2,1.44c-.83,2.56-1.77,5.08-2.64,7.62-.26.74-.54,1.39-1.46,1.27m8.89-13.76h10.11c-.35-1-.64-2-1-2.89-1.45-3.76-2.51-7.68-4-11.41-.56-1.38-.91-2.52-1.61-3.91-1.88,5.26-3.71,10.33-5.52,15.41C256.71,179.26,256.72,179.27,259.8,179.09Z" transform="translate(-24.63 -80.49)"/><path class="cls-7" d="M333.65,229.15c-2.73-1.35-3.75-3.51-3.33-7.07A60.47,60.47,0,0,1,332,213a6.77,6.77,0,0,1,5.49-5.27,20.68,20.68,0,0,1,5.77-.17,6,6,0,0,1,4.89,3.24,11.64,11.64,0,0,1,.14,5c-.46,2.27-.75,4.58-1.24,6.84-1,4.48-3.75,6.74-8.12,6.78a31.07,31.07,0,0,1-5.28-.31m.35-2.63c1.48,1.38,3.28.78,4.95.81a5.44,5.44,0,0,0,5.88-4.62c.62-2.72,1-5.5,1.4-8.27a3.68,3.68,0,0,0-1-3.5,2.5,2.5,0,0,0-2.29-1.27c-1.11,0-2.23-.06-3.34,0-3.05,0-5,1.51-5.69,4.64-.61,2.72-1.1,5.48-1.45,8.25C332.31,224,332.52,225.59,334,226.52Z" transform="translate(-24.63 -80.49)"/><path class="cls-7" d="M291.51,229.19c-1.2-.23-1.48-.9-1.26-2.17.71-4,1.25-8,1.92-12,.35-2.12.81-4.21,1.22-6.32.09-.47.15-1,.8-.92,3.28.17,6.57-.31,9.85.3,1.8.33,2.9,1.55,4,2.91a16.5,16.5,0,0,1,.26,3.14c-.47,2.72-.86,5.45-1.43,8.13-1,4.81-3.6,6.9-8.31,6.91l-7,0m2.82-2c1.51,0,3,0,4.55,0,3.2-.1,5.11-1.68,5.78-5,.55-2.69.95-5.4,1.35-8.11a3.08,3.08,0,0,0-.75-2.79,3,3,0,0,0-2.85-1.47c-2.07-.13-4.15,0-6.23-.08-.77,0-.88.49-1,1.12-.8,4.84-1.66,9.67-2.42,14.51C292.46,227.45,292.18,227.17,294.33,227.15Z" transform="translate(-24.63 -80.49)"/><path class="cls-7" d="M218.07,228.76c-1.8-.76-2.23-2.5-2.21-4.4,0-.77.06-1.26,1-1.28s1.17.34,1.16,1.26a3.27,3.27,0,0,0,1.25,2.69,1.89,1.89,0,0,0,1,.24,20.51,20.51,0,0,0,5.48-.05c2.45-.47,3.88-3,2.95-6.06-.11-.86-.81-1.08-1.42-1.2-2.26-.46-4.55-.82-6.83-1.22-2.27-.8-3.23-2.82-2.67-5.68.79-4.07,2.82-5.34,6.27-5.53,1.11-.07,2.23,0,3.34,0a5.34,5.34,0,0,1,5.19,2.89c.23,1,.71,2.71-1.2,3.11-.85,0-1,0-1-.91a7.21,7.21,0,0,0-.34-1.76,1.36,1.36,0,0,0-1.1-1,14.48,14.48,0,0,0-6.77.21c-1.81.62-2,2.41-2.2,4a2.1,2.1,0,0,0,1.35,2.39c2,.95,4.25.93,6.36,1.47a5.74,5.74,0,0,1,3.7,2.68,12.39,12.39,0,0,1-.5,4.37,5.13,5.13,0,0,1-4.25,4.18,19,19,0,0,1-8.53-.4" transform="translate(-24.63 -80.49)"/><path class="cls-7" d="M267.8,226.48a9.11,9.11,0,0,0,1,.53c2.36.45,4.81,1,7.11-.65a6.09,6.09,0,0,0,2.17-4.2c.85-4.41,1.51-8.86,2.17-13.31.18-1.17.88-1,1.63-1.07,1.13-.08.63.79.76,1.29-.11.46-.24.92-.32,1.38-.71,4.17-1.38,8.34-2.14,12.49s-3.43,6.48-7.57,6.52a23,23,0,0,1-5.43-.41,5,5,0,0,1-2.8-4.63c-.1-3.38.91-6.6,1.33-9.91.22-1.77.66-3.51.81-5.3.06-.69.29-1.42,1.37-1.47s1.09.53,1.14,1.27c-.83,4.79-1.71,9.57-2.44,14.38a2.9,2.9,0,0,0,1.17,3.09" transform="translate(-24.63 -80.49)"/><path class="cls-8" d="M222.31,188.07c-2.37-1.6-3.15-4.18-3.25-6.82a93.6,93.6,0,0,1,.17-15.07c.58-4.59,3.81-7.44,8.25-7.39,2.43,0,4.88-.36,7.27.29a5.55,5.55,0,0,1,3.65,2.6c-2.82-.89-5.72-.69-8.6-.68-4.82,0-8.25,3.26-8.43,8.3-.16,4.87,0,9.76,0,14.64a12.92,12.92,0,0,0,.9,4.13" transform="translate(-24.63 -80.49)"/><path class="cls-8" d="M221.19,192.07c4.61,1.81,9.41,1.55,14.08.78,4.93-.82,8.32-5.28,8.65-10.49.13-2.17.13-4.34.19-6.5.46,0,.91.09,1.36.09s.86.18.85.82c-.06,3.94.32,7.92-1.17,11.73a11,11,0,0,1-9.13,6.62c-3.65.25-7.27.78-10.69-.09-1.64-.42-3.43-1-4.14-3" transform="translate(-24.63 -80.49)"/><path class="cls-8" d="M314.69,192.85c1.29.17,1.54-.46,1.54-1.73,0-11.13,0-22.26,0-33.39,2.17.07,2.17.07,2.17,2.35q0,16.32,0,32.65c0,1,.66,2.45-1.39,2.35-2.23-.12-2.23,0-2.3-2.23" transform="translate(-24.63 -80.49)"/><path class="cls-8" d="M286,192.86c1.19.15,1.59-.31,1.57-1.68-.07-9.15,0-18.31.25-27.63.82,1.57,1.63,3.16,2.45,4.72A2.48,2.48,0,0,0,290,170c0,7.69,0,15.38,0,23.08,0,.93.38,2-1.29,2-3.08-.11-2.53.1-2.61-1.91,0-.11,0-.18,0-.29" transform="translate(-24.63 -80.49)"/><path class="cls-8" d="M330.31,172c-2.21.12-2.21.12-2.21-2.18,0-3,.06-6.06,0-9.08,0-1.35.24-1.81,1.64-1.79,5.75.09,11.49,0,17.23.06.95,0,1.46-.22,1.34-1.3,1,.15,2.24-.51,2.21,1.56,0,1.64-.46,2-2,2-5.63-.09-11.26,0-16.88-.06-1.07,0-1.4.32-1.37,1.44.07,3.12,0,6.25,0,9.37" transform="translate(-24.63 -80.49)"/><path class="cls-7" d="M246.65,229.2l-1.4-.07c1-6.09,2.06-12.13,3.09-18.17,0-.46.36-1.19-.3-1.19-1.61,0-3.25,0-4.73.07,0,0-1.15,0-1.19-1s.57-1.08,1.25-1.08c4.36,0,8.71,0,13.06,0,1,0,1.21.38,1,1.27s-.61.71-1.13.7c-1,0-1.93,0-2.89,0-3.3.07-2.45-.54-3.06,2.84-.92,5-1.71,10.11-2.58,15.16-.11.65,0,1.49-1.12,1.48" transform="translate(-24.63 -80.49)"/><path class="cls-8" d="M300.14,185.45c1.21.06,1.76-1.52,2.32-2.66q4.64-9.24,9.29-18.46c.15-.29.17-.74.67-.83v7.39c-.72-.24-.82.41-1,.84q-3.36,6.65-6.69,13.3a4.33,4.33,0,0,1-.66,1.24c-1.22,1.18-1.83,1.44-3.33,0a2.48,2.48,0,0,1-.56-.84" transform="translate(-24.63 -80.49)"/><path class="cls-8" d="M330.29,189.29c-2.19.14-2.19.14-2.19-2,0-3.35,0-6.69,0-10,0-1.3.29-1.72,1.59-1.7,5.23.08,10.46,0,15.7.05.89,0,1.51-.12,1.41-1.24,1.14,0,2.28-.34,2.19,1.7-.06,1.52-.51,1.82-1.84,1.8-5.12-.07-10.25,0-15.37-.05-1.12,0-1.5.29-1.48,1.5.08,3.34,0,6.68,0,10" transform="translate(-24.63 -80.49)"/><path class="cls-8" d="M250.91,192.85c.92.12,1.2-.53,1.46-1.27.87-2.54,1.81-5.06,2.64-7.62a1.75,1.75,0,0,1,2-1.44c4.06.08,8.13.13,12.18,0,1.65-.06,2.48.46,2.68,2.13-3.63.38-7.27.1-10.91.16-3.29.05-3.28,0-4.37,3.23-.66,1.94-1.39,3.84-2,5.79-.3.95-.75,1.2-1.74,1.25-.84,0-1.69,0-2.64,0,.27-.82.5-1.51.73-2.19" transform="translate(-24.63 -80.49)"/><path class="cls-8" d="M276.25,192.88h2.46c-1.33-3.66-2.59-7.11-3.85-10.56-2.76-7.55-5.47-15.11-8.23-22.67-.18-.49-.35-1-.49-1.5,1.08,0,1.56.86,1.89,1.76q5.33,14.47,10.6,29,1.08,3,2.14,5.91c-2.88.07-3.92.48-4.52-1.91" transform="translate(-24.63 -80.49)"/><path class="cls-8" d="M326.63,192.8c6.77,0,13.55,0,20.32,0,1,0,1.44-.23,1.32-1.29.85.24,2.27-.66,2.18,1.39s0,2.11-2.07,2.11c-6.17,0-12.34,0-18.52,0a3.09,3.09,0,0,1-3.23-2.25" transform="translate(-24.63 -80.49)"/><path class="cls-7" d="M317.74,229.21c-1.34.06-1.64-.36-1.27-1.85.64-2.57.93-5.25,1.36-7.88s.78-5.46,1.36-8.15c.18-.84.3-1.75.4-2.56.2-1.63,1.21-.89,1.85-.94,1.08-.08.26.85.48,1.26q-1.62,9.41-3.23,18.8c-.11.63-.08,1.31-.95,1.32" transform="translate(-24.63 -80.49)"/><path class="cls-8" d="M291.51,229.19l7,0c4.71,0,7.28-2.1,8.31-6.91.57-2.68,1-5.41,1.43-8.13A16.5,16.5,0,0,0,308,211c1.62,1.24,1.71,3.06,1.46,4.85-.38,2.75-.9,5.49-1.48,8.2-.89,4.15-3.61,6.37-7.69,6.4-2.33,0-4.66,0-7,0-.92,0-1.58-.24-1.8-1.26" transform="translate(-24.63 -80.49)"/><path class="cls-8" d="M267.1,229a21.16,21.16,0,0,0,5.55.47c4.14,0,6.78-2.25,7.57-6.52s1.43-8.32,2.14-12.49c.08-.46.21-.92.32-1.38,1-.14,1.34.27,1.14,1.36q-1.23,6.67-2.35,13.35c-.77,4.63-3.54,7.08-8,7-2,0-3.95.45-5.79-1a3.58,3.58,0,0,1-.56-.79" transform="translate(-24.63 -80.49)"/><path class="cls-8" d="M333.65,229.15a31.07,31.07,0,0,0,5.28.31c4.37,0,7.14-2.3,8.12-6.78.49-2.26.78-4.57,1.24-6.84a11.64,11.64,0,0,0-.14-5c1.77,1.24,1.82,3.16,1.59,5-.35,2.75-.94,5.47-1.46,8.2-.72,3.77-3.72,7-8.13,6.71-1.65-.12-3.35.29-4.95-.36-.6-.24-1.45-.26-1.55-1.23" transform="translate(-24.63 -80.49)"/><path class="cls-8" d="M246.65,229.2c1,0,1-.83,1.12-1.48.87-5.05,1.66-10.12,2.58-15.16.61-3.38-.24-2.77,3.06-2.84,1,0,1.92,0,2.89,0,.52,0,1,.05,1.13-.7,0,0,1.24-.27,1.24.75,0,.87-.34,1.31-1.3,1.24-1.46-.09-2.94,0-4.41,0-.48,0-1-.12-1.11.7-.89,5.54-1.79,11.08-2.78,16.6-.14.8,0,2.13-1.32,2.18-1,0-1.26-.29-1.1-1.27" transform="translate(-24.63 -80.49)"/><path class="cls-8" d="M317.74,229.21c.87,0,.84-.69.95-1.32q1.6-9.4,3.23-18.8c1-.11,1.42,0,1.17,1.36-1.15,6.31-2.18,12.65-3.15,19-.22,1.45-1.11,1-1.8,1-1.05,0-.59-.68-.4-1.2" transform="translate(-24.63 -80.49)"/><path class="cls-8" d="M218.07,228.76a18.94,18.94,0,0,0,8.53.4,5.13,5.13,0,0,0,4.25-4.18,12.39,12.39,0,0,0,.5-4.37,2.14,2.14,0,0,1,1.23,1.81c0,4.54-1.25,8.1-6.58,8.3-1.42.06-2.85.05-4.27,0a4.49,4.49,0,0,1-3.66-2" transform="translate(-24.63 -80.49)"/><path class="cls-8" d="M300.94,178.76c-.21.41-.42.82-.81,1.56l-11.44-22.49c.82-.23,1.16.29,1.5.95q4.88,9.48,9.8,18.93c.22.42.33.91.95,1" transform="translate(-24.63 -80.49)"/><path class="cls-8" d="M267.8,226.48a2.9,2.9,0,0,1-1.17-3.09c.73-4.81,1.61-9.59,2.44-14.38,1.31-.11,1.19.83,1.06,1.66-.6,3.72-1.2,7.44-1.88,11.15a17.81,17.81,0,0,0-.45,4.66" transform="translate(-24.63 -80.49)"/><path class="cls-8" d="M221.29,216.46a2.1,2.1,0,0,1-1.35-2.39c.22-1.62.39-3.41,2.2-4a14.48,14.48,0,0,1,6.77-.21,1.36,1.36,0,0,1,1.1,1,20,20,0,0,1-4.09.15c-3.36,0-4.53,1.14-4.62,4.69,0,.26,0,.53,0,.79" transform="translate(-24.63 -80.49)"/><path class="cls-8" d="M242,167.14c1.48,0,2-.45,1.69-2.08a17.89,17.89,0,0,0-1.36-4.59c2,1.4,2.88,3.72,3.34,6,0,.18.06.32.07.48.16,2.44-.42,2.6-2.83,2.58-.57-.08-.66-.42-.72-.86s-.13-1-.19-1.53" transform="translate(-24.63 -80.49)"/><path class="cls-8" d="M232.65,177.16c1.87,0,3.75,0,5.63,0,2,0,2.12-.55,2,2.24h-5.41c-2.19,0-2.19,0-2.24-2.21" transform="translate(-24.63 -80.49)"/><path class="cls-8" d="M220.45,218.74c2.28.4,4.57.76,6.83,1.22.83.17,1.35.47,1.46,1.33A68.15,68.15,0,0,1,222,220c-.59-.13-1.42-.33-1.52-1.28" transform="translate(-24.63 -80.49)"/><path class="cls-8" d="M243.31,209.84c1.59,0,3.15-.07,4.72-.07.62,0,.38.72.3,1.19-1.34,0-2.69,0-4,0-.73,0-1-.46-1-1.16" transform="translate(-24.63 -80.49)"/><path class="cls-8" d="M231.38,213.5c1.91-.4,1.35-2.63,1.2-3.11,1.16.58,1.31,2.21,1.24,3.54-.06.91-.81.74-1.34.78s-.85-.19-.92-.61a1.6,1.6,0,0,0-.18-.6" transform="translate(-24.63 -80.49)"/><path class="cls-8" d="M219.31,227c-1-.45-1.17-1.68-1.25-2.69,2-.13,1.26,1.62,1.25,2.69" transform="translate(-24.63 -80.49)"/><path class="cls-8" d="M264.85,164.66c-1.28,4.54-3.27,9.08-4.77,13.54-.1.29-.19.59-.28.89-3.08.18-3.09.17-2-2.8,1.81-5.08,3.64-10.15,5.52-15.41a38.67,38.67,0,0,1,1.56,3.78" transform="translate(-24.63 -80.49)"/><path class="cls-8" d="M345.27,210.94c-1.36,0-2.73,0-4.09,0-3.33,0-5.35,1.56-6,5s-1.66,7-1.17,10.62c-1.48-.93-1.7-2.5-1.5-4,.35-2.77.84-5.53,1.45-8.25.71-3.13,2.64-4.61,5.69-4.64,1.11,0,2.23,0,3.34,0a2.5,2.5,0,0,1,2.29,1.27" transform="translate(-24.63 -80.49)"/><path class="cls-8" d="M305.26,211.3a46.26,46.26,0,0,0-7.44-.29c-.6,0-1.11,0-1.23.82-.79,4.9-1.81,9.75-2.37,14.69a1,1,0,0,0,.11.63c-2.15,0-1.87.3-1.55-1.77.76-4.84,1.62-9.67,2.42-14.51.1-.63.21-1.13,1-1.12,2.08,0,4.16-.05,6.23.08a3,3,0,0,1,2.85,1.47" transform="translate(-24.63 -80.49)"/></svg>