<?xml version="1.0" encoding="utf-8"?>
<!-- Generator: Adobe Illustrator 24.1.0, SVG Export Plug-In . SVG Version: 6.00 Build 0)  -->
<svg version="1.1" id="Camada_1" xmlns="http://www.w3.org/2000/svg" xmlns:xlink="http://www.w3.org/1999/xlink" x="0px" y="0px"
	 viewBox="0 0 326.8 206.8" style="enable-background:new 0 0 326.8 206.8;" xml:space="preserve">
<style type="text/css">
	.st0{fill:#3B324A;}
	.st1{fill:#969696;}
	.st2{fill:#FCFCFC;}
	.st3{fill:#5E35A0;}
	.st4{fill:none;stroke:#5E35A0;stroke-width:0.22;stroke-miterlimit:10;}
	.st5{fill:#6222CA;}
	.st6{fill:#2E2B33;}
</style>
<path class="st0" d="M154.5,159.3c1.6-4.6,4.4-8.8,8.2-11.9c0.8-0.8,1.8-1.4,2.8-1.9l0,0c-0.1,0.2-0.2,0.5-0.3,0.7
	c-3.3,4.1-5.1,9.1-5.4,14.3c-0.2,3.7,0.5,7.3,2,10.6c-0.1-1.7-0.3-3.4-0.2-5.1c0.1-7.8,5.4-14.6,12.6-15.9c4.6-0.8,9,0.2,13.3,2
	c2.4,0.9,4.7,2,6.9,3.3c-5,1.7-8.7,5.8-9.9,10.9c-1.5,5.2-0.4,10.2,1.8,15c-1.9-1.5-3.4-3.3-4.7-5.3c-0.3,1.4-0.1,2.8,0.4,4.1
	c2.3,8.4,7.6,14.4,14.5,19c5.7,3.8,12,5.7,18.6,6.9c0.8,0,1.6,0.1,2.3,0.3c-3.2,0.1-6.4-0.1-9.6-0.5c-4.5-0.5-9-1.4-13.4-2.7
	c-8.1-2.3-15.8-5.6-23-9.9c-4.7-2.7-9-5.8-13.1-9.4c-3.2-2.7-6.1-5.8-8.6-9.1c-3-3.9-5.6-8.1-7.8-12.5c-0.1-0.1-0.2-0.2-0.5-0.4
	c-0.2,2.7,0,5.3,0.6,7.9c1.4,6.6,4.4,12.7,8.7,17.9c4,4.7,8.7,8.8,13.9,12.2c0.5,0.3,0.9,0.6,1.3,1c-1.2-0.1-2.3-0.5-3.4-1.1
	c-8.7-3.7-16.8-8.6-24.1-14.5c-7.5-6.2-13.4-14-17.1-23c-2-4.6-3.3-9.6-3.8-14.6c-0.3-2.5-0.5-5-0.8-7.8c-1.5,2.4-2.6,5.1-3.1,7.9
	c-0.8,2.7-1.1,5.6-1,8.4c-4.5-4.4-7.3-28.1-5.1-39.7c2.4-13.4,8.6-25.8,18-35.7c-2,0-3.9,0.4-5.7,1.3c-1.7,0.7-3.4,1.5-5.4,2.4
	c1.4-2.7,3-5.2,4.8-7.6c2.8-3.5,6-6.6,9.7-9.2c2.8-2.2,6-4,9.3-5.4c0.9-0.4,1.3-0.8,0.9-1.8c-1.6-4.3-1.8-8.9-1.8-13.5
	c0.1-6.4,1.6-12.5,3.3-18.6c2-7.5,6.8-17.7,3.3-24.4c-0.6-1.3-1.3-2.6-2.1-3.8c0.4-0.4,0.6-0.1,0.8,0.1c7,8,9.4,17.6,17.5,24.3
	c3.5,3,6.8,6.2,9.9,9.7c1,1.2,2.4,2.1,3.9,2.5c3.6,1,7.1,2.4,10.4,4.2c0.4,0.2,0.7,0.6,1.4,0.3c-1.3-1.3-2.7-2.5-4.1-3.6
	c2.7,0.2,5.3,0.8,7.8,1.7c6.1,2,11.8,4.9,16.9,8.8c0.7,0.6,1.7,0.7,2.4,0.2c4.6-2.3,9.3-4.5,13.9-6.8c3.3-1.5,5.9-4.2,7.2-7.6
	c1.1-3.4,1.1-7-0.2-10.3c-0.5-1.5-1.3-2.9-1.9-4.3c2.1,2.1,3.8,4.5,5.1,7.1c3.6,6.7,5.8,14,6.4,21.6c0.5,4.1,0.4,8.3-0.2,12.5
	c0,0.5-0.3,0.9-0.8,1.1c-1.4,0.8-2.8,1.7-4.2,2.4c-1,0.5-1.5,1-1.2,2.4c1.2,5.7,2.1,11.5,3.2,17.2c0.6,2.9,2.5,5.1,3.9,7.6
	c0.7,1.3,1.5,2.6,2.3,3.9c0.4,0.4,0.4,1,0,1.4c-0.1,0.1-0.2,0.1-0.2,0.2c-0.9,0.7-2.2,1.3-2.4,2.2c-0.2,1.1,0.5,2.4,0.9,3.6
	s0.6,2.2,1,3.3c0.8,2.1,1.2,4-1,5.7c-1.1,0.8-1.1,3.1-0.3,4.3c2.9,4.9,5.8,9.7,8.7,14.5c1.1,1.9,1.1,2.9-0.5,4.5
	c-1.6,1.5-2.4,3.6-2.3,5.8c0.1,4.8-2.2,9.3-6.1,12.1c-0.9,0.9-2,1.6-3.1,2.2c-2,0.8-3.5,2.6-4,4.8c-0.5,1.8-1.7,3.4-3.3,4.4
	c-1.5,1-2.9,2.1-4.4,3.1c-3,2-6,1.6-9.1,0.2c-3.8-1.7-7-4.4-10.6-6.6c-2.9-1.7-5.6-3.6-8.5-5.3c-4.1-2.6-8.3-4.8-12.8-6.6
	c-6.8-2.8-13.2-1.4-18.7,3c-0.4,0.3-0.8,0.6-1.2,1l0,0c0.7-1.7,1.8-3.3,3-4.7c3.4-3.9,7.6-7.1,12.3-9.3c2-1.2,4-2.2,6.1-3.1
	c-0.6-0.7-1.1-1.4-1.6-2.2c-1-1.7-2.1-1.7-3.8-1.1c-6.4,2.1-12.7,4.6-17.6,9.7c-4.5,4.7-7.3,10.7-8.1,17.1c-0.1,0.4,0,0.4-0.1,0.8
	S154.5,159.6,154.5,159.3 M214.5,56.7c-0.1-0.1-0.2-0.2-0.3-0.3c-0.6-12.9-0.1,0,0.1,0.2l0.3,0.3l0.3,0.3c0.1,0.1,0.2,0.3,0.3,0.4
	c0.1,0.2,0.2,0.4,0.4,0.5c4.3,5.5,7.8,11.7,10.2,18.3c1.4,3.5,2.6,7.2,5.1,10c0.6,0.7,1.1,1.4,1.5,2.2c0.3,0.3,0.4,0.8,0.3,1.2
	c-0.3,1.6-0.4,3.3-0.6,4.9c-0.3,2.5-0.7,5.1-1.1,8c2.7-2.5,5-4.8,7.4-7c1-0.9,1-1.5,0.3-2.7c-2.2-3.8-4.7-7.4-5.2-12.2
	c-0.8-6-2-11.9-3.6-17.7c-0.4-0.9,0.1-1.9,0.9-2.3c0,0,0,0,0.1,0c1.6-0.9,3.1-1.9,4.6-2.8c0.7-0.4,1.1-1.1,1.1-1.9
	c0.4-4.9,0.4-9.8-0.2-14.7c-0.4,4.1-0.4,8.2-1,12.2c0,0.7-0.4,1.3-1,1.6c-2.3,1.2-4.5,2.5-6.8,3.6c-1,0.5-1.1,1.1-0.8,2.1
	c1.4,4.1,2.6,8.3,3.5,12.5c0.5,1.6,0.7,3.3,0.7,5c-1.7-3-3.4-6.1-5.3-8.9c-3-4.4-6.4-8.4-10.4-12c-0.1-0.1-0.2-0.2-0.3-0.3l-0.4-0.3
	C214.3,56.6,214.7,57,214.5,56.7L214.5,56.7z M131,99.1c7.2-4.8,15.2-8.4,23.6-10.5c1.5-0.4,3.1-0.7,4.9-1.2
	c-3.5-2.2-7.1-3.5-10.3-6.2c4.5-0.3,9-1.4,13.2-3c8.1-3.3,14-9,16.9-17.8c1.3-3.3,0.7-7.1-1.6-9.8c-1.2-1.6-2.5-3.1-3.8-4.6
	c-3.9-3.9-7.7-7.8-11.6-11.8c-3.1-3.1-6.2-6.3-9.3-9.4l-0.3-0.3c-0.1,0-1.4-1.6-1.5-1.6c0,0.1,1.3,1.7,1.4,1.8l0.3,0.3
	c0.3,0.4,0.5,0.8,0.8,1.1c5.9,7.2,11.9,14.3,17.7,21.6c2,2.4,2.9,4.8,2.4,8.1c-1,6-3.2,11.3-7.5,15.4c-6,5.7-13.2,7.8-21.1,8.3
	c-0.6,0-1.4-0.4-1.6,0.7c-0.2,0.8,0.2,1.6,0.9,2c1.2,0.7,2.3,1.6,3.5,2.3s1.3,1.1,0,1.9c-2.4,1.4-4.8,3-7.1,4.6
	c-3.9,2.5-7.7,5.4-11.1,8.6c-0.2,0.2-1.2,0.9-0.1,0.3 M151.4,23c-0.1-0.1,0-0.4-0.2-0.1L151.4,23c0,0.2,0.1,0.3,0.3,0.3l0.1,0.5
	c0,0,0.1,0,0.1-0.1c0-0.2-0.1-0.3-0.3-0.4C151.6,23.3,151.5,23.2,151.4,23L151.4,23z M150.8,108.5c0.1-0.1,0.2-0.2,0.2-0.2
	c-0.1-0.2-0.2-0.1-0.3,0.1l-0.4,0.3c-3.5,2.3-6.6,5.2-9.2,8.5c-10.6,13.4-14,28.3-9.2,45.1c1,3.8,2.6,7.5,4.8,10.8
	c0.1,0.1,0.3,0.5,0.3,0.4c-0.1-0.2-0.1-0.3-0.1-0.5c-0.2-0.5-0.3-1-0.5-1.5c-3.1-8.6-2.8-16.9,1.2-25.1c3.8-7.7,9.7-13.2,16.7-17.6
	c1.3-0.8,2.7-1.6,4.1-2.4c-3.5,0.6-6.9,1.7-10.1,3.2c-3.4,1.5-6.6,3.3-9.7,5.4c1.7-6.6,5.2-12.6,10-17.5c4.6-4.6,10-8.4,16-11
	c-1.4,0.2-2.8,0.5-4.2,0.8c-4.1,1.2-8.1,2.8-11.8,5l-0.2-0.2c0.5-1.2,1.7-1.9,2.3-3.1L150.8,108.5z M200.3,57.4l0.2,0.1
	c0.1,0.1,0.2,0.3,0.3,0.4c0.1,0.1,0.1,0.3,0.2,0.4c2.6,3.4,4.8,7,6.7,10.8c1.9,3.6,3.2,7.4,4.1,11.3c-1.2-1.2-2.6-2.4-3.9-3.7
	c-1.3-1.3-2.7-2.5-4.3-3.6c-1.5-1-3.1-2.1-4.7-3s-3.3-1.7-4.9-2.5c-1.6-0.8-3.3-1.4-5-1.7c0.2,0.4,0.5,0.7,0.9,0.9
	c3.8,2.7,7.4,5.7,10.7,9c1.7,1.4,2.6,3.5,2.5,5.7c-0.3,6.2,2,10.7,7.9,12.7c0.7,0.2,1.2,0.6,1.5,1.3c0.9,3.7,3.6,5.2,6.9,5.7
	c0.3,0.1,0.6,0.2,0.9,0.3c2.1,0.7,2.1,0.7,2.2-1.6c0-0.5,0.1-0.9,0.2-1.4c0.4-2.3,0.1-4.3-1.8-5.9c-1-0.8-1.7-2-2.6-2.9
	c-0.8-0.8-1.2-1.9-0.9-3c0.8-4.6,0.3-8.8-2.7-12.6c-0.6-0.8-1.1-1.7-1.6-2.5c-3.3-5-7.3-9.6-11.9-13.6c-0.1-0.1-0.2-0.2-0.3-0.3
	c-0.1-0.1-0.2-0.2-0.4-0.3 M190.5,139.2c9.6,7.8,19.8,13.4,32.5,11.7l0.1,0.1c-1.6,2.3-4,3-6.5,3.1c-6.9,0.4-13-2.1-18.9-5.4
	c-2.7-1.5-5.2-3.2-7.8-4.9c-0.5-0.2-1-0.5-1.4-0.8c-0.3-0.2-0.4-0.3-0.7-0.3c0-0.2-0.4,0-0.6-0.1s0.4-0.4,0.4-0.3
	c0,0.2,0.2,0.3,0.4,0.3s0.3,0.3,0.5,0.5c0.7,0.1,0.5,0.3,1.2,1c0.4,0.4,0.8,0.8,1.3,1.1c3,2.3,6.3,4.3,9.7,6
	c5.2,2.7,10.9,4.5,16.7,5.1c6.1,0.5,11.3-2,16.3-5.3c0.4-0.3,0.6-0.7,0.6-1.2c0.5-3.6-1.3-7.1-4.6-8.2c-3.1-1-5.4-3.5-6.2-6.6
	c-0.8-2.4-2.1-3.4-4.6-3.4c-1.5,0-3,0.3-4.6,0.2c-6.1-0.3-12.2-1.1-18.2-2.6l-7.3-1.8c10.3,4.5,20.6,8.6,31.5,10.8
	c-10.7,2.4-19.5-2.9-28.6-7.4c2.8,2,5.7,3.8,8.8,5.4c3.1,1.7,6.2,3.1,9.4,4.4c3.1,1.2,6.4,2,9.6,3c-1.7,0.5-3.5,0.8-5.3,0.8
	c-5.9-0.4-11.6-2.1-16.7-5.1c-2.8-1.5-5.3-3.5-8-5.2c-0.6-0.4-1-0.8-1.4-1 M188.1,133c0.5,0.2,0.8,0.8,1.3,1.4
	c2.1,1.9,4.4,3.6,6.9,5c5.8,3.6,12,6.4,18.8,7.4c1.9,0.3,3.9,0.1,6.1,0.2c-1.5,1.2-3.4,1.9-5.4,1.9c-6.6,0.4-12.5-1.9-18.1-5.1
	c-2.4-1.4-4.7-3-7.1-4.6c-0.4-0.3-0.9-0.7-1-0.9c-0.1-0.2-0.3-0.4-0.6-0.3c0,0,0,0-0.1,0 M115.4,128c0.1-0.1-0.5-0.3-0.5-0.4
	s0.6,0,0.5,0L115.4,128l-0.2,0.3l-0.3-0.3C114.8,127.8,115.3,128.1,115.4,128z M182.2,61.3c2.1-4.5,0.3-12.8-3.5-16.2
	c-0.8-0.7-0.1,0.3,0,0.4C182,50.1,183.3,55.8,182.2,61.3L182.2,61.3L182.2,61.3z M197.8,93.9C197.7,93.9,197.8,93.9,197.8,93.9
	S197.8,93.8,197.8,93.9c0.1,1.1,1,1.7,1.4,2.6c1.2,3.1,3.5,4.2,6.5,4.8c2.1,0.4,3.3-0.4,4.6-1.9c-0.5-0.4-1.1-0.7-1.6-1
	c-0.8-0.3-1.7-1.8-2.4,0.2c0,0.1-0.5,0.1-0.7,0.1c-1.4,0.2-2.7-0.7-3-2.1c-0.1-0.7-0.6-1.4-1.3-1.6
	C200.1,94.6,198.9,94.2,197.8,93.9L197.8,93.9z M149.5,27.8c0.3,0.4,0.5,0.8,0.7,1.2c3.4,6.8,6.9,13.9,11.9,19.9l-0.2,0.2
	c-2.1-0.2-4.1-1.3-6.3-1.4l-0.3-0.2l-0.1,0.1l0.4,0.1c0.4,0.8,1.1,1.2,1.7,1.7c2.7,2.5,5.3,5.1,6.1,9.1c0.4,2-0.3,3.9-0.5,5.8
	l-0.2,0.1c0,0,0.1,0,0.1,0c0,0,0-0.1,0.1-0.1c1.2-0.7,2.1-1.8,2.6-3c2-3.8,3.3-7.8,0.5-11.8c-5-7.1-9.8-14.3-14.5-21.7
	c-1.3-1.9-2.6-3.9-4.1-6.1c-0.1,1.7-0.2,3.4-0.6,5.2c-1.3,6.8-3,13.4-3.6,20.3c-0.5,5.3-0.1,10.4,2.4,15.1c1.3,2.4,3.4,3,5.7,3.5
	c-2.7-3-4.8-6.2-4.7-10.7c1.9,1.1,3.7,2.2,5.9,2.5c-0.2-0.4-0.2-0.6-0.3-0.8c-3.1-5.9-4.1-12.3-4-18.9c0-0.4-0.2-1,0.3-1.2
	c0.4-0.2,0.7,0.4,1,0.6c1,1,2.2,1.8,3.4,2.5c-0.3-0.7-0.5-1.1-0.6-1.4c-1.5-3.5-2.5-7.1-3.1-10.9L149.5,27.8z M215.3,105.9
	c0,0.3,0,0.4,0,0.4c3.4,7,6,14.3,7.8,21.9c0.5,2.1,2.1,3.7,4.2,4.2c1.7,0.4,3.5,0.5,5.3,0.4c1.9,0,4-0.2,5.7,0.8
	c2.4,1.6,4.6,1.2,6.8,0c0.2-0.1,0.5-0.2,0.7-0.3c1.9-0.7,1.9-0.8,0.8-2.6c-4.1-6.8-8.2-13.6-12.3-20.3c-0.5-0.8-1.1-1.6-1.7-2.5
	c-0.5,1.2,0.3,2.7-0.5,3s-1.7-0.9-2.6-1.4c-0.3-0.1-0.5-0.3-0.8-0.5C224.8,105.6,220,106.1,215.3,105.9L215.3,105.9z M213.5,122.2
	c0.5-6.1-0.5-11.2-2.9-15.3c-0.4-0.7-1.1-1.3-1.9-1.4c-2.9-0.5-5.8-1.1-8.7-1.6c-0.9-0.1-1.6-0.6-2.1-1.4c-2.1-3.2-4.3-6.4-6.5-9.7
	c-0.3-0.5-0.6-1.2-1.2-1.4c-1.9-0.5-3.7-0.9-5.6-1.3c0.7,0.9,1.5,1.7,2.4,2.4c3.4,3.2,5.1,7.5,6.5,11.9c0.2,0.9,0.9,1.6,1.8,1.8
	c2.5,0.7,4.9,1.7,7.4,2.4c4.4,1.1,7.8,4.5,9.1,8.8L213.5,122.2z M176.9,106.2c1.6,0.9,3.5,1.5,5.3,1.7c-7.6-5.1-10.7-12-8.5-21.4
	c-3.8,5.3-4.1,13-1,19.4c2.6,5.4,9.8,11.8,13.3,11.8C181.1,113.3,178.3,109.9,176.9,106.2L176.9,106.2z M140.8,100.3
	c-7.9,1-23.5,17.9-25,27.1c2.6-5.8,6.2-11.1,10.6-15.8C130.7,107.1,135.7,103.7,140.8,100.3L140.8,100.3z M235.2,153.3
	c4.4-2.5,8.4-6.6,8.2-9.9C238.1,146.8,234.6,150.4,235.2,153.3L235.2,153.3z M237.7,102.6c0-0.3,0-0.7,0-1c-0.1-0.5,0.2-1.3-0.4-1.3
	c-0.7,0-1.2,0.5-1.3,1.1c-0.1,0.9,0,2.1-1.4,0.9c-0.2,0.1-0.3,0.2-0.4,0.4c-0.2,0.6-0.5,1.1-1.3,0.8c-0.3-0.1-0.5,0.1-0.5,0.4
	c0.5,1,1.2,1.7,2.1,2.3C236.3,105.9,237.6,104.4,237.7,102.6L237.7,102.6z M237.9,112.7c0.1-1.2,0.7-2.3,1.5-3.2
	c1-0.9,0.7-1.7,0.1-2.7c-0.9,0.9-1.6,1.8-2.5,2.6c-0.5,0.3-0.6,0.9-0.2,1.4c0,0,0.1,0.1,0.1,0.1C237.1,111.5,237.4,112,237.9,112.7
	L237.9,112.7z M159.2,125.9c0,0-0.3,0.4-0.3,0.4s0-0.4-0.1-0.4s0.1,0.1,0.1,0.1C159,126,159.1,126,159.2,125.9z"/>
<path class="st1" d="M192.7,148l0.1-0.1L192.7,148L192.7,148z"/>
<path class="st2" d="M182.9,50.1l-0.4-0.1l0.1-0.1L182.9,50.1L182.9,50.1"/>
<path class="st2" d="M190.2,66.6c0,0,0,0.1-0.1,0.1c0,0-0.1,0-0.1,0L190.2,66.6L190.2,66.6"/>
<polyline class="st2" points="209.4,63.8 209.4,63.8 209.4,63.8 209.4,63.8 "/>
<path class="st1" d="M250.2,153.3c0.1-0.1,0.2-0.2,0.3,0l-0.2,0.2L250.2,153.3"/>
<path class="st1" d="M175.7,114.7l-0.4,0.3l-0.1-0.1l0.3-0.4L175.7,114.7"/>
<path class="st1" d="M175.3,114.9c-0.1,0.1-0.2,0.3-0.3,0.1c0,0,0.1-0.1,0.2-0.2L175.3,114.9"/>
<path class="st1" d="M189.3,51.3c0.1,0.1,0.2,0.2,0.2,0.2s-0.2,0.1-0.4,0L189.3,51.3"/>
<path class="st3" d="M149.7,159.6c1.6-4.6,4.4-8.8,8.1-11.9c0.8-0.8,1.8-1.4,2.8-1.9l0,0c-0.1,0.2-0.2,0.5-0.3,0.7
	c-3.2,4.1-5.1,9.1-5.4,14.3c-0.2,3.7,0.5,7.3,2,10.6c-0.1-1.7-0.3-3.4-0.2-5.1c0.2-7.8,5.4-14.6,12.6-15.9c4.6-0.8,9,0.2,13.3,2
	c2.4,0.9,4.7,2,6.9,3.3c-5,1.7-8.7,5.8-9.9,10.9c-1.5,5.2-0.4,10.2,1.8,15c-1.9-1.5-3.5-3.3-4.7-5.3c-0.3,1.4-0.1,2.8,0.4,4.1
	c2.3,8.4,7.6,14.4,14.5,19c5.7,3.8,12,5.7,18.5,6.9c0.8,0,1.6,0.1,2.3,0.3c-3.2,0.1-6.4-0.1-9.6-0.5c-4.5-0.6-9-1.4-13.4-2.7
	c-8.1-2.3-15.8-5.6-23-9.9c-4.6-2.7-9-5.8-13.1-9.4c-3.2-2.8-6.1-5.8-8.7-9.1c-3-3.9-5.5-8-7.7-12.4c-0.1-0.1-0.2-0.2-0.5-0.4
	c-0.2,2.7,0,5.3,0.6,7.9c1.4,6.6,4.4,12.7,8.7,17.9c4,4.7,8.7,8.8,13.9,12.2c0.5,0.3,0.9,0.6,1.3,1c-1.2-0.1-2.3-0.5-3.4-1.1
	c-8.6-3.7-16.7-8.6-24-14.6c-7.5-6.2-13.4-14.1-17.1-23c-2-4.6-3.3-9.5-3.9-14.5c-0.3-2.5-0.5-5-0.8-7.8c-1.5,2.4-2.6,5.1-3.1,7.9
	c-0.8,2.7-1.1,5.6-1,8.4c-4.5-4.4-7.3-28.1-5.1-39.7c2.4-13.4,8.6-25.8,18-35.7c-2,0-3.9,0.4-5.6,1.3c-1.7,0.7-3.4,1.5-5.4,2.4
	c1.4-2.7,3-5.2,4.8-7.6c2.8-3.5,6.1-6.6,9.7-9.2c2.9-2.2,6-4,9.3-5.4c0.9-0.4,1.3-0.8,0.9-1.8c-1.6-4.3-1.8-8.9-1.8-13.5
	c0.1-6.4,1.6-12.5,3.3-18.6c2-7.5,6.8-17.7,3.2-24.4c-0.6-1.3-1.3-2.6-2.1-3.8c0.4-0.4,0.6-0.1,0.8,0.1c7,8,9.4,17.6,17.5,24.3
	c3.5,3,6.8,6.2,9.9,9.7c1,1.2,2.4,2.1,3.9,2.5c3.6,1,7.1,2.5,10.4,4.2c0.4,0.2,0.7,0.6,1.4,0.3c-1.3-1.3-2.7-2.5-4.1-3.6
	c2.7,0.2,5.3,0.8,7.8,1.7c6.1,2,11.8,4.9,16.9,8.8c0.7,0.6,1.7,0.7,2.4,0.2c4.6-2.3,9.3-4.5,13.9-6.8c3.3-1.5,5.9-4.2,7.2-7.6
	c1.1-3.4,1.1-7-0.2-10.3c-0.5-1.5-1.3-2.9-1.9-4.3c2.1,2.1,3.8,4.5,5.2,7.1c3.6,6.7,5.8,14,6.4,21.6c0.5,4.1,0.4,8.3-0.2,12.5
	c0,0.5-0.3,0.9-0.8,1.1c-1.4,0.8-2.8,1.7-4.2,2.4c-1,0.5-1.5,1-1.2,2.4c1.2,5.7,2.1,11.5,3.2,17.2c0.6,2.9,2.5,5.1,3.9,7.6
	c0.7,1.3,1.5,2.6,2.3,3.9c0.4,0.4,0.4,1,0,1.4c-0.1,0.1-0.2,0.1-0.2,0.2c-0.9,0.7-2.2,1.3-2.4,2.2c-0.2,1.1,0.5,2.4,0.9,3.6
	s0.6,2.2,1,3.3c0.8,2.1,1.2,4-1,5.7c-1.1,0.8-1.1,3-0.3,4.3c2.9,4.9,5.8,9.7,8.7,14.5c1.1,1.9,1,2.9-0.5,4.5
	c-1.6,1.5-2.4,3.6-2.3,5.8c0.1,4.8-2.2,9.3-6.1,12.1c-0.9,0.9-2,1.6-3.1,2.2c-2,0.8-3.5,2.6-4,4.8c-0.5,1.8-1.7,3.4-3.3,4.4
	c-1.5,1-2.9,2.1-4.4,3.1c-3,2-6,1.6-9.1,0.2c-3.8-1.7-7-4.4-10.6-6.6c-2.9-1.7-5.7-3.5-8.5-5.3c-4.1-2.6-8.3-4.8-12.8-6.6
	c-6.8-2.8-13.2-1.4-18.6,3c-0.8,0.6-0.8,0.6-1.2,1l0,0c0.7-1.7,1.8-3.3,3-4.7c3.4-3.9,7.6-7,12.3-9.3c2-1.2,4-2.2,6.1-3.1
	c-0.6-0.7-1.1-1.4-1.6-2.2c-1-1.7-2.1-1.7-3.8-1.1c-6.4,2.1-12.7,4.6-17.6,9.7c-4.5,4.7-7.3,10.7-8.1,17.1c-0.1,0.4,0,0.4-0.1,0.8
	S149.5,159.9,149.7,159.6z M209.5,56.9c-0.1-0.1-0.2-0.2-0.3-0.3c-0.6-12.9-0.1,0,0.1,0.2l0.3,0.3c0.1,0.1,0.2,0.2,0.3,0.3l0.3,0.4
	c0.1,0.2,0.2,0.4,0.4,0.5c4.4,5.5,7.8,11.7,10.3,18.3c1.4,3.5,2.6,7.2,5.1,10c0.6,0.7,1.1,1.4,1.5,2.2c0.3,0.3,0.4,0.8,0.3,1.2
	c-0.3,1.6-0.4,3.3-0.7,4.9c-0.3,2.5-0.7,5.1-1.1,8c2.7-2.5,5-4.8,7.4-7c1-0.9,1-1.5,0.3-2.7c-2.2-3.8-4.7-7.4-5.2-12.2
	c-0.8-6-2-11.9-3.6-17.7c-0.4-0.9,0-1.9,0.9-2.3c0,0,0,0,0,0c1.6-0.9,3.1-1.9,4.6-2.8c0.7-0.4,1.1-1.1,1.1-1.9
	c0.4-4.9,0.4-9.8-0.2-14.7c-0.4,4.1-0.4,8.2-1,12.2c0,0.7-0.4,1.3-1,1.6c-2.3,1.2-4.5,2.5-6.8,3.6c-1,0.5-1.1,1.1-0.8,2.1
	c1.4,4.1,2.6,8.3,3.5,12.5c0.5,1.6,0.7,3.3,0.7,5c-1.7-3-3.4-6.1-5.3-8.9c-2.9-4.4-6.4-8.5-10.3-12.1c-0.1-0.1-0.2-0.2-0.3-0.3
	l-0.4-0.3C209.4,56.9,209.8,57.2,209.5,56.9L209.5,56.9z M126.1,99.4c7.2-4.8,15.1-8.4,23.5-10.6c1.5-0.4,3.1-0.7,4.9-1.2
	c-3.5-2.2-7.1-3.5-10.3-6.2c4.5-0.3,9-1.3,13.2-2.9c8.1-3.4,14-9,16.9-17.8c1.3-3.3,0.7-7.1-1.6-9.8c-1.2-1.6-2.4-3.1-3.8-4.6
	c-3.9-3.9-7.7-7.8-11.6-11.8c-3.1-3.1-6.2-6.3-9.3-9.4l-0.3-0.3c-0.1,0-1.4-1.6-1.5-1.6c0.1,0.1,1.3,1.7,1.4,1.8l0.3,0.3
	c0.3,0.4,0.5,0.8,0.8,1.1c5.9,7.2,11.9,14.3,17.7,21.6c1.9,2.4,2.9,4.8,2.4,8.1c-1,6-3.2,11.3-7.5,15.4c-6,5.7-13.2,7.8-21.1,8.3
	c-0.6,0-1.4-0.4-1.6,0.7c-0.2,0.8,0.2,1.6,0.9,2c1.2,0.7,2.3,1.6,3.5,2.3s1.3,1.1,0,1.9c-2.4,1.4-4.8,3-7.1,4.6
	c-3.9,2.5-7.7,5.4-11.1,8.6c-0.2,0.2-1.2,0.9-0.1,0.3 M146.5,23.4c0-0.1,0-0.4-0.2-0.1L146.5,23.4c0,0.2,0.1,0.3,0.3,0.3l0.1,0.5
	c0,0,0.1,0,0.1-0.1c0-0.2-0.1-0.4-0.3-0.4c0,0,0,0,0,0L146.5,23.4z M145.9,108.9c0.1-0.1,0.2-0.2,0.2-0.2c-0.1-0.2-0.2-0.1-0.3,0.1
	l-0.4,0.3c-3.5,2.3-6.6,5.2-9.2,8.5c-10.6,13.4-14,28.3-9.2,45.1c1,3.8,2.6,7.5,4.8,10.8c0.1,0.1,0.3,0.6,0.3,0.4
	c-0.1-0.2-0.1-0.3-0.1-0.5c-0.2-0.5-0.3-1-0.4-1.5c-3.1-8.6-2.8-17,1.2-25.1c3.8-7.7,9.7-13.2,16.7-17.6c1.3-0.8,2.7-1.6,4-2.4
	c-3.5,0.6-6.9,1.7-10.1,3.2c-3.3,1.5-6.5,3.4-9.6,5.4c1.7-6.6,5.2-12.6,10-17.5c4.6-4.6,10-8.4,16-11c-1.4,0.2-2.8,0.5-4.2,0.8
	c-4.1,1.2-8.1,2.8-11.8,5l-0.2-0.2c0.5-1.2,1.7-1.9,2.3-3.1L145.9,108.9z M195.4,57.7l0.2,0.1c0.1,0.1,0.2,0.3,0.3,0.4
	s0.1,0.3,0.2,0.4c2.6,3.4,4.8,7,6.7,10.8c1.8,3.6,3.2,7.4,4.1,11.3c-1.2-1.2-2.6-2.4-3.9-3.7c-1.3-1.3-2.7-2.5-4.3-3.6
	c-1.5-1-3.1-2.1-4.7-3s-3.3-1.7-4.9-2.5c-1.6-0.8-3.3-1.4-5-1.7c0.2,0.4,0.5,0.7,0.9,0.9c3.8,2.7,7.4,5.7,10.7,9
	c1.6,1.6,2.7,3.2,2.5,5.7c-0.3,6.2,2,10.7,7.9,12.7c0.7,0.1,1.3,0.6,1.5,1.3c1,3.7,3.6,5.2,6.9,5.7c0.3,0.1,0.6,0.2,0.9,0.3
	c2.1,0.7,2.1,0.7,2.2-1.6c0-0.5,0.1-1,0.2-1.4c0.4-2.3,0.1-4.3-1.8-5.9c-1-0.8-1.7-2-2.6-2.9c-0.8-0.8-1.1-1.9-0.9-3
	c0.8-4.6,0.3-8.9-2.7-12.6c-0.6-0.8-1.1-1.7-1.6-2.5c-3.3-5-7.3-9.6-11.9-13.5l-0.3-0.3c-0.1-0.1-0.2-0.2-0.4-0.3 M185.7,139.4
	c9.6,7.8,19.8,13.4,32.5,11.7l0.1,0.1c-1.6,2.3-4,3-6.5,3.1c-6.9,0.4-13-2.1-18.9-5.4c-2.7-1.5-5.2-3.2-7.8-4.9
	c-0.5-0.2-1-0.5-1.4-0.8c-0.3-0.2-0.4-0.3-0.7-0.3c0-0.2-0.4,0-0.6-0.1c0.1-0.1,0.3-0.2,0.4-0.3c0,0.2,0.2,0.3,0.4,0.3
	s0.3,0.3,0.5,0.5c0.7,0.1,0.5,0.2,1.2,1c0.4,0.4,0.8,0.8,1.3,1.1c3,2.3,6.3,4.3,9.7,6c5.2,2.7,10.9,4.5,16.7,5.1
	c6.1,0.5,11.3-2,16.3-5.3c0.4-0.3,0.6-0.7,0.6-1.2c0.5-3.6-1.3-7.1-4.6-8.2c-3.1-1-5.4-3.5-6.2-6.6c-0.8-2.4-2.1-3.4-4.6-3.4
	c-1.5,0-3,0.3-4.6,0.2c-6.2-0.3-12.3-1.2-18.2-2.7l-7.3-1.8c10.3,4.5,20.6,8.6,31.5,10.8c-10.7,2.4-19.5-2.9-28.6-7.4
	c2.8,2,5.7,3.8,8.8,5.4c3.1,1.7,6.2,3.1,9.4,4.4c3.1,1.2,6.4,2,9.6,3c-1.7,0.5-3.5,0.8-5.3,0.8c-5.9-0.4-11.6-2.1-16.7-5.1
	c-2.8-1.5-5.3-3.5-8-5.2c-0.6-0.4-1-0.8-1.4-1 M183.3,133.2c0.5,0.2,0.8,0.8,1.3,1.4c2.1,1.9,4.4,3.6,6.8,5c5.8,3.6,12,6.4,18.8,7.4
	c1.9,0.3,3.9,0.1,6.1,0.2c-1.5,1.2-3.4,1.9-5.4,1.9c-6.6,0.4-12.5-1.9-18.1-5.1c-2.4-1.4-4.7-3-7.1-4.6c-0.4-0.3-0.9-0.7-1-0.9
	c-0.1-0.2-0.3-0.4-0.6-0.3c0,0,0,0-0.1,0 M110.6,128.4c0.1-0.1-0.5-0.3-0.5-0.4c0.1-0.1,0.6,0,0.5,0L110.6,128.4l-0.2,0.3l-0.3-0.3
	C110,128.1,110.5,128.4,110.6,128.4L110.6,128.4z M177.4,61.7c2.1-4.5,0.3-12.8-3.5-16.2c-0.8-0.7-0.1,0.3,0,0.4
	C177.2,50.5,178.5,56.2,177.4,61.7L177.4,61.7L177.4,61.7z M193,94.2C192.9,94.2,193,94.2,193,94.2S193,94.2,193,94.2
	c0.1,1.1,1,1.7,1.4,2.6c1.2,3.1,3.5,4.2,6.5,4.8c2.1,0.4,3.3-0.4,4.6-1.9c-0.5-0.4-1.1-0.7-1.6-1c-0.8-0.3-1.7-1.8-2.3,0.2
	c0,0.1-0.5,0.1-0.7,0.1c-1.4,0.2-2.7-0.7-3-2.1c-0.1-0.7-0.5-1.4-1.3-1.6C195.2,94.9,194.1,94.5,193,94.2L193,94.2z M144.7,28.1
	c0.3,0.4,0.5,0.8,0.7,1.2c3.4,6.8,6.9,13.9,11.9,19.9l-0.2,0.2c-2.1-0.2-4.1-1.3-6.3-1.4l-0.3-0.2l-0.1,0.1l0.4,0.1
	c0.4,0.8,1.1,1.2,1.7,1.7c2.7,2.5,5.3,5.1,6.1,9.1c0.4,2-0.3,3.9-0.5,5.8l-0.2,0.1c0,0,0.1,0,0.1,0c0,0,0-0.1,0.1-0.1
	c1.2-0.7,2.1-1.8,2.6-3c2-3.8,3.3-7.8,0.5-11.8c-5-7.1-9.8-14.3-14.5-21.6c-1.3-1.9-2.6-3.9-4.1-6.1c0,1.7-0.2,3.4-0.5,5.2
	c-1.3,6.8-3,13.4-3.6,20.3c-0.5,5.3-0.1,10.4,2.4,15.1c1.3,2.4,3.4,3,5.7,3.5c-2.7-3-4.8-6.2-4.7-10.7c1.9,1.1,3.7,2.2,5.9,2.5
	c-0.2-0.4-0.2-0.6-0.3-0.8c-3.1-5.9-4.1-12.3-4-18.9c0-0.4-0.2-1,0.3-1.2c0.4-0.2,0.7,0.4,1,0.6c1,1,2.2,1.8,3.4,2.5
	c-0.3-0.7-0.5-1.1-0.6-1.4c-1.5-3.5-2.5-7.1-3.1-10.8L144.7,28.1z M210.5,106.2c0,0.3,0,0.4,0,0.4c3.4,7,6,14.3,7.8,21.9
	c0.5,2.1,2.1,3.7,4.2,4.2c1.7,0.4,3.5,0.5,5.3,0.4c1.9,0,4-0.2,5.7,0.8c2.4,1.6,4.6,1.2,6.8,0c0.2-0.1,0.5-0.2,0.7-0.3
	c1.9-0.7,1.9-0.8,0.8-2.6c-4.1-6.8-8.2-13.6-12.3-20.4c-0.5-0.8-1.1-1.6-1.7-2.6c-0.5,1.2,0.3,2.7-0.5,3s-1.7-0.9-2.6-1.4
	c-0.3-0.1-0.5-0.3-0.8-0.5C219.9,105.9,215.1,106.4,210.5,106.2L210.5,106.2z M208.7,122.4c0.5-6.1-0.5-11.2-2.9-15.3
	c-0.4-0.7-1-1.3-1.9-1.4c-2.9-0.5-5.8-1.1-8.7-1.6c-0.9-0.1-1.6-0.6-2.1-1.4c-2.1-3.2-4.3-6.5-6.5-9.6c-0.4-0.5-0.6-1.2-1.2-1.4
	c-1.9-0.5-3.7-0.9-5.6-1.3c0.7,0.9,1.5,1.7,2.4,2.4c3.4,3.2,5.1,7.5,6.5,11.9c0.2,0.9,0.9,1.6,1.8,1.8c2.5,0.7,4.9,1.7,7.4,2.4
	c4.4,1.1,7.8,4.5,9.1,8.8C207.6,119.1,208.1,120.6,208.7,122.4z M172,106.4c1.6,0.9,3.5,1.5,5.3,1.7c-7.6-5.1-10.7-12-8.5-21.4
	c-3.8,5.3-4.1,13-1,19.4c2.6,5.4,9.8,11.8,13.3,11.8C176.2,113.6,173.4,110.1,172,106.4L172,106.4z M135.9,100.5
	c-7.9,1-23.5,17.8-25,27.1c2.6-5.8,6.2-11.1,10.6-15.8C125.8,107.4,130.9,104,135.9,100.5L135.9,100.5z M230.3,153.6
	c4.4-2.5,8.4-6.6,8.2-9.9C233.2,147.1,229.7,150.7,230.3,153.6L230.3,153.6z M232.8,102.9c0-0.3,0-0.7,0-1c-0.1-0.5,0.2-1.3-0.4-1.3
	c-0.7,0-1.2,0.5-1.3,1.1c-0.1,0.9,0,2.1-1.4,0.9c-0.2,0.1-0.3,0.2-0.4,0.4c-0.2,0.6-0.5,1.1-1.3,0.8c-0.2-0.1-0.5,0.1-0.5,0.4
	c0.5,1,1.2,1.7,2.1,2.3C231.4,106.2,232.7,104.7,232.8,102.9L232.8,102.9z M233,113c0.1-1.2,0.6-2.3,1.5-3.2c1-0.9,0.7-1.7,0.1-2.7
	c-0.9,0.9-1.6,1.8-2.5,2.6c-0.5,0.3-0.6,0.9-0.2,1.4c0,0,0.1,0.1,0.1,0.1C232.3,111.7,232.6,112.2,233,113L233,113z M154.3,126.2
	c0,0-0.3,0.4-0.3,0.4s0-0.4,0-0.4s0.1,0.1,0.1,0.1C154.1,126.3,154.2,126.3,154.3,126.2L154.3,126.2z"/>
<path class="st4" d="M149.7,159.6c1.6-4.6,4.4-8.8,8.1-11.9c0.8-0.8,1.8-1.4,2.8-1.9l0,0c-0.1,0.2-0.2,0.5-0.3,0.7
	c-3.2,4.1-5.1,9.1-5.4,14.3c-0.2,3.7,0.5,7.3,2,10.6c-0.1-1.7-0.3-3.4-0.2-5.1c0.2-7.8,5.4-14.6,12.6-15.9c4.6-0.8,9,0.2,13.3,2
	c2.4,0.9,4.7,2,6.9,3.3c-5,1.7-8.7,5.8-9.9,10.9c-1.5,5.2-0.4,10.2,1.8,15c-1.9-1.5-3.5-3.3-4.7-5.3c-0.3,1.4-0.1,2.8,0.4,4.1
	c2.3,8.4,7.6,14.4,14.5,19c5.7,3.8,12,5.7,18.5,6.9c0.8,0,1.6,0.1,2.3,0.3c-3.2,0.1-6.4-0.1-9.6-0.5c-4.5-0.6-9-1.4-13.4-2.7
	c-8.1-2.3-15.8-5.6-23-9.9c-4.6-2.7-9-5.8-13.1-9.4c-3.2-2.8-6.1-5.8-8.7-9.1c-3-3.9-5.5-8-7.7-12.4c-0.1-0.1-0.2-0.2-0.5-0.4
	c-0.2,2.7,0,5.3,0.6,7.9c1.4,6.6,4.4,12.7,8.7,17.9c4,4.7,8.7,8.8,13.9,12.2c0.5,0.3,0.9,0.6,1.3,1c-1.2-0.1-2.3-0.5-3.4-1.1
	c-8.6-3.7-16.7-8.6-24-14.6c-7.5-6.2-13.4-14.1-17.1-23c-2-4.6-3.3-9.5-3.9-14.5c-0.3-2.5-0.5-5-0.8-7.8c-1.5,2.4-2.6,5.1-3.1,7.9
	c-0.8,2.7-1.1,5.6-1,8.4c-4.5-4.4-7.3-28.1-5.1-39.7c2.4-13.4,8.6-25.8,18-35.7c-2,0-3.9,0.4-5.6,1.3c-1.7,0.7-3.4,1.5-5.4,2.4
	c1.4-2.7,3-5.2,4.8-7.6c2.8-3.5,6.1-6.6,9.7-9.2c2.9-2.2,6-4,9.3-5.4c0.9-0.4,1.3-0.8,0.9-1.8c-1.6-4.3-1.8-8.9-1.8-13.5
	c0.1-6.4,1.6-12.5,3.3-18.6c2-7.5,6.8-17.7,3.2-24.4c-0.6-1.3-1.3-2.6-2.1-3.8c0.4-0.4,0.6-0.1,0.8,0.1c7,8,9.4,17.6,17.5,24.3
	c3.5,3,6.8,6.2,9.9,9.7c1,1.2,2.4,2.1,3.9,2.5c3.6,1,7.1,2.5,10.4,4.2c0.4,0.2,0.7,0.6,1.4,0.3c-1.3-1.3-2.7-2.5-4.1-3.6
	c2.7,0.2,5.3,0.8,7.8,1.7c6.1,2,11.8,4.9,16.9,8.8c0.7,0.6,1.7,0.7,2.4,0.2c4.6-2.3,9.3-4.5,13.9-6.8c3.3-1.5,5.9-4.2,7.2-7.6
	c1.1-3.4,1.1-7-0.2-10.3c-0.5-1.5-1.3-2.9-1.9-4.3c2.1,2.1,3.8,4.5,5.2,7.1c3.6,6.7,5.8,14,6.4,21.6c0.5,4.1,0.4,8.3-0.2,12.5
	c0,0.5-0.3,0.9-0.8,1.1c-1.4,0.8-2.8,1.7-4.2,2.4c-1,0.5-1.5,1-1.2,2.4c1.2,5.7,2.1,11.5,3.2,17.2c0.6,2.9,2.5,5.1,3.9,7.6
	c0.7,1.3,1.5,2.6,2.3,3.9c0.4,0.4,0.4,1,0,1.4c-0.1,0.1-0.2,0.1-0.2,0.2c-0.9,0.7-2.2,1.3-2.4,2.2c-0.2,1.1,0.5,2.4,0.9,3.6
	s0.6,2.2,1,3.3c0.8,2.1,1.2,4-1,5.7c-1.1,0.8-1.1,3-0.3,4.3c2.9,4.9,5.8,9.7,8.7,14.5c1.1,1.9,1,2.9-0.5,4.5
	c-1.6,1.5-2.4,3.6-2.3,5.8c0.1,4.8-2.2,9.3-6.1,12.1c-0.9,0.9-2,1.6-3.1,2.2c-2,0.8-3.5,2.6-4,4.8c-0.5,1.8-1.7,3.4-3.3,4.4
	c-1.5,1-2.9,2.1-4.4,3.1c-3,2-6,1.6-9.1,0.2c-3.8-1.7-7-4.4-10.6-6.6c-2.9-1.7-5.7-3.5-8.5-5.3c-4.1-2.6-8.3-4.8-12.8-6.6
	c-6.8-2.8-13.2-1.4-18.6,3c-0.8,0.6-0.8,0.6-1.2,1l0,0c0.7-1.7,1.8-3.3,3-4.7c3.4-3.9,7.6-7,12.3-9.3c2-1.2,4-2.2,6.1-3.1
	c-0.6-0.7-1.1-1.4-1.6-2.2c-1-1.7-2.1-1.7-3.8-1.1c-6.4,2.1-12.7,4.6-17.6,9.7c-4.5,4.7-7.3,10.7-8.1,17.1c-0.1,0.4,0,0.4-0.1,0.8
	S149.5,159.9,149.7,159.6z M209.5,56.9c-0.1-0.1-0.2-0.2-0.3-0.3c-0.6-12.9-0.1,0,0.1,0.2l0.3,0.3c0.1,0.1,0.2,0.2,0.3,0.3l0.3,0.4
	c0.1,0.2,0.2,0.4,0.4,0.5c4.4,5.5,7.8,11.7,10.3,18.3c1.4,3.5,2.6,7.2,5.1,10c0.6,0.7,1.1,1.4,1.5,2.2c0.3,0.3,0.4,0.8,0.3,1.2
	c-0.3,1.6-0.4,3.3-0.7,4.9c-0.3,2.5-0.7,5.1-1.1,8c2.7-2.5,5-4.8,7.4-7c1-0.9,1-1.5,0.3-2.7c-2.2-3.8-4.7-7.4-5.2-12.2
	c-0.8-6-2-11.9-3.6-17.7c-0.4-0.9,0-1.9,0.9-2.3c0,0,0,0,0,0c1.6-0.9,3.1-1.9,4.6-2.8c0.7-0.4,1.1-1.1,1.1-1.9
	c0.4-4.9,0.4-9.8-0.2-14.7c-0.4,4.1-0.4,8.2-1,12.2c0,0.7-0.4,1.3-1,1.6c-2.3,1.2-4.5,2.5-6.8,3.6c-1,0.5-1.1,1.1-0.8,2.1
	c1.4,4.1,2.6,8.3,3.5,12.5c0.5,1.6,0.7,3.3,0.7,5c-1.7-3-3.4-6.1-5.3-8.9c-2.9-4.4-6.4-8.5-10.3-12.1c-0.1-0.1-0.2-0.2-0.3-0.3
	l-0.4-0.3C209.4,56.9,209.8,57.2,209.5,56.9L209.5,56.9z M126.1,99.4c7.2-4.8,15.1-8.4,23.5-10.6c1.5-0.4,3.1-0.7,4.9-1.2
	c-3.5-2.2-7.1-3.5-10.3-6.2c4.5-0.3,9-1.3,13.2-2.9c8.1-3.4,14-9,16.9-17.8c1.3-3.3,0.7-7.1-1.6-9.8c-1.2-1.6-2.4-3.1-3.8-4.6
	c-3.9-3.9-7.7-7.8-11.6-11.8c-3.1-3.1-6.2-6.3-9.3-9.4l-0.3-0.3c-0.1,0-1.4-1.6-1.5-1.6c0.1,0.1,1.3,1.7,1.4,1.8l0.3,0.3
	c0.3,0.4,0.5,0.8,0.8,1.1c5.9,7.2,11.9,14.3,17.7,21.6c1.9,2.4,2.9,4.8,2.4,8.1c-1,6-3.2,11.3-7.5,15.4c-6,5.7-13.2,7.8-21.1,8.3
	c-0.6,0-1.4-0.4-1.6,0.7c-0.2,0.8,0.2,1.6,0.9,2c1.2,0.7,2.3,1.6,3.5,2.3s1.3,1.1,0,1.9c-2.4,1.4-4.8,3-7.1,4.6
	c-3.9,2.5-7.7,5.4-11.1,8.6c-0.2,0.2-1.2,0.9-0.1,0.3 M146.5,23.4c0-0.1,0-0.4-0.2-0.1L146.5,23.4c0,0.2,0.1,0.3,0.3,0.3l0.1,0.5
	c0,0,0.1,0,0.1-0.1c0-0.2-0.1-0.4-0.3-0.4c0,0,0,0,0,0L146.5,23.4z M145.9,108.9c0.1-0.1,0.2-0.2,0.2-0.2c-0.1-0.2-0.2-0.1-0.3,0.1
	l-0.4,0.3c-3.5,2.3-6.6,5.2-9.2,8.5c-10.6,13.4-14,28.3-9.2,45.1c1,3.8,2.6,7.5,4.8,10.8c0.1,0.1,0.3,0.6,0.3,0.4
	c-0.1-0.2-0.1-0.3-0.1-0.5c-0.2-0.5-0.3-1-0.4-1.5c-3.1-8.6-2.8-17,1.2-25.1c3.8-7.7,9.7-13.2,16.7-17.6c1.3-0.8,2.7-1.6,4-2.4
	c-3.5,0.6-6.9,1.7-10.1,3.2c-3.3,1.5-6.5,3.4-9.6,5.4c1.7-6.6,5.2-12.6,10-17.5c4.6-4.6,10-8.4,16-11c-1.4,0.2-2.8,0.5-4.2,0.8
	c-4.1,1.2-8.1,2.8-11.8,5l-0.2-0.2c0.5-1.2,1.7-1.9,2.3-3.1L145.9,108.9z M195.4,57.7l0.2,0.1c0.1,0.1,0.2,0.3,0.3,0.4
	s0.1,0.3,0.2,0.4c2.6,3.4,4.8,7,6.7,10.8c1.8,3.6,3.2,7.4,4.1,11.3c-1.2-1.2-2.6-2.4-3.9-3.7c-1.3-1.3-2.7-2.5-4.3-3.6
	c-1.5-1-3.1-2.1-4.7-3s-3.3-1.7-4.9-2.5c-1.6-0.8-3.3-1.4-5-1.7c0.2,0.4,0.5,0.7,0.9,0.9c3.8,2.7,7.4,5.7,10.7,9
	c1.6,1.6,2.7,3.2,2.5,5.7c-0.3,6.2,2,10.7,7.9,12.7c0.7,0.1,1.3,0.6,1.5,1.3c1,3.7,3.6,5.2,6.9,5.7c0.3,0.1,0.6,0.2,0.9,0.3
	c2.1,0.7,2.1,0.7,2.2-1.6c0-0.5,0.1-1,0.2-1.4c0.4-2.3,0.1-4.3-1.8-5.9c-1-0.8-1.7-2-2.6-2.9c-0.8-0.8-1.1-1.9-0.9-3
	c0.8-4.6,0.3-8.9-2.7-12.6c-0.6-0.8-1.1-1.7-1.6-2.5c-3.3-5-7.3-9.6-11.9-13.5l-0.3-0.3c-0.1-0.1-0.2-0.2-0.4-0.3 M185.7,139.4
	c9.6,7.8,19.8,13.4,32.5,11.7l0.1,0.1c-1.6,2.3-4,3-6.5,3.1c-6.9,0.4-13-2.1-18.9-5.4c-2.7-1.5-5.2-3.2-7.8-4.9
	c-0.5-0.2-1-0.5-1.4-0.8c-0.3-0.2-0.4-0.3-0.7-0.3c0-0.2-0.4,0-0.6-0.1c0.1-0.1,0.3-0.2,0.4-0.3c0,0.2,0.2,0.3,0.4,0.3
	s0.3,0.3,0.5,0.5c0.7,0.1,0.5,0.2,1.2,1c0.4,0.4,0.8,0.8,1.3,1.1c3,2.3,6.3,4.3,9.7,6c5.2,2.7,10.9,4.5,16.7,5.1
	c6.1,0.5,11.3-2,16.3-5.3c0.4-0.3,0.6-0.7,0.6-1.2c0.5-3.6-1.3-7.1-4.6-8.2c-3.1-1-5.4-3.5-6.2-6.6c-0.8-2.4-2.1-3.4-4.6-3.4
	c-1.5,0-3,0.3-4.6,0.2c-6.2-0.3-12.3-1.2-18.2-2.7l-7.3-1.8c10.3,4.5,20.6,8.6,31.5,10.8c-10.7,2.4-19.5-2.9-28.6-7.4
	c2.8,2,5.7,3.8,8.8,5.4c3.1,1.7,6.2,3.1,9.4,4.4c3.1,1.2,6.4,2,9.6,3c-1.7,0.5-3.5,0.8-5.3,0.8c-5.9-0.4-11.6-2.1-16.7-5.1
	c-2.8-1.5-5.3-3.5-8-5.2c-0.6-0.4-1-0.8-1.4-1 M183.3,133.2c0.5,0.2,0.8,0.8,1.3,1.4c2.1,1.9,4.4,3.6,6.8,5c5.8,3.6,12,6.4,18.8,7.4
	c1.9,0.3,3.9,0.1,6.1,0.2c-1.5,1.2-3.4,1.9-5.4,1.9c-6.6,0.4-12.5-1.9-18.1-5.1c-2.4-1.4-4.7-3-7.1-4.6c-0.4-0.3-0.9-0.7-1-0.9
	c-0.1-0.2-0.3-0.4-0.6-0.3c0,0,0,0-0.1,0 M110.6,128.4c0.1-0.1-0.5-0.3-0.5-0.4c0.1-0.1,0.6,0,0.5,0L110.6,128.4l-0.2,0.3l-0.3-0.3
	C110,128.1,110.5,128.4,110.6,128.4L110.6,128.4z M177.4,61.7c2.1-4.5,0.3-12.8-3.5-16.2c-0.8-0.7-0.1,0.3,0,0.4
	C177.2,50.5,178.5,56.2,177.4,61.7L177.4,61.7L177.4,61.7z M193,94.2C192.9,94.2,193,94.2,193,94.2S193,94.2,193,94.2
	c0.1,1.1,1,1.7,1.4,2.6c1.2,3.1,3.5,4.2,6.5,4.8c2.1,0.4,3.3-0.4,4.6-1.9c-0.5-0.4-1.1-0.7-1.6-1c-0.8-0.3-1.7-1.8-2.3,0.2
	c0,0.1-0.5,0.1-0.7,0.1c-1.4,0.2-2.7-0.7-3-2.1c-0.1-0.7-0.5-1.4-1.3-1.6C195.2,94.9,194.1,94.5,193,94.2L193,94.2z M144.7,28.1
	c0.3,0.4,0.5,0.8,0.7,1.2c3.4,6.8,6.9,13.9,11.9,19.9l-0.2,0.2c-2.1-0.2-4.1-1.3-6.3-1.4l-0.3-0.2l-0.1,0.1l0.4,0.1
	c0.4,0.8,1.1,1.2,1.7,1.7c2.7,2.5,5.3,5.1,6.1,9.1c0.4,2-0.3,3.9-0.5,5.8l-0.2,0.1c0,0,0.1,0,0.1,0c0,0,0-0.1,0.1-0.1
	c1.2-0.7,2.1-1.8,2.6-3c2-3.8,3.3-7.8,0.5-11.8c-5-7.1-9.8-14.3-14.5-21.6c-1.3-1.9-2.6-3.9-4.1-6.1c0,1.7-0.2,3.4-0.5,5.2
	c-1.3,6.8-3,13.4-3.6,20.3c-0.5,5.3-0.1,10.4,2.4,15.1c1.3,2.4,3.4,3,5.7,3.5c-2.7-3-4.8-6.2-4.7-10.7c1.9,1.1,3.7,2.2,5.9,2.5
	c-0.2-0.4-0.2-0.6-0.3-0.8c-3.1-5.9-4.1-12.3-4-18.9c0-0.4-0.2-1,0.3-1.2c0.4-0.2,0.7,0.4,1,0.6c1,1,2.2,1.8,3.4,2.5
	c-0.3-0.7-0.5-1.1-0.6-1.4c-1.5-3.5-2.5-7.1-3.1-10.8L144.7,28.1z M210.5,106.2c0,0.3,0,0.4,0,0.4c3.4,7,6,14.3,7.8,21.9
	c0.5,2.1,2.1,3.7,4.2,4.2c1.7,0.4,3.5,0.5,5.3,0.4c1.9,0,4-0.2,5.7,0.8c2.4,1.6,4.6,1.2,6.8,0c0.2-0.1,0.5-0.2,0.7-0.3
	c1.9-0.7,1.9-0.8,0.8-2.6c-4.1-6.8-8.2-13.6-12.3-20.4c-0.5-0.8-1.1-1.6-1.7-2.6c-0.5,1.2,0.3,2.7-0.5,3s-1.7-0.9-2.6-1.4
	c-0.3-0.1-0.5-0.3-0.8-0.5C219.9,105.9,215.1,106.4,210.5,106.2L210.5,106.2z M208.7,122.4c0.5-6.1-0.5-11.2-2.9-15.3
	c-0.4-0.7-1-1.3-1.9-1.4c-2.9-0.5-5.8-1.1-8.7-1.6c-0.9-0.1-1.6-0.6-2.1-1.4c-2.1-3.2-4.3-6.5-6.5-9.6c-0.4-0.5-0.6-1.2-1.2-1.4
	c-1.9-0.5-3.7-0.9-5.6-1.3c0.7,0.9,1.5,1.7,2.4,2.4c3.4,3.2,5.1,7.5,6.5,11.9c0.2,0.9,0.9,1.6,1.8,1.8c2.5,0.7,4.9,1.7,7.4,2.4
	c4.4,1.1,7.8,4.5,9.1,8.8C207.6,119.1,208.1,120.6,208.7,122.4z M172,106.4c1.6,0.9,3.5,1.5,5.3,1.7c-7.6-5.1-10.7-12-8.5-21.4
	c-3.8,5.3-4.1,13-1,19.4c2.6,5.4,9.8,11.8,13.3,11.8C176.2,113.6,173.4,110.1,172,106.4L172,106.4z M135.9,100.5
	c-7.9,1-23.5,17.8-25,27.1c2.6-5.8,6.2-11.1,10.6-15.8C125.8,107.4,130.9,104,135.9,100.5L135.9,100.5z M230.3,153.6
	c4.4-2.5,8.4-6.6,8.2-9.9C233.2,147.1,229.7,150.7,230.3,153.6L230.3,153.6z M232.8,102.9c0-0.3,0-0.7,0-1c-0.1-0.5,0.2-1.3-0.4-1.3
	c-0.7,0-1.2,0.5-1.3,1.1c-0.1,0.9,0,2.1-1.4,0.9c-0.2,0.1-0.3,0.2-0.4,0.4c-0.2,0.6-0.5,1.1-1.3,0.8c-0.2-0.1-0.5,0.1-0.5,0.4
	c0.5,1,1.2,1.7,2.1,2.3C231.4,106.2,232.7,104.7,232.8,102.9L232.8,102.9z M233,113c0.1-1.2,0.6-2.3,1.5-3.2c1-0.9,0.7-1.7,0.1-2.7
	c-0.9,0.9-1.6,1.8-2.5,2.6c-0.5,0.3-0.6,0.9-0.2,1.4c0,0,0.1,0.1,0.1,0.1C232.3,111.7,232.6,112.2,233,113L233,113z M154.3,126.2
	c0,0-0.3,0.4-0.3,0.4s0-0.4,0-0.4s0.1,0.1,0.1,0.1C154.1,126.3,154.2,126.3,154.3,126.2L154.3,126.2z"/>
<path class="st5" d="M167,185.3h-1.8c-28.3,0-56.6,0-84.9,0c-1.4,0-1.8-0.3-1.8-1.8c0-45.6,0-91.3,0-136.9c0-1.4,0.3-1.8,1.6-1.7
	c10.5,0.1,20.9,0.1,31.4,0c1.3,0,1.6,0.3,1.6,1.7c0,33.7-0.1,67.4-0.1,101.1c0,1.5,0.3,1.9,1.8,1.9c9.3-0.1,18.5,0,27.8-0.1
	c0.8-0.1,1.5,0.2,1.9,0.9c7.3,11.4,14.7,22.8,22,34.2C166.7,184.6,166.8,184.8,167,185.3"/>
<path class="st5" d="M209.2,44.9c-9.5,0-19,0-28.5,0c-0.7,0-1.4,0.4-1.7,1.1c-10.5,16.1-20.9,32.2-31.4,48.3c-0.5,0.6-0.5,1.5,0,2.2
	c2.6,3.9,5.1,7.9,7.6,11.9l24.3,38c0.4,0.6,0.7,1.2,1.6,1.2c9.7,0,19.4,0,29.2,0c-0.2-0.6-0.4-1.1-0.8-1.7
	c-10.5-16.3-20.9-32.6-31.4-48.9c-0.7-0.8-0.7-2.1,0-2.9c10.3-15.8,20.5-31.7,30.8-47.6l1-1.6L209.2,44.9z"/>
<path class="st5" d="M113.8,44.9h5.4c7.8,0,15.5,0,23.3,0c0.8-0.1,1.7,0.4,2.1,1.1c3.3,4.9,6.6,9.8,9.9,14.7
	c0.5,0.5,0.5,1.3,0.1,1.9c-4.7,7.2-9.4,14.3-14,21.6c-0.5,0.9-0.8,1-1.4,0c-8.4-12.8-16.7-25.6-25.1-38.3
	C113.9,45.5,113.8,45.2,113.8,44.9"/>
<path class="st5" d="M113.8,147.5c0-0.5,0.2-1,0.6-1.4c5-7.8,9.9-15.5,14.9-23.3c0.3-0.7,1-1.1,1.7-1.1c9.6,0,19.1,0,28.7,0h0.4
	c0,0.5-0.2,0.9-0.5,1.3c-5,7.8-9.9,15.5-14.9,23.3c-0.4,0.6-0.7,1.2-1.6,1.1C133.3,147.5,123.6,147.5,113.8,147.5"/>
<path class="st6" d="M164.3,185.3h-1.8c-28.3,0-56.6,0-84.9,0c-1.4,0-1.8-0.3-1.8-1.8c0-45.6,0-91.3,0-136.9c0-1.4,0.3-1.8,1.6-1.8
	c10.5,0.1,20.9,0.1,31.4,0c1.3,0,1.6,0.3,1.6,1.7c0,33.7,0,67.4-0.1,101.1c0,1.5,0.3,1.9,1.8,1.9c9.3-0.1,18.5,0,27.8,0
	c0.8-0.1,1.5,0.2,1.9,0.9c7.3,11.4,14.7,22.8,22,34.2C163.9,184.6,164,184.8,164.3,185.3"/>
<path class="st6" d="M206.5,44.9c-9.5,0-19,0-28.5,0c-0.7,0-1.4,0.4-1.7,1.1c-10.4,16.1-20.9,32.2-31.4,48.3c-0.5,0.6-0.5,1.6,0,2.2
	c2.6,3.9,5.1,7.9,7.6,11.9l24.3,38c0.4,0.6,0.7,1.2,1.6,1.2c9.7,0,19.4,0,29.2,0c-0.2-0.6-0.4-1.2-0.8-1.7
	c-10.4-16.3-20.9-32.6-31.4-48.9c-0.7-0.8-0.7-2.1,0-2.9c10.3-15.8,20.5-31.7,30.8-47.6l1-1.6H206.5z"/>
<path class="st6" d="M111.1,44.9h5.4c7.8,0,15.5,0,23.3,0c0.9-0.1,1.7,0.3,2.1,1.1c3.3,4.9,6.6,9.8,9.9,14.7
	c0.5,0.5,0.6,1.3,0.1,1.9c-4.7,7.2-9.4,14.3-14.1,21.6c-0.6,0.9-0.8,1-1.4,0c-8.4-12.8-16.7-25.6-25.1-38.3
	C111.1,45.6,111,45.2,111.1,44.9"/>
<path class="st6" d="M111,147.5c0-0.5,0.2-1,0.6-1.4c5-7.8,9.9-15.5,14.9-23.3c0.3-0.7,1-1.1,1.7-1.1c9.6,0,19.1,0,28.7,0h0.4
	c-0.1,0.5-0.2,0.9-0.5,1.3c-5,7.8-9.9,15.6-14.9,23.3c-0.4,0.6-0.7,1.1-1.6,1.1C130.5,147.6,120.8,147.6,111,147.5"/>
</svg>
